%TF.GenerationSoftware,KiCad,Pcbnew,(6.0.2-0)*%
%TF.CreationDate,2022-07-24T07:52:35+02:00*%
%TF.ProjectId,ESP32Anglerfish,45535033-3241-46e6-976c-657266697368,rev?*%
%TF.SameCoordinates,Original*%
%TF.FileFunction,Copper,L1,Top*%
%TF.FilePolarity,Positive*%
%FSLAX46Y46*%
G04 Gerber Fmt 4.6, Leading zero omitted, Abs format (unit mm)*
G04 Created by KiCad (PCBNEW (6.0.2-0)) date 2022-07-24 07:52:35*
%MOMM*%
%LPD*%
G01*
G04 APERTURE LIST*
%TA.AperFunction,ComponentPad*%
%ADD10R,1.700000X1.700000*%
%TD*%
%TA.AperFunction,ComponentPad*%
%ADD11O,1.700000X1.700000*%
%TD*%
%TA.AperFunction,ComponentPad*%
%ADD12C,1.800000*%
%TD*%
%TA.AperFunction,ComponentPad*%
%ADD13R,1.800000X1.800000*%
%TD*%
%TA.AperFunction,ComponentPad*%
%ADD14O,1.800000X1.800000*%
%TD*%
G04 APERTURE END LIST*
D10*
%TO.P,J2,1,Pin_1*%
%TO.N,+5V*%
X98450000Y-65405000D03*
D11*
%TO.P,J2,2,Pin_2*%
%TO.N,GND*%
X98450000Y-67945000D03*
%TO.P,J2,3,Pin_3*%
%TO.N,Net-(J2-Pad3)*%
X98450000Y-70485000D03*
%TO.P,J2,4,Pin_4*%
%TO.N,Net-(J2-Pad4)*%
X98450000Y-73025000D03*
%TO.P,J2,5,Pin_5*%
%TO.N,Net-(J2-Pad5)*%
X98450000Y-75565000D03*
%TO.P,J2,6,Pin_6*%
%TO.N,Net-(J2-Pad6)*%
X98450000Y-78105000D03*
%TO.P,J2,7,Pin_7*%
%TO.N,Net-(J2-Pad7)*%
X98450000Y-80645000D03*
%TO.P,J2,8,Pin_8*%
%TO.N,Net-(J2-Pad8)*%
X98450000Y-83185000D03*
%TD*%
D12*
%TO.P,U1,1,GPIO4*%
%TO.N,Net-(J2-Pad8)*%
X98425000Y-83185000D03*
%TO.P,U1,2,GPIO2*%
%TO.N,Net-(J2-Pad7)*%
X98425000Y-80645000D03*
%TO.P,U1,3,GPIO14*%
%TO.N,Net-(J2-Pad6)*%
X98425000Y-78105000D03*
%TO.P,U1,4,GPIO15*%
%TO.N,Net-(J2-Pad5)*%
X98425000Y-75565000D03*
%TO.P,U1,5,GPIO13*%
%TO.N,Net-(J2-Pad4)*%
X98425000Y-73025000D03*
%TO.P,U1,6,GPIO12*%
%TO.N,Net-(J2-Pad3)*%
X98425000Y-70485000D03*
%TO.P,U1,7,GND*%
%TO.N,GND*%
X98425000Y-67945000D03*
D13*
%TO.P,U1,8,5V*%
%TO.N,+5V*%
X98425000Y-65405000D03*
D12*
%TO.P,U1,9,GND*%
%TO.N,GND*%
X75565000Y-83185000D03*
%TO.P,U1,10,GPIO1*%
%TO.N,Net-(J1-Pad2)*%
X75565000Y-80645000D03*
%TO.P,U1,11,GPIO3*%
%TO.N,Net-(J1-Pad3)*%
X75565000Y-78105000D03*
%TO.P,U1,12,P_out*%
%TO.N,Net-(J1-Pad4)*%
X75565000Y-75565000D03*
%TO.P,U1,13,GND*%
%TO.N,GND*%
X75565000Y-73025000D03*
%TO.P,U1,14,GPIO0*%
%TO.N,Net-(J1-Pad6)*%
X75565000Y-70485000D03*
%TO.P,U1,15,GPIO16*%
%TO.N,Net-(J1-Pad7)*%
X75565000Y-67945000D03*
D13*
%TO.P,U1,16,3.3V*%
%TO.N,Net-(J1-Pad8)*%
X75565000Y-65405000D03*
%TD*%
D10*
%TO.P,J4,1,Pin_1*%
%TO.N,+5V*%
X85710000Y-81915000D03*
D11*
%TO.P,J4,2,Pin_2*%
%TO.N,Net-(J2-Pad8)*%
X83170000Y-81915000D03*
%TO.P,J4,3,Pin_3*%
%TO.N,GND*%
X80630000Y-81915000D03*
%TD*%
D13*
%TO.P,Q1,1,E*%
%TO.N,Net-(J5-Pad1)*%
X85725000Y-77470000D03*
D14*
%TO.P,Q1,2,C*%
%TO.N,+5V*%
X85725000Y-74930000D03*
%TO.P,Q1,3,B*%
%TO.N,Net-(J1-Pad3)*%
X85725000Y-72390000D03*
%TD*%
D10*
%TO.P,J5,1,Pin_1*%
%TO.N,Net-(J5-Pad1)*%
X90190000Y-81915000D03*
D11*
%TO.P,J5,2,Pin_2*%
%TO.N,GND*%
X92730000Y-81915000D03*
%TD*%
D10*
%TO.P,J3,1,Pin_1*%
%TO.N,GND*%
X83185000Y-66040000D03*
D11*
%TO.P,J3,2,Pin_2*%
%TO.N,+5V*%
X85725000Y-66040000D03*
%TD*%
D10*
%TO.P,J1,1,Pin_1*%
%TO.N,GND*%
X75565000Y-83185000D03*
D11*
%TO.P,J1,2,Pin_2*%
%TO.N,Net-(J1-Pad2)*%
X75565000Y-80645000D03*
%TO.P,J1,3,Pin_3*%
%TO.N,Net-(J1-Pad3)*%
X75565000Y-78105000D03*
%TO.P,J1,4,Pin_4*%
%TO.N,Net-(J1-Pad4)*%
X75565000Y-75565000D03*
%TO.P,J1,5,Pin_5*%
%TO.N,GND*%
X75565000Y-73025000D03*
%TO.P,J1,6,Pin_6*%
%TO.N,Net-(J1-Pad6)*%
X75565000Y-70485000D03*
%TO.P,J1,7,Pin_7*%
%TO.N,Net-(J1-Pad7)*%
X75565000Y-67945000D03*
%TO.P,J1,8,Pin_8*%
%TO.N,Net-(J1-Pad8)*%
X75565000Y-65405000D03*
%TD*%
M02*
