M48
; DRILL file {KiCad (6.0.2-0)} date 2022 July 24, Sunday 07:52:39
; FORMAT={-:-/ absolute / metric / decimal}
; #@! TF.CreationDate,2022-07-24T07:52:39+02:00
; #@! TF.GenerationSoftware,Kicad,Pcbnew,(6.0.2-0)
; #@! TF.FileFunction,Plated,1,2,PTH
FMAT,2
METRIC
; #@! TA.AperFunction,Plated,PTH,ComponentDrill
T1C1.000
%
G90
G05
T1
X75.565Y-65.405
X75.565Y-65.405
X75.565Y-67.945
X75.565Y-67.945
X75.565Y-70.485
X75.565Y-70.485
X75.565Y-73.025
X75.565Y-73.025
X75.565Y-75.565
X75.565Y-75.565
X75.565Y-78.105
X75.565Y-78.105
X75.565Y-80.645
X75.565Y-80.645
X75.565Y-83.185
X75.565Y-83.185
X80.63Y-81.915
X83.17Y-81.915
X83.185Y-66.04
X85.71Y-81.915
X85.725Y-66.04
X85.725Y-72.39
X85.725Y-74.93
X85.725Y-77.47
X90.19Y-81.915
X92.73Y-81.915
X98.425Y-65.405
X98.425Y-67.945
X98.425Y-70.485
X98.425Y-73.025
X98.425Y-75.565
X98.425Y-78.105
X98.425Y-80.645
X98.425Y-83.185
X98.45Y-65.405
X98.45Y-67.945
X98.45Y-70.485
X98.45Y-73.025
X98.45Y-75.565
X98.45Y-78.105
X98.45Y-80.645
X98.45Y-83.185
T0
M30
