solid ASCII
  facet normal 0.000000e+00 -1.000000e+00 0.000000e+00
    outer loop
      vertex   -7.303305e+01 -2.056543e+01 3.484091e+01
      vertex   -6.959473e+01 -2.056543e+01 3.484091e+01
      vertex   -7.303305e+01 -2.056543e+01 3.684091e+01
    endloop
  endfacet
  facet normal 0.000000e+00 -1.000000e+00 0.000000e+00
    outer loop
      vertex   -7.303305e+01 -2.056543e+01 3.684091e+01
      vertex   -6.959473e+01 -2.056543e+01 3.484091e+01
      vertex   -6.959473e+01 -2.056543e+01 3.684091e+01
    endloop
  endfacet
  facet normal -1.000000e+00 0.000000e+00 0.000000e+00
    outer loop
      vertex   -6.959473e+01 -2.056543e+01 3.484091e+01
      vertex   -6.959473e+01 -3.836543e+01 3.484091e+01
      vertex   -6.959473e+01 -2.056543e+01 3.684091e+01
    endloop
  endfacet
  facet normal -1.000000e+00 -0.000000e+00 0.000000e+00
    outer loop
      vertex   -6.959473e+01 -2.056543e+01 3.684091e+01
      vertex   -6.959473e+01 -3.836543e+01 3.484091e+01
      vertex   -6.959473e+01 -3.836543e+01 3.684091e+01
    endloop
  endfacet
  facet normal 0.000000e+00 1.000000e+00 -0.000000e+00
    outer loop
      vertex   -6.959473e+01 -3.836543e+01 3.484091e+01
      vertex   -7.303305e+01 -3.836543e+01 3.484091e+01
      vertex   -6.959473e+01 -3.836543e+01 3.684091e+01
    endloop
  endfacet
  facet normal 0.000000e+00 1.000000e+00 0.000000e+00
    outer loop
      vertex   -6.959473e+01 -3.836543e+01 3.684091e+01
      vertex   -7.303305e+01 -3.836543e+01 3.484091e+01
      vertex   -7.303305e+01 -3.836543e+01 3.684091e+01
    endloop
  endfacet
  facet normal 0.000000e+00 0.000000e+00 -1.000000e+00
    outer loop
      vertex   -6.959473e+01 -3.836543e+01 3.684091e+01
      vertex   -7.303305e+01 -3.836543e+01 3.684091e+01
      vertex   -6.959473e+01 -2.056543e+01 3.684091e+01
    endloop
  endfacet
  facet normal -0.000000e+00 0.000000e+00 -1.000000e+00
    outer loop
      vertex   -6.959473e+01 -2.056543e+01 3.684091e+01
      vertex   -7.303305e+01 -3.836543e+01 3.684091e+01
      vertex   -7.303305e+01 -2.056543e+01 3.684091e+01
    endloop
  endfacet
  facet normal 0.000000e+00 0.000000e+00 -1.000000e+00
    outer loop
      vertex   -7.303305e+01 -3.836543e+01 3.484091e+01
      vertex   -6.959473e+01 -3.836543e+01 3.484091e+01
      vertex   -7.303305e+01 -3.936543e+01 3.484091e+01
    endloop
  endfacet
  facet normal 0.000000e+00 0.000000e+00 -1.000000e+00
    outer loop
      vertex   -7.303305e+01 -3.936543e+01 3.484091e+01
      vertex   -6.959473e+01 -3.836543e+01 3.484091e+01
      vertex   -6.175834e+01 -3.936543e+01 3.484091e+01
    endloop
  endfacet
  facet normal 0.000000e+00 0.000000e+00 -1.000000e+00
    outer loop
      vertex   -6.175834e+01 -3.936543e+01 3.484091e+01
      vertex   -6.959473e+01 -3.836543e+01 3.484091e+01
      vertex   -6.603305e+01 -3.736543e+01 3.484091e+01
    endloop
  endfacet
  facet normal 0.000000e+00 0.000000e+00 -1.000000e+00
    outer loop
      vertex   -6.175834e+01 -3.936543e+01 3.484091e+01
      vertex   -6.603305e+01 -3.736543e+01 3.484091e+01
      vertex   -6.175834e+01 -3.736543e+01 3.484091e+01
    endloop
  endfacet
  facet normal -0.000000e+00 0.000000e+00 -1.000000e+00
    outer loop
      vertex   -6.603305e+01 -3.736543e+01 3.484091e+01
      vertex   -6.959473e+01 -3.836543e+01 3.484091e+01
      vertex   -6.603305e+01 -2.156543e+01 3.484091e+01
    endloop
  endfacet
  facet normal -0.000000e+00 0.000000e+00 -1.000000e+00
    outer loop
      vertex   -6.603305e+01 -2.156543e+01 3.484091e+01
      vertex   -6.959473e+01 -3.836543e+01 3.484091e+01
      vertex   -6.959473e+01 -2.056543e+01 3.484091e+01
    endloop
  endfacet
  facet normal 0.000000e+00 0.000000e+00 -1.000000e+00
    outer loop
      vertex   -6.603305e+01 -2.156543e+01 3.484091e+01
      vertex   -6.959473e+01 -2.056543e+01 3.484091e+01
      vertex   -6.175834e+01 -1.956543e+01 3.484091e+01
    endloop
  endfacet
  facet normal -0.000000e+00 0.000000e+00 -1.000000e+00
    outer loop
      vertex   -6.175834e+01 -1.956543e+01 3.484091e+01
      vertex   -6.959473e+01 -2.056543e+01 3.484091e+01
      vertex   -7.303305e+01 -1.956543e+01 3.484091e+01
    endloop
  endfacet
  facet normal 0.000000e+00 0.000000e+00 -1.000000e+00
    outer loop
      vertex   -7.303305e+01 -1.956543e+01 3.484091e+01
      vertex   -6.959473e+01 -2.056543e+01 3.484091e+01
      vertex   -7.303305e+01 -2.056543e+01 3.484091e+01
    endloop
  endfacet
  facet normal 0.000000e+00 -0.000000e+00 -1.000000e+00
    outer loop
      vertex   -6.175834e+01 -1.956543e+01 3.484091e+01
      vertex   -6.175834e+01 -2.156543e+01 3.484091e+01
      vertex   -6.603305e+01 -2.156543e+01 3.484091e+01
    endloop
  endfacet
  facet normal 0.000000e+00 0.000000e+00 -1.000000e+00
    outer loop
      vertex   -7.303305e+01 -2.533346e+01 3.734091e+01
      vertex   -7.603305e+01 -2.533346e+01 3.734091e+01
      vertex   -7.303305e+01 -1.956543e+01 3.734091e+01
    endloop
  endfacet
  facet normal -0.000000e+00 0.000000e+00 -1.000000e+00
    outer loop
      vertex   -7.303305e+01 -1.956543e+01 3.734091e+01
      vertex   -7.603305e+01 -2.533346e+01 3.734091e+01
      vertex   -7.603305e+01 -1.956543e+01 3.734091e+01
    endloop
  endfacet
  facet normal 0.000000e+00 0.000000e+00 -1.000000e+00
    outer loop
      vertex   -7.603305e+01 -3.413346e+01 3.734091e+01
      vertex   -7.303305e+01 -3.413346e+01 3.734091e+01
      vertex   -7.603305e+01 -3.936543e+01 3.734091e+01
    endloop
  endfacet
  facet normal 0.000000e+00 0.000000e+00 -1.000000e+00
    outer loop
      vertex   -7.603305e+01 -3.936543e+01 3.734091e+01
      vertex   -7.303305e+01 -3.413346e+01 3.734091e+01
      vertex   -7.303305e+01 -3.936543e+01 3.734091e+01
    endloop
  endfacet
  facet normal -1.000000e+00 0.000000e+00 0.000000e+00
    outer loop
      vertex   -7.303305e+01 -3.836543e+01 3.484091e+01
      vertex   -7.303305e+01 -3.936543e+01 3.484091e+01
      vertex   -7.303305e+01 -3.836543e+01 3.684091e+01
    endloop
  endfacet
  facet normal -1.000000e+00 -0.000000e+00 0.000000e+00
    outer loop
      vertex   -7.303305e+01 -3.836543e+01 3.684091e+01
      vertex   -7.303305e+01 -3.936543e+01 3.484091e+01
      vertex   -7.303305e+01 -3.936543e+01 3.734091e+01
    endloop
  endfacet
  facet normal -1.000000e+00 0.000000e+00 0.000000e+00
    outer loop
      vertex   -7.303305e+01 -3.836543e+01 3.684091e+01
      vertex   -7.303305e+01 -3.936543e+01 3.734091e+01
      vertex   -7.303305e+01 -3.413346e+01 3.704091e+01
    endloop
  endfacet
  facet normal -1.000000e+00 0.000000e+00 0.000000e+00
    outer loop
      vertex   -7.303305e+01 -3.413346e+01 3.704091e+01
      vertex   -7.303305e+01 -3.936543e+01 3.734091e+01
      vertex   -7.303305e+01 -3.413346e+01 3.734091e+01
    endloop
  endfacet
  facet normal -1.000000e+00 0.000000e+00 -0.000000e+00
    outer loop
      vertex   -7.303305e+01 -3.413346e+01 3.704091e+01
      vertex   -7.303305e+01 -2.533346e+01 3.704091e+01
      vertex   -7.303305e+01 -3.836543e+01 3.684091e+01
    endloop
  endfacet
  facet normal -1.000000e+00 0.000000e+00 0.000000e+00
    outer loop
      vertex   -7.303305e+01 -3.836543e+01 3.684091e+01
      vertex   -7.303305e+01 -2.533346e+01 3.704091e+01
      vertex   -7.303305e+01 -2.056543e+01 3.684091e+01
    endloop
  endfacet
  facet normal -1.000000e+00 0.000000e+00 0.000000e+00
    outer loop
      vertex   -7.303305e+01 -2.056543e+01 3.684091e+01
      vertex   -7.303305e+01 -2.533346e+01 3.704091e+01
      vertex   -7.303305e+01 -1.956543e+01 3.734091e+01
    endloop
  endfacet
  facet normal -1.000000e+00 0.000000e+00 0.000000e+00
    outer loop
      vertex   -7.303305e+01 -2.056543e+01 3.684091e+01
      vertex   -7.303305e+01 -1.956543e+01 3.734091e+01
      vertex   -7.303305e+01 -1.956543e+01 3.484091e+01
    endloop
  endfacet
  facet normal -1.000000e+00 0.000000e+00 0.000000e+00
    outer loop
      vertex   -7.303305e+01 -2.533346e+01 3.704091e+01
      vertex   -7.303305e+01 -2.533346e+01 3.734091e+01
      vertex   -7.303305e+01 -1.956543e+01 3.734091e+01
    endloop
  endfacet
  facet normal -1.000000e+00 0.000000e+00 0.000000e+00
    outer loop
      vertex   -7.303305e+01 -1.956543e+01 3.484091e+01
      vertex   -7.303305e+01 -2.056543e+01 3.484091e+01
      vertex   -7.303305e+01 -2.056543e+01 3.684091e+01
    endloop
  endfacet
  facet normal 0.000000e+00 1.000000e+00 0.000000e+00
    outer loop
      vertex   -7.303305e+01 -3.413346e+01 3.704091e+01
      vertex   -7.303305e+01 -3.413346e+01 3.734091e+01
      vertex   -6.639099e+01 -3.413346e+01 3.704091e+01
    endloop
  endfacet
  facet normal 0.000000e+00 1.000000e+00 -0.000000e+00
    outer loop
      vertex   -6.639099e+01 -3.413346e+01 3.704091e+01
      vertex   -7.303305e+01 -3.413346e+01 3.734091e+01
      vertex   -6.639099e+01 -3.413346e+01 3.904091e+01
    endloop
  endfacet
  facet normal 0.000000e+00 1.000000e+00 0.000000e+00
    outer loop
      vertex   -6.639099e+01 -3.413346e+01 3.904091e+01
      vertex   -7.303305e+01 -3.413346e+01 3.734091e+01
      vertex   -7.603305e+01 -3.413346e+01 3.904091e+01
    endloop
  endfacet
  facet normal 0.000000e+00 1.000000e+00 0.000000e+00
    outer loop
      vertex   -7.603305e+01 -3.413346e+01 3.904091e+01
      vertex   -7.303305e+01 -3.413346e+01 3.734091e+01
      vertex   -7.603305e+01 -3.413346e+01 3.734091e+01
    endloop
  endfacet
  facet normal 0.000000e+00 -1.000000e+00 -4.179663e-15
    outer loop
      vertex   -7.603305e+01 -3.936543e+01 3.734091e+01
      vertex   -7.303305e+01 -3.936543e+01 3.734091e+01
      vertex   -7.603305e+01 -3.936543e+01 3.904091e+01
    endloop
  endfacet
  facet normal 0.000000e+00 -1.000000e+00 -4.179663e-15
    outer loop
      vertex   -7.603305e+01 -3.936543e+01 3.904091e+01
      vertex   -7.303305e+01 -3.936543e+01 3.734091e+01
      vertex   -6.175834e+01 -3.936543e+01 3.904091e+01
    endloop
  endfacet
  facet normal -3.751245e-16 -1.000000e+00 -1.691768e-15
    outer loop
      vertex   -6.175834e+01 -3.936543e+01 3.904091e+01
      vertex   -7.303305e+01 -3.936543e+01 3.734091e+01
      vertex   -6.175834e+01 -3.936543e+01 3.484091e+01
    endloop
  endfacet
  facet normal 0.000000e+00 -1.000000e+00 0.000000e+00
    outer loop
      vertex   -6.175834e+01 -3.936543e+01 3.484091e+01
      vertex   -7.303305e+01 -3.936543e+01 3.734091e+01
      vertex   -7.303305e+01 -3.936543e+01 3.484091e+01
    endloop
  endfacet
  facet normal -1.000000e+00 0.000000e+00 0.000000e+00
    outer loop
      vertex   -7.603305e+01 -1.956543e+01 3.734091e+01
      vertex   -7.603305e+01 -2.533346e+01 3.734091e+01
      vertex   -7.603305e+01 -1.956543e+01 3.904091e+01
    endloop
  endfacet
  facet normal -1.000000e+00 0.000000e+00 0.000000e+00
    outer loop
      vertex   -7.603305e+01 -1.956543e+01 3.904091e+01
      vertex   -7.603305e+01 -2.533346e+01 3.734091e+01
      vertex   -7.603305e+01 -2.533346e+01 3.904091e+01
    endloop
  endfacet
  facet normal -1.000000e+00 0.000000e+00 0.000000e+00
    outer loop
      vertex   -7.603305e+01 -3.413346e+01 3.734091e+01
      vertex   -7.603305e+01 -3.936543e+01 3.734091e+01
      vertex   -7.603305e+01 -3.413346e+01 3.904091e+01
    endloop
  endfacet
  facet normal -1.000000e+00 0.000000e+00 0.000000e+00
    outer loop
      vertex   -7.603305e+01 -3.413346e+01 3.904091e+01
      vertex   -7.603305e+01 -3.936543e+01 3.734091e+01
      vertex   -7.603305e+01 -3.936543e+01 3.904091e+01
    endloop
  endfacet
  facet normal -1.000000e+00 -0.000000e+00 0.000000e+00
    outer loop
      vertex   -6.639099e+01 -2.533346e+01 3.704091e+01
      vertex   -6.639099e+01 -3.413346e+01 3.704091e+01
      vertex   -6.639099e+01 -2.533346e+01 3.904091e+01
    endloop
  endfacet
  facet normal -1.000000e+00 0.000000e+00 0.000000e+00
    outer loop
      vertex   -6.639099e+01 -2.533346e+01 3.904091e+01
      vertex   -6.639099e+01 -3.413346e+01 3.704091e+01
      vertex   -6.639099e+01 -3.413346e+01 3.904091e+01
    endloop
  endfacet
  facet normal 5.348814e-16 -1.000000e+00 -1.184238e-14
    outer loop
      vertex   -7.303305e+01 -2.533346e+01 3.704091e+01
      vertex   -6.639099e+01 -2.533346e+01 3.704091e+01
      vertex   -7.303305e+01 -2.533346e+01 3.734091e+01
    endloop
  endfacet
  facet normal 9.895307e-16 -1.000000e+00 -1.776357e-15
    outer loop
      vertex   -7.303305e+01 -2.533346e+01 3.734091e+01
      vertex   -6.639099e+01 -2.533346e+01 3.704091e+01
      vertex   -6.639099e+01 -2.533346e+01 3.904091e+01
    endloop
  endfacet
  facet normal 0.000000e+00 -1.000000e+00 2.089832e-15
    outer loop
      vertex   -7.303305e+01 -2.533346e+01 3.734091e+01
      vertex   -6.639099e+01 -2.533346e+01 3.904091e+01
      vertex   -7.603305e+01 -2.533346e+01 3.904091e+01
    endloop
  endfacet
  facet normal -2.368476e-15 -1.000000e+00 -2.089832e-15
    outer loop
      vertex   -7.603305e+01 -2.533346e+01 3.904091e+01
      vertex   -7.603305e+01 -2.533346e+01 3.734091e+01
      vertex   -7.303305e+01 -2.533346e+01 3.734091e+01
    endloop
  endfacet
  facet normal 0.000000e+00 -1.231862e-15 1.000000e+00
    outer loop
      vertex   -7.603305e+01 -2.533346e+01 3.904091e+01
      vertex   -6.639099e+01 -2.533346e+01 3.904091e+01
      vertex   -7.603305e+01 -1.956543e+01 3.904091e+01
    endloop
  endfacet
  facet normal 0.000000e+00 -1.231862e-15 1.000000e+00
    outer loop
      vertex   -7.603305e+01 -1.956543e+01 3.904091e+01
      vertex   -6.639099e+01 -2.533346e+01 3.904091e+01
      vertex   -6.175834e+01 -1.956543e+01 3.904091e+01
    endloop
  endfacet
  facet normal 1.593902e-15 -2.512020e-15 1.000000e+00
    outer loop
      vertex   -6.175834e+01 -1.956543e+01 3.904091e+01
      vertex   -6.639099e+01 -2.533346e+01 3.904091e+01
      vertex   -6.175834e+01 -3.936543e+01 3.904091e+01
    endloop
  endfacet
  facet normal -5.800170e-16 -3.229740e-15 1.000000e+00
    outer loop
      vertex   -6.175834e+01 -3.936543e+01 3.904091e+01
      vertex   -6.639099e+01 -2.533346e+01 3.904091e+01
      vertex   -6.639099e+01 -3.413346e+01 3.904091e+01
    endloop
  endfacet
  facet normal 0.000000e+00 -2.716162e-15 1.000000e+00
    outer loop
      vertex   -6.175834e+01 -3.936543e+01 3.904091e+01
      vertex   -6.639099e+01 -3.413346e+01 3.904091e+01
      vertex   -7.603305e+01 -3.936543e+01 3.904091e+01
    endloop
  endfacet
  facet normal 0.000000e+00 -2.716162e-15 1.000000e+00
    outer loop
      vertex   -7.603305e+01 -3.936543e+01 3.904091e+01
      vertex   -6.639099e+01 -3.413346e+01 3.904091e+01
      vertex   -7.603305e+01 -3.413346e+01 3.904091e+01
    endloop
  endfacet
  facet normal 0.000000e+00 2.248553e-15 -1.000000e+00
    outer loop
      vertex   -6.603305e+01 -2.156543e+01 3.704091e+01
      vertex   -6.175834e+01 -2.156543e+01 3.704091e+01
      vertex   -6.603305e+01 -3.736543e+01 3.704091e+01
    endloop
  endfacet
  facet normal 0.000000e+00 2.248553e-15 -1.000000e+00
    outer loop
      vertex   -6.603305e+01 -3.736543e+01 3.704091e+01
      vertex   -6.175834e+01 -2.156543e+01 3.704091e+01
      vertex   -6.175834e+01 -3.736543e+01 3.704091e+01
    endloop
  endfacet
  facet normal -0.000000e+00 1.000000e+00 0.000000e+00
    outer loop
      vertex   -6.603305e+01 -3.736543e+01 3.704091e+01
      vertex   -6.175834e+01 -3.736543e+01 3.704091e+01
      vertex   -6.603305e+01 -3.736543e+01 3.484091e+01
    endloop
  endfacet
  facet normal 0.000000e+00 1.000000e+00 0.000000e+00
    outer loop
      vertex   -6.603305e+01 -3.736543e+01 3.484091e+01
      vertex   -6.175834e+01 -3.736543e+01 3.704091e+01
      vertex   -6.175834e+01 -3.736543e+01 3.484091e+01
    endloop
  endfacet
  facet normal -0.000000e+00 1.000000e+00 4.179663e-15
    outer loop
      vertex   -7.603305e+01 -1.956543e+01 3.734091e+01
      vertex   -7.603305e+01 -1.956543e+01 3.904091e+01
      vertex   -7.303305e+01 -1.956543e+01 3.734091e+01
    endloop
  endfacet
  facet normal 0.000000e+00 1.000000e+00 4.179663e-15
    outer loop
      vertex   -7.303305e+01 -1.956543e+01 3.734091e+01
      vertex   -7.603305e+01 -1.956543e+01 3.904091e+01
      vertex   -6.175834e+01 -1.956543e+01 3.904091e+01
    endloop
  endfacet
  facet normal 3.751245e-16 1.000000e+00 1.691768e-15
    outer loop
      vertex   -7.303305e+01 -1.956543e+01 3.734091e+01
      vertex   -6.175834e+01 -1.956543e+01 3.904091e+01
      vertex   -6.175834e+01 -1.956543e+01 3.484091e+01
    endloop
  endfacet
  facet normal 0.000000e+00 1.000000e+00 0.000000e+00
    outer loop
      vertex   -6.175834e+01 -1.956543e+01 3.484091e+01
      vertex   -7.303305e+01 -1.956543e+01 3.484091e+01
      vertex   -7.303305e+01 -1.956543e+01 3.734091e+01
    endloop
  endfacet
  facet normal 1.000000e+00 0.000000e+00 0.000000e+00
    outer loop
      vertex   -6.175834e+01 -2.156543e+01 3.484091e+01
      vertex   -6.175834e+01 -1.956543e+01 3.484091e+01
      vertex   -6.175834e+01 -2.156543e+01 3.704091e+01
    endloop
  endfacet
  facet normal 1.000000e+00 -0.000000e+00 0.000000e+00
    outer loop
      vertex   -6.175834e+01 -2.156543e+01 3.704091e+01
      vertex   -6.175834e+01 -1.956543e+01 3.484091e+01
      vertex   -6.175834e+01 -1.956543e+01 3.904091e+01
    endloop
  endfacet
  facet normal 1.000000e+00 7.177199e-16 -7.177199e-16
    outer loop
      vertex   -6.175834e+01 -2.156543e+01 3.704091e+01
      vertex   -6.175834e+01 -1.956543e+01 3.904091e+01
      vertex   -6.175834e+01 -3.936543e+01 3.904091e+01
    endloop
  endfacet
  facet normal 1.000000e+00 8.994212e-16 8.994212e-16
    outer loop
      vertex   -6.175834e+01 -2.156543e+01 3.704091e+01
      vertex   -6.175834e+01 -3.936543e+01 3.904091e+01
      vertex   -6.175834e+01 -3.736543e+01 3.704091e+01
    endloop
  endfacet
  facet normal 1.000000e+00 0.000000e+00 0.000000e+00
    outer loop
      vertex   -6.175834e+01 -3.736543e+01 3.704091e+01
      vertex   -6.175834e+01 -3.936543e+01 3.904091e+01
      vertex   -6.175834e+01 -3.936543e+01 3.484091e+01
    endloop
  endfacet
  facet normal 1.000000e+00 0.000000e+00 0.000000e+00
    outer loop
      vertex   -6.175834e+01 -3.736543e+01 3.704091e+01
      vertex   -6.175834e+01 -3.936543e+01 3.484091e+01
      vertex   -6.175834e+01 -3.736543e+01 3.484091e+01
    endloop
  endfacet
  facet normal -0.000000e+00 -1.000000e+00 -0.000000e+00
    outer loop
      vertex   -6.175834e+01 -2.156543e+01 3.704091e+01
      vertex   -6.603305e+01 -2.156543e+01 3.704091e+01
      vertex   -6.175834e+01 -2.156543e+01 3.484091e+01
    endloop
  endfacet
  facet normal 0.000000e+00 -1.000000e+00 0.000000e+00
    outer loop
      vertex   -6.175834e+01 -2.156543e+01 3.484091e+01
      vertex   -6.603305e+01 -2.156543e+01 3.704091e+01
      vertex   -6.603305e+01 -2.156543e+01 3.484091e+01
    endloop
  endfacet
  facet normal 1.000000e+00 8.994212e-16 0.000000e+00
    outer loop
      vertex   -6.603305e+01 -2.156543e+01 3.704091e+01
      vertex   -6.603305e+01 -3.736543e+01 3.704091e+01
      vertex   -6.603305e+01 -2.156543e+01 3.484091e+01
    endloop
  endfacet
  facet normal 1.000000e+00 8.994212e-16 0.000000e+00
    outer loop
      vertex   -6.603305e+01 -2.156543e+01 3.484091e+01
      vertex   -6.603305e+01 -3.736543e+01 3.704091e+01
      vertex   -6.603305e+01 -3.736543e+01 3.484091e+01
    endloop
  endfacet
  facet normal 0.000000e+00 -2.422305e-15 1.000000e+00
    outer loop
      vertex   -7.303305e+01 -3.413346e+01 3.704091e+01
      vertex   -6.639099e+01 -3.413346e+01 3.704091e+01
      vertex   -7.303305e+01 -2.533346e+01 3.704091e+01
    endloop
  endfacet
  facet normal 1.295646e-30 -2.422305e-15 1.000000e+00
    outer loop
      vertex   -7.303305e+01 -2.533346e+01 3.704091e+01
      vertex   -6.639099e+01 -3.413346e+01 3.704091e+01
      vertex   -6.639099e+01 -2.533346e+01 3.704091e+01
    endloop
  endfacet
endsolid
