solid ASCII
  facet normal 6.261863e-12 5.422983e-13 1.000000e+00
    outer loop
      vertex   -1.018301e+01 1.407208e+01 6.299071e+01
      vertex   -2.882155e+01 -4.471153e+00 6.299071e+01
      vertex   7.621643e+00 -3.824075e+00 6.299071e+01
    endloop
  endfacet
  facet normal 6.261849e-12 5.430786e-13 1.000000e+00
    outer loop
      vertex   7.621643e+00 -3.824075e+00 6.299071e+01
      vertex   -2.882155e+01 -4.471153e+00 6.299071e+01
      vertex   -1.101689e+01 -2.236731e+01 6.299071e+01
    endloop
  endfacet
  facet normal 7.089168e-01 7.052921e-01 -4.059949e-12
    outer loop
      vertex   -2.882155e+01 -4.471153e+00 6.349071e+01
      vertex   -1.101689e+01 -2.236731e+01 6.349071e+01
      vertex   -2.882155e+01 -4.471153e+00 6.299071e+01
    endloop
  endfacet
  facet normal 7.089168e-01 7.052921e-01 -4.053108e-12
    outer loop
      vertex   -2.882155e+01 -4.471153e+00 6.299071e+01
      vertex   -1.101689e+01 -2.236731e+01 6.349071e+01
      vertex   -1.101689e+01 -2.236731e+01 6.299071e+01
    endloop
  endfacet
  facet normal 3.544584e-01 3.526460e-01 8.660254e-01
    outer loop
      vertex   -2.882155e+01 -4.471153e+00 6.349071e+01
      vertex   -3.139637e+01 -7.032810e+00 6.558767e+01
      vertex   -1.101689e+01 -2.236731e+01 6.349071e+01
    endloop
  endfacet
  facet normal 3.544584e-01 3.526460e-01 8.660254e-01
    outer loop
      vertex   -1.101689e+01 -2.236731e+01 6.349071e+01
      vertex   -3.139637e+01 -7.032810e+00 6.558767e+01
      vertex   -1.359172e+01 -2.492897e+01 6.558767e+01
    endloop
  endfacet
  facet normal -7.089168e-01 -7.052921e-01 3.127920e-11
    outer loop
      vertex   -3.139637e+01 -7.032810e+00 6.558767e+01
      vertex   -3.139637e+01 -7.032810e+00 6.249071e+01
      vertex   -1.359172e+01 -2.492897e+01 6.558767e+01
    endloop
  endfacet
  facet normal -7.089168e-01 -7.052921e-01 3.128163e-11
    outer loop
      vertex   -1.359172e+01 -2.492897e+01 6.558767e+01
      vertex   -3.139637e+01 -7.032810e+00 6.249071e+01
      vertex   -1.359172e+01 -2.492897e+01 6.249071e+01
    endloop
  endfacet
  facet normal -5.716154e-12 2.231974e-16 -1.000000e+00
    outer loop
      vertex   -3.139637e+01 -7.032810e+00 6.249071e+01
      vertex   -1.018301e+01 1.407208e+01 6.249071e+01
      vertex   -1.359172e+01 -2.492897e+01 6.249071e+01
    endloop
  endfacet
  facet normal -5.716154e-12 2.231974e-16 -1.000000e+00
    outer loop
      vertex   -1.359172e+01 -2.492897e+01 6.249071e+01
      vertex   -1.018301e+01 1.407208e+01 6.249071e+01
      vertex   7.621643e+00 -3.824075e+00 6.249071e+01
    endloop
  endfacet
  facet normal 7.089168e-01 7.052921e-01 -4.054911e-12
    outer loop
      vertex   -1.018301e+01 1.407208e+01 6.299071e+01
      vertex   7.621643e+00 -3.824075e+00 6.299071e+01
      vertex   -1.018301e+01 1.407208e+01 6.249071e+01
    endloop
  endfacet
  facet normal 7.089168e-01 7.052921e-01 -4.062115e-12
    outer loop
      vertex   -1.018301e+01 1.407208e+01 6.249071e+01
      vertex   7.621643e+00 -3.824075e+00 6.299071e+01
      vertex   7.621643e+00 -3.824075e+00 6.249071e+01
    endloop
  endfacet
  facet normal 7.052921e-01 -7.089168e-01 -4.031628e-12
    outer loop
      vertex   -1.359172e+01 -2.492897e+01 6.558767e+01
      vertex   -1.359172e+01 -2.492897e+01 6.249071e+01
      vertex   -1.101689e+01 -2.236731e+01 6.349071e+01
    endloop
  endfacet
  facet normal 7.052921e-01 -7.089168e-01 -4.029167e-12
    outer loop
      vertex   -1.101689e+01 -2.236731e+01 6.349071e+01
      vertex   -1.359172e+01 -2.492897e+01 6.249071e+01
      vertex   -1.101689e+01 -2.236731e+01 6.299071e+01
    endloop
  endfacet
  facet normal 7.052921e-01 -7.089168e-01 -4.030037e-12
    outer loop
      vertex   -1.101689e+01 -2.236731e+01 6.299071e+01
      vertex   -1.359172e+01 -2.492897e+01 6.249071e+01
      vertex   7.621643e+00 -3.824075e+00 6.249071e+01
    endloop
  endfacet
  facet normal 7.052921e-01 -7.089168e-01 -4.025718e-12
    outer loop
      vertex   -1.101689e+01 -2.236731e+01 6.299071e+01
      vertex   7.621643e+00 -3.824075e+00 6.249071e+01
      vertex   7.621643e+00 -3.824075e+00 6.299071e+01
    endloop
  endfacet
  facet normal -7.052921e-01 7.089168e-01 4.030823e-12
    outer loop
      vertex   -3.139637e+01 -7.032810e+00 6.558767e+01
      vertex   -2.882155e+01 -4.471153e+00 6.349071e+01
      vertex   -3.139637e+01 -7.032810e+00 6.249071e+01
    endloop
  endfacet
  facet normal -7.052921e-01 7.089168e-01 4.039297e-12
    outer loop
      vertex   -3.139637e+01 -7.032810e+00 6.249071e+01
      vertex   -2.882155e+01 -4.471153e+00 6.349071e+01
      vertex   -2.882155e+01 -4.471153e+00 6.299071e+01
    endloop
  endfacet
  facet normal -7.052921e-01 7.089168e-01 4.027188e-12
    outer loop
      vertex   -3.139637e+01 -7.032810e+00 6.249071e+01
      vertex   -2.882155e+01 -4.471153e+00 6.299071e+01
      vertex   -1.018301e+01 1.407208e+01 6.249071e+01
    endloop
  endfacet
  facet normal -7.052921e-01 7.089168e-01 4.034178e-12
    outer loop
      vertex   -1.018301e+01 1.407208e+01 6.249071e+01
      vertex   -2.882155e+01 -4.471153e+00 6.299071e+01
      vertex   -1.018301e+01 1.407208e+01 6.299071e+01
    endloop
  endfacet
endsolid
