solid ASCII
  facet normal -0.000000e+00 0.000000e+00 1.000000e+00
    outer loop
      vertex   1.815000e+00 -1.205984e+01 1.617784e+01
      vertex   1.815000e+00 -1.256784e+01 1.617784e+01
      vertex   3.339000e+00 -1.205984e+01 1.617784e+01
    endloop
  endfacet
  facet normal 0.000000e+00 0.000000e+00 1.000000e+00
    outer loop
      vertex   3.339000e+00 -1.205984e+01 1.617784e+01
      vertex   1.815000e+00 -1.256784e+01 1.617784e+01
      vertex   3.339000e+00 -1.256784e+01 1.617784e+01
    endloop
  endfacet
  facet normal -7.071068e-01 -9.272200e-16 7.071068e-01
    outer loop
      vertex   1.815000e+00 -1.205984e+01 1.617784e+01
      vertex   1.561000e+00 -1.205984e+01 1.592384e+01
      vertex   1.815000e+00 -1.256784e+01 1.617784e+01
    endloop
  endfacet
  facet normal -7.071068e-01 -2.737854e-15 7.071068e-01
    outer loop
      vertex   1.815000e+00 -1.256784e+01 1.617784e+01
      vertex   1.561000e+00 -1.205984e+01 1.592384e+01
      vertex   1.307000e+00 -1.205984e+01 1.566984e+01
    endloop
  endfacet
  facet normal -7.071068e-01 2.028040e-16 7.071068e-01
    outer loop
      vertex   1.307000e+00 -1.205984e+01 1.566984e+01
      vertex   1.561000e+00 -1.205984e+01 1.592384e+01
      vertex   1.561000e+00 -1.053584e+01 1.592384e+01
    endloop
  endfacet
  facet normal -7.071068e-01 -4.120978e-16 7.071068e-01
    outer loop
      vertex   1.307000e+00 -1.205984e+01 1.566984e+01
      vertex   1.561000e+00 -1.053584e+01 1.592384e+01
      vertex   1.307000e+00 -1.053584e+01 1.566984e+01
    endloop
  endfacet
  facet normal -7.071068e-01 -2.737854e-15 7.071068e-01
    outer loop
      vertex   1.307000e+00 -1.053584e+01 1.566984e+01
      vertex   1.561000e+00 -1.053584e+01 1.592384e+01
      vertex   1.815000e+00 -1.002784e+01 1.617784e+01
    endloop
  endfacet
  facet normal -7.071068e-01 -9.272200e-16 7.071068e-01
    outer loop
      vertex   1.815000e+00 -1.002784e+01 1.617784e+01
      vertex   1.561000e+00 -1.053584e+01 1.592384e+01
      vertex   1.815000e+00 -1.053584e+01 1.617784e+01
    endloop
  endfacet
  facet normal 7.071068e-01 4.120978e-16 7.071068e-01
    outer loop
      vertex   3.593000e+00 -1.205984e+01 1.592384e+01
      vertex   3.847000e+00 -1.053584e+01 1.566984e+01
      vertex   3.593000e+00 -1.053584e+01 1.592384e+01
    endloop
  endfacet
  facet normal 7.071068e-01 -1.117957e-14 7.071068e-01
    outer loop
      vertex   3.593000e+00 -1.053584e+01 1.592384e+01
      vertex   3.847000e+00 -1.053584e+01 1.566984e+01
      vertex   3.339000e+00 -1.002784e+01 1.617784e+01
    endloop
  endfacet
  facet normal 7.071068e-01 6.084120e-16 7.071068e-01
    outer loop
      vertex   3.593000e+00 -1.053584e+01 1.592384e+01
      vertex   3.339000e+00 -1.002784e+01 1.617784e+01
      vertex   3.339000e+00 -1.053584e+01 1.617784e+01
    endloop
  endfacet
  facet normal 7.071068e-01 6.181466e-16 7.071068e-01
    outer loop
      vertex   3.339000e+00 -1.205984e+01 1.617784e+01
      vertex   3.339000e+00 -1.256784e+01 1.617784e+01
      vertex   3.593000e+00 -1.205984e+01 1.592384e+01
    endloop
  endfacet
  facet normal 7.071068e-01 1.300481e-14 7.071068e-01
    outer loop
      vertex   3.593000e+00 -1.205984e+01 1.592384e+01
      vertex   3.339000e+00 -1.256784e+01 1.617784e+01
      vertex   3.847000e+00 -1.205984e+01 1.566984e+01
    endloop
  endfacet
  facet normal 7.071068e-01 4.056080e-16 7.071068e-01
    outer loop
      vertex   3.593000e+00 -1.205984e+01 1.592384e+01
      vertex   3.847000e+00 -1.205984e+01 1.566984e+01
      vertex   3.847000e+00 -1.053584e+01 1.566984e+01
    endloop
  endfacet
  facet normal -1.000000e+00 -5.827942e-16 1.018947e-30
    outer loop
      vertex   1.307000e+00 -1.205984e+01 1.363784e+01
      vertex   1.307000e+00 -1.205984e+01 1.566984e+01
      vertex   1.307000e+00 -1.053584e+01 1.363784e+01
    endloop
  endfacet
  facet normal -1.000000e+00 -5.827942e-16 5.094737e-31
    outer loop
      vertex   1.307000e+00 -1.053584e+01 1.363784e+01
      vertex   1.307000e+00 -1.205984e+01 1.566984e+01
      vertex   1.307000e+00 -1.053584e+01 1.566984e+01
    endloop
  endfacet
  facet normal 0.000000e+00 -1.000000e+00 0.000000e+00
    outer loop
      vertex   1.815000e+00 -1.256784e+01 1.617784e+01
      vertex   1.815000e+00 -1.256784e+01 1.363784e+01
      vertex   3.339000e+00 -1.256784e+01 1.617784e+01
    endloop
  endfacet
  facet normal 0.000000e+00 -1.000000e+00 -0.000000e+00
    outer loop
      vertex   3.339000e+00 -1.256784e+01 1.617784e+01
      vertex   1.815000e+00 -1.256784e+01 1.363784e+01
      vertex   3.339000e+00 -1.256784e+01 1.363784e+01
    endloop
  endfacet
  facet normal 1.000000e+00 5.827942e-16 -0.000000e+00
    outer loop
      vertex   3.847000e+00 -1.053584e+01 1.363784e+01
      vertex   3.847000e+00 -1.053584e+01 1.566984e+01
      vertex   3.847000e+00 -1.205984e+01 1.363784e+01
    endloop
  endfacet
  facet normal 1.000000e+00 5.827942e-16 -1.018947e-30
    outer loop
      vertex   3.847000e+00 -1.205984e+01 1.363784e+01
      vertex   3.847000e+00 -1.053584e+01 1.566984e+01
      vertex   3.847000e+00 -1.205984e+01 1.566984e+01
    endloop
  endfacet
  facet normal 0.000000e+00 1.000000e+00 0.000000e+00
    outer loop
      vertex   1.815000e+00 -1.002784e+01 1.363784e+01
      vertex   1.815000e+00 -1.002784e+01 1.617784e+01
      vertex   3.339000e+00 -1.002784e+01 1.363784e+01
    endloop
  endfacet
  facet normal 0.000000e+00 1.000000e+00 -0.000000e+00
    outer loop
      vertex   3.339000e+00 -1.002784e+01 1.363784e+01
      vertex   1.815000e+00 -1.002784e+01 1.617784e+01
      vertex   3.339000e+00 -1.002784e+01 1.617784e+01
    endloop
  endfacet
  facet normal 0.000000e+00 0.000000e+00 1.000000e+00
    outer loop
      vertex   3.339000e+00 -1.053584e+01 1.617784e+01
      vertex   3.339000e+00 -1.002784e+01 1.617784e+01
      vertex   1.815000e+00 -1.053584e+01 1.617784e+01
    endloop
  endfacet
  facet normal 0.000000e+00 -0.000000e+00 1.000000e+00
    outer loop
      vertex   1.815000e+00 -1.053584e+01 1.617784e+01
      vertex   3.339000e+00 -1.002784e+01 1.617784e+01
      vertex   1.815000e+00 -1.002784e+01 1.617784e+01
    endloop
  endfacet
  facet normal 0.000000e+00 0.000000e+00 -1.000000e+00
    outer loop
      vertex   1.815000e+00 -1.256784e+01 1.363784e+01
      vertex   2.259500e+00 -1.161534e+01 1.363784e+01
      vertex   3.339000e+00 -1.256784e+01 1.363784e+01
    endloop
  endfacet
  facet normal 0.000000e+00 0.000000e+00 -1.000000e+00
    outer loop
      vertex   3.339000e+00 -1.256784e+01 1.363784e+01
      vertex   2.259500e+00 -1.161534e+01 1.363784e+01
      vertex   2.894500e+00 -1.161534e+01 1.363784e+01
    endloop
  endfacet
  facet normal 0.000000e+00 0.000000e+00 -1.000000e+00
    outer loop
      vertex   3.339000e+00 -1.256784e+01 1.363784e+01
      vertex   2.894500e+00 -1.161534e+01 1.363784e+01
      vertex   3.847000e+00 -1.205984e+01 1.363784e+01
    endloop
  endfacet
  facet normal 0.000000e+00 0.000000e+00 -1.000000e+00
    outer loop
      vertex   3.847000e+00 -1.205984e+01 1.363784e+01
      vertex   2.894500e+00 -1.161534e+01 1.363784e+01
      vertex   2.894500e+00 -1.098034e+01 1.363784e+01
    endloop
  endfacet
  facet normal 0.000000e+00 0.000000e+00 -1.000000e+00
    outer loop
      vertex   3.847000e+00 -1.205984e+01 1.363784e+01
      vertex   2.894500e+00 -1.098034e+01 1.363784e+01
      vertex   3.847000e+00 -1.053584e+01 1.363784e+01
    endloop
  endfacet
  facet normal -0.000000e+00 0.000000e+00 -1.000000e+00
    outer loop
      vertex   3.847000e+00 -1.053584e+01 1.363784e+01
      vertex   2.894500e+00 -1.098034e+01 1.363784e+01
      vertex   3.339000e+00 -1.002784e+01 1.363784e+01
    endloop
  endfacet
  facet normal 0.000000e+00 0.000000e+00 -1.000000e+00
    outer loop
      vertex   3.339000e+00 -1.002784e+01 1.363784e+01
      vertex   2.894500e+00 -1.098034e+01 1.363784e+01
      vertex   2.259500e+00 -1.098034e+01 1.363784e+01
    endloop
  endfacet
  facet normal -0.000000e+00 0.000000e+00 -1.000000e+00
    outer loop
      vertex   3.339000e+00 -1.002784e+01 1.363784e+01
      vertex   2.259500e+00 -1.098034e+01 1.363784e+01
      vertex   1.815000e+00 -1.002784e+01 1.363784e+01
    endloop
  endfacet
  facet normal 0.000000e+00 -0.000000e+00 -1.000000e+00
    outer loop
      vertex   1.815000e+00 -1.002784e+01 1.363784e+01
      vertex   2.259500e+00 -1.098034e+01 1.363784e+01
      vertex   1.307000e+00 -1.053584e+01 1.363784e+01
    endloop
  endfacet
  facet normal 0.000000e+00 0.000000e+00 -1.000000e+00
    outer loop
      vertex   1.307000e+00 -1.053584e+01 1.363784e+01
      vertex   2.259500e+00 -1.098034e+01 1.363784e+01
      vertex   2.259500e+00 -1.161534e+01 1.363784e+01
    endloop
  endfacet
  facet normal 0.000000e+00 0.000000e+00 -1.000000e+00
    outer loop
      vertex   1.307000e+00 -1.053584e+01 1.363784e+01
      vertex   2.259500e+00 -1.161534e+01 1.363784e+01
      vertex   1.307000e+00 -1.205984e+01 1.363784e+01
    endloop
  endfacet
  facet normal 0.000000e+00 0.000000e+00 -1.000000e+00
    outer loop
      vertex   1.307000e+00 -1.205984e+01 1.363784e+01
      vertex   2.259500e+00 -1.161534e+01 1.363784e+01
      vertex   1.815000e+00 -1.256784e+01 1.363784e+01
    endloop
  endfacet
  facet normal -7.071068e-01 7.071068e-01 -6.181466e-16
    outer loop
      vertex   1.307000e+00 -1.053584e+01 1.363784e+01
      vertex   1.307000e+00 -1.053584e+01 1.566984e+01
      vertex   1.815000e+00 -1.002784e+01 1.363784e+01
    endloop
  endfacet
  facet normal -7.071068e-01 7.071068e-01 0.000000e+00
    outer loop
      vertex   1.815000e+00 -1.002784e+01 1.363784e+01
      vertex   1.307000e+00 -1.053584e+01 1.566984e+01
      vertex   1.815000e+00 -1.002784e+01 1.617784e+01
    endloop
  endfacet
  facet normal -7.071068e-01 -7.071068e-01 1.236293e-15
    outer loop
      vertex   1.307000e+00 -1.205984e+01 1.363784e+01
      vertex   1.815000e+00 -1.256784e+01 1.363784e+01
      vertex   1.307000e+00 -1.205984e+01 1.566984e+01
    endloop
  endfacet
  facet normal -7.071068e-01 -7.071068e-01 0.000000e+00
    outer loop
      vertex   1.307000e+00 -1.205984e+01 1.566984e+01
      vertex   1.815000e+00 -1.256784e+01 1.363784e+01
      vertex   1.815000e+00 -1.256784e+01 1.617784e+01
    endloop
  endfacet
  facet normal 7.071068e-01 -7.071068e-01 1.236293e-15
    outer loop
      vertex   3.847000e+00 -1.205984e+01 1.363784e+01
      vertex   3.847000e+00 -1.205984e+01 1.566984e+01
      vertex   3.339000e+00 -1.256784e+01 1.363784e+01
    endloop
  endfacet
  facet normal 7.071068e-01 -7.071068e-01 0.000000e+00
    outer loop
      vertex   3.339000e+00 -1.256784e+01 1.363784e+01
      vertex   3.847000e+00 -1.205984e+01 1.566984e+01
      vertex   3.339000e+00 -1.256784e+01 1.617784e+01
    endloop
  endfacet
  facet normal 7.071068e-01 7.071068e-01 -0.000000e+00
    outer loop
      vertex   3.847000e+00 -1.053584e+01 1.363784e+01
      vertex   3.339000e+00 -1.002784e+01 1.363784e+01
      vertex   3.847000e+00 -1.053584e+01 1.566984e+01
    endloop
  endfacet
  facet normal 7.071068e-01 7.071068e-01 0.000000e+00
    outer loop
      vertex   3.847000e+00 -1.053584e+01 1.566984e+01
      vertex   3.339000e+00 -1.002784e+01 1.363784e+01
      vertex   3.339000e+00 -1.002784e+01 1.617784e+01
    endloop
  endfacet
  facet normal -1.165588e-15 1.000000e+00 1.165588e-15
    outer loop
      vertex   1.815000e+00 -1.205984e+01 1.617784e+01
      vertex   3.339000e+00 -1.205984e+01 1.617784e+01
      vertex   1.561000e+00 -1.205984e+01 1.592384e+01
    endloop
  endfacet
  facet normal -8.741914e-16 1.000000e+00 -8.741914e-16
    outer loop
      vertex   1.561000e+00 -1.205984e+01 1.592384e+01
      vertex   3.339000e+00 -1.205984e+01 1.617784e+01
      vertex   3.593000e+00 -1.205984e+01 1.592384e+01
    endloop
  endfacet
  facet normal 0.000000e+00 -1.000000e+00 0.000000e+00
    outer loop
      vertex   1.561000e+00 -1.053584e+01 1.592384e+01
      vertex   3.593000e+00 -1.053584e+01 1.592384e+01
      vertex   1.815000e+00 -1.053584e+01 1.617784e+01
    endloop
  endfacet
  facet normal 0.000000e+00 -1.000000e+00 0.000000e+00
    outer loop
      vertex   1.815000e+00 -1.053584e+01 1.617784e+01
      vertex   3.593000e+00 -1.053584e+01 1.592384e+01
      vertex   3.339000e+00 -1.053584e+01 1.617784e+01
    endloop
  endfacet
  facet normal -8.741914e-16 2.622574e-15 1.000000e+00
    outer loop
      vertex   3.593000e+00 -1.053584e+01 1.592384e+01
      vertex   1.561000e+00 -1.053584e+01 1.592384e+01
      vertex   2.259500e+00 -1.098034e+01 1.592384e+01
    endloop
  endfacet
  facet normal -1.801364e-15 1.165588e-15 1.000000e+00
    outer loop
      vertex   2.259500e+00 -1.098034e+01 1.592384e+01
      vertex   1.561000e+00 -1.053584e+01 1.592384e+01
      vertex   1.561000e+00 -1.205984e+01 1.592384e+01
    endloop
  endfacet
  facet normal 0.000000e+00 0.000000e+00 1.000000e+00
    outer loop
      vertex   2.259500e+00 -1.098034e+01 1.592384e+01
      vertex   1.561000e+00 -1.205984e+01 1.592384e+01
      vertex   2.259500e+00 -1.161534e+01 1.592384e+01
    endloop
  endfacet
  facet normal 0.000000e+00 0.000000e+00 1.000000e+00
    outer loop
      vertex   2.259500e+00 -1.161534e+01 1.592384e+01
      vertex   1.561000e+00 -1.205984e+01 1.592384e+01
      vertex   3.593000e+00 -1.205984e+01 1.592384e+01
    endloop
  endfacet
  facet normal -0.000000e+00 0.000000e+00 1.000000e+00
    outer loop
      vertex   2.259500e+00 -1.161534e+01 1.592384e+01
      vertex   3.593000e+00 -1.205984e+01 1.592384e+01
      vertex   2.894500e+00 -1.161534e+01 1.592384e+01
    endloop
  endfacet
  facet normal -0.000000e+00 0.000000e+00 1.000000e+00
    outer loop
      vertex   2.894500e+00 -1.161534e+01 1.592384e+01
      vertex   3.593000e+00 -1.205984e+01 1.592384e+01
      vertex   3.593000e+00 -1.053584e+01 1.592384e+01
    endloop
  endfacet
  facet normal 0.000000e+00 -0.000000e+00 1.000000e+00
    outer loop
      vertex   2.894500e+00 -1.161534e+01 1.592384e+01
      vertex   3.593000e+00 -1.053584e+01 1.592384e+01
      vertex   2.894500e+00 -1.098034e+01 1.592384e+01
    endloop
  endfacet
  facet normal 0.000000e+00 -0.000000e+00 1.000000e+00
    outer loop
      vertex   2.894500e+00 -1.098034e+01 1.592384e+01
      vertex   3.593000e+00 -1.053584e+01 1.592384e+01
      vertex   2.259500e+00 -1.098034e+01 1.592384e+01
    endloop
  endfacet
  facet normal 0.000000e+00 1.000000e+00 0.000000e+00
    outer loop
      vertex   2.259500e+00 -1.161534e+01 1.363784e+01
      vertex   2.259500e+00 -1.161534e+01 1.592384e+01
      vertex   2.894500e+00 -1.161534e+01 1.363784e+01
    endloop
  endfacet
  facet normal 0.000000e+00 1.000000e+00 -0.000000e+00
    outer loop
      vertex   2.894500e+00 -1.161534e+01 1.363784e+01
      vertex   2.259500e+00 -1.161534e+01 1.592384e+01
      vertex   2.894500e+00 -1.161534e+01 1.592384e+01
    endloop
  endfacet
  facet normal 1.000000e+00 0.000000e+00 -0.000000e+00
    outer loop
      vertex   2.259500e+00 -1.098034e+01 1.363784e+01
      vertex   2.259500e+00 -1.098034e+01 1.592384e+01
      vertex   2.259500e+00 -1.161534e+01 1.363784e+01
    endloop
  endfacet
  facet normal 1.000000e+00 0.000000e+00 0.000000e+00
    outer loop
      vertex   2.259500e+00 -1.161534e+01 1.363784e+01
      vertex   2.259500e+00 -1.098034e+01 1.592384e+01
      vertex   2.259500e+00 -1.161534e+01 1.592384e+01
    endloop
  endfacet
  facet normal 0.000000e+00 -1.000000e+00 7.770590e-16
    outer loop
      vertex   2.894500e+00 -1.098034e+01 1.363784e+01
      vertex   2.894500e+00 -1.098034e+01 1.592384e+01
      vertex   2.259500e+00 -1.098034e+01 1.363784e+01
    endloop
  endfacet
  facet normal 2.797412e-15 -1.000000e+00 0.000000e+00
    outer loop
      vertex   2.259500e+00 -1.098034e+01 1.363784e+01
      vertex   2.894500e+00 -1.098034e+01 1.592384e+01
      vertex   2.259500e+00 -1.098034e+01 1.592384e+01
    endloop
  endfacet
  facet normal -1.000000e+00 -6.993531e-16 0.000000e+00
    outer loop
      vertex   2.894500e+00 -1.161534e+01 1.363784e+01
      vertex   2.894500e+00 -1.161534e+01 1.592384e+01
      vertex   2.894500e+00 -1.098034e+01 1.363784e+01
    endloop
  endfacet
  facet normal -1.000000e+00 -6.993531e-16 5.434386e-31
    outer loop
      vertex   2.894500e+00 -1.098034e+01 1.363784e+01
      vertex   2.894500e+00 -1.161534e+01 1.592384e+01
      vertex   2.894500e+00 -1.098034e+01 1.592384e+01
    endloop
  endfacet
  facet normal 0.000000e+00 -1.000000e+00 1.665126e-16
    outer loop
      vertex   2.259500e+00 -1.161534e+01 1.833684e+01
      vertex   2.259500e+00 -1.161534e+01 7.668842e+00
      vertex   2.894500e+00 -1.161534e+01 1.833684e+01
    endloop
  endfacet
  facet normal 2.797412e-15 -1.000000e+00 2.329023e-31
    outer loop
      vertex   2.894500e+00 -1.161534e+01 1.833684e+01
      vertex   2.259500e+00 -1.161534e+01 7.668842e+00
      vertex   2.894500e+00 -1.161534e+01 7.668842e+00
    endloop
  endfacet
  facet normal -1.000000e+00 -0.000000e+00 -0.000000e+00
    outer loop
      vertex   2.259500e+00 -1.098034e+01 1.833684e+01
      vertex   2.259500e+00 -1.098034e+01 7.668842e+00
      vertex   2.259500e+00 -1.161534e+01 1.833684e+01
    endloop
  endfacet
  facet normal -1.000000e+00 0.000000e+00 -0.000000e+00
    outer loop
      vertex   2.259500e+00 -1.161534e+01 1.833684e+01
      vertex   2.259500e+00 -1.098034e+01 7.668842e+00
      vertex   2.259500e+00 -1.161534e+01 7.668842e+00
    endloop
  endfacet
  facet normal -2.797412e-15 1.000000e+00 -1.665126e-16
    outer loop
      vertex   2.894500e+00 -1.098034e+01 1.833684e+01
      vertex   2.894500e+00 -1.098034e+01 7.668842e+00
      vertex   2.259500e+00 -1.098034e+01 1.833684e+01
    endloop
  endfacet
  facet normal 0.000000e+00 1.000000e+00 0.000000e+00
    outer loop
      vertex   2.259500e+00 -1.098034e+01 1.833684e+01
      vertex   2.894500e+00 -1.098034e+01 7.668842e+00
      vertex   2.259500e+00 -1.098034e+01 7.668842e+00
    endloop
  endfacet
  facet normal 1.000000e+00 6.993531e-16 8.325632e-17
    outer loop
      vertex   2.894500e+00 -1.161534e+01 1.833684e+01
      vertex   2.894500e+00 -1.161534e+01 7.668842e+00
      vertex   2.894500e+00 -1.098034e+01 1.833684e+01
    endloop
  endfacet
  facet normal 1.000000e+00 2.098059e-15 -3.493534e-31
    outer loop
      vertex   2.894500e+00 -1.098034e+01 1.833684e+01
      vertex   2.894500e+00 -1.161534e+01 7.668842e+00
      vertex   2.894500e+00 -1.098034e+01 7.668842e+00
    endloop
  endfacet
  facet normal -0.000000e+00 0.000000e+00 1.000000e+00
    outer loop
      vertex   2.513500e+00 -1.123434e+01 1.871784e+01
      vertex   2.513500e+00 -1.136134e+01 1.871784e+01
      vertex   2.640500e+00 -1.123434e+01 1.871784e+01
    endloop
  endfacet
  facet normal 0.000000e+00 0.000000e+00 1.000000e+00
    outer loop
      vertex   2.640500e+00 -1.123434e+01 1.871784e+01
      vertex   2.513500e+00 -1.136134e+01 1.871784e+01
      vertex   2.640500e+00 -1.136134e+01 1.871784e+01
    endloop
  endfacet
  facet normal -0.000000e+00 -0.000000e+00 -1.000000e+00
    outer loop
      vertex   2.640500e+00 -1.123434e+01 7.287842e+00
      vertex   2.640500e+00 -1.136134e+01 7.287842e+00
      vertex   2.513500e+00 -1.123434e+01 7.287842e+00
    endloop
  endfacet
  facet normal 0.000000e+00 0.000000e+00 -1.000000e+00
    outer loop
      vertex   2.513500e+00 -1.123434e+01 7.287842e+00
      vertex   2.640500e+00 -1.136134e+01 7.287842e+00
      vertex   2.513500e+00 -1.136134e+01 7.287842e+00
    endloop
  endfacet
  facet normal -0.000000e+00 8.320503e-01 5.547002e-01
    outer loop
      vertex   2.513500e+00 -1.123434e+01 1.871784e+01
      vertex   2.640500e+00 -1.123434e+01 1.871784e+01
      vertex   2.259500e+00 -1.098034e+01 1.833684e+01
    endloop
  endfacet
  facet normal -2.327588e-15 8.320503e-01 5.547002e-01
    outer loop
      vertex   2.259500e+00 -1.098034e+01 1.833684e+01
      vertex   2.640500e+00 -1.123434e+01 1.871784e+01
      vertex   2.894500e+00 -1.098034e+01 1.833684e+01
    endloop
  endfacet
  facet normal 8.320503e-01 0.000000e+00 5.547002e-01
    outer loop
      vertex   2.640500e+00 -1.123434e+01 1.871784e+01
      vertex   2.640500e+00 -1.136134e+01 1.871784e+01
      vertex   2.894500e+00 -1.098034e+01 1.833684e+01
    endloop
  endfacet
  facet normal 8.320503e-01 5.818969e-16 5.547002e-01
    outer loop
      vertex   2.894500e+00 -1.098034e+01 1.833684e+01
      vertex   2.640500e+00 -1.136134e+01 1.871784e+01
      vertex   2.894500e+00 -1.161534e+01 1.833684e+01
    endloop
  endfacet
  facet normal -8.320503e-01 0.000000e+00 5.547002e-01
    outer loop
      vertex   2.259500e+00 -1.098034e+01 1.833684e+01
      vertex   2.259500e+00 -1.161534e+01 1.833684e+01
      vertex   2.513500e+00 -1.123434e+01 1.871784e+01
    endloop
  endfacet
  facet normal -8.320503e-01 0.000000e+00 5.547002e-01
    outer loop
      vertex   2.513500e+00 -1.123434e+01 1.871784e+01
      vertex   2.259500e+00 -1.161534e+01 1.833684e+01
      vertex   2.513500e+00 -1.136134e+01 1.871784e+01
    endloop
  endfacet
  facet normal 0.000000e+00 -8.320503e-01 5.547002e-01
    outer loop
      vertex   2.640500e+00 -1.136134e+01 1.871784e+01
      vertex   2.513500e+00 -1.136134e+01 1.871784e+01
      vertex   2.894500e+00 -1.161534e+01 1.833684e+01
    endloop
  endfacet
  facet normal 0.000000e+00 -8.320503e-01 5.547002e-01
    outer loop
      vertex   2.894500e+00 -1.161534e+01 1.833684e+01
      vertex   2.513500e+00 -1.136134e+01 1.871784e+01
      vertex   2.259500e+00 -1.161534e+01 1.833684e+01
    endloop
  endfacet
  facet normal -8.320503e-01 0.000000e+00 -5.547002e-01
    outer loop
      vertex   2.259500e+00 -1.161534e+01 7.668842e+00
      vertex   2.259500e+00 -1.098034e+01 7.668842e+00
      vertex   2.513500e+00 -1.136134e+01 7.287842e+00
    endloop
  endfacet
  facet normal -8.320503e-01 0.000000e+00 -5.547002e-01
    outer loop
      vertex   2.513500e+00 -1.136134e+01 7.287842e+00
      vertex   2.259500e+00 -1.098034e+01 7.668842e+00
      vertex   2.513500e+00 -1.123434e+01 7.287842e+00
    endloop
  endfacet
  facet normal 0.000000e+00 8.320503e-01 -5.547002e-01
    outer loop
      vertex   2.259500e+00 -1.098034e+01 7.668842e+00
      vertex   2.894500e+00 -1.098034e+01 7.668842e+00
      vertex   2.513500e+00 -1.123434e+01 7.287842e+00
    endloop
  endfacet
  facet normal 0.000000e+00 8.320503e-01 -5.547002e-01
    outer loop
      vertex   2.513500e+00 -1.123434e+01 7.287842e+00
      vertex   2.894500e+00 -1.098034e+01 7.668842e+00
      vertex   2.640500e+00 -1.123434e+01 7.287842e+00
    endloop
  endfacet
  facet normal 0.000000e+00 -8.320503e-01 -5.547002e-01
    outer loop
      vertex   2.513500e+00 -1.136134e+01 7.287842e+00
      vertex   2.640500e+00 -1.136134e+01 7.287842e+00
      vertex   2.259500e+00 -1.161534e+01 7.668842e+00
    endloop
  endfacet
  facet normal 2.327588e-15 -8.320503e-01 -5.547002e-01
    outer loop
      vertex   2.259500e+00 -1.161534e+01 7.668842e+00
      vertex   2.640500e+00 -1.136134e+01 7.287842e+00
      vertex   2.894500e+00 -1.161534e+01 7.668842e+00
    endloop
  endfacet
  facet normal 8.320503e-01 1.745691e-15 -5.547002e-01
    outer loop
      vertex   2.894500e+00 -1.098034e+01 7.668842e+00
      vertex   2.894500e+00 -1.161534e+01 7.668842e+00
      vertex   2.640500e+00 -1.123434e+01 7.287842e+00
    endloop
  endfacet
  facet normal 8.320503e-01 0.000000e+00 -5.547002e-01
    outer loop
      vertex   2.640500e+00 -1.123434e+01 7.287842e+00
      vertex   2.894500e+00 -1.161534e+01 7.668842e+00
      vertex   2.640500e+00 -1.136134e+01 7.287842e+00
    endloop
  endfacet
  facet normal -0.000000e+00 0.000000e+00 1.000000e+00
    outer loop
      vertex   -7.250000e-01 -1.205984e+01 1.617784e+01
      vertex   -7.250000e-01 -1.256784e+01 1.617784e+01
      vertex   7.990000e-01 -1.205984e+01 1.617784e+01
    endloop
  endfacet
  facet normal 0.000000e+00 0.000000e+00 1.000000e+00
    outer loop
      vertex   7.990000e-01 -1.205984e+01 1.617784e+01
      vertex   -7.250000e-01 -1.256784e+01 1.617784e+01
      vertex   7.990000e-01 -1.256784e+01 1.617784e+01
    endloop
  endfacet
  facet normal -7.071068e-01 0.000000e+00 7.071068e-01
    outer loop
      vertex   -7.250000e-01 -1.205984e+01 1.617784e+01
      vertex   -9.790000e-01 -1.205984e+01 1.592384e+01
      vertex   -7.250000e-01 -1.256784e+01 1.617784e+01
    endloop
  endfacet
  facet normal -7.071068e-01 -3.954678e-15 7.071068e-01
    outer loop
      vertex   -7.250000e-01 -1.256784e+01 1.617784e+01
      vertex   -9.790000e-01 -1.205984e+01 1.592384e+01
      vertex   -1.233000e+00 -1.205984e+01 1.566984e+01
    endloop
  endfacet
  facet normal -7.071068e-01 -2.028040e-16 7.071068e-01
    outer loop
      vertex   -1.233000e+00 -1.205984e+01 1.566984e+01
      vertex   -9.790000e-01 -1.205984e+01 1.592384e+01
      vertex   -9.790000e-01 -1.053584e+01 1.592384e+01
    endloop
  endfacet
  facet normal -7.071068e-01 -1.030244e-15 7.071068e-01
    outer loop
      vertex   -1.233000e+00 -1.205984e+01 1.566984e+01
      vertex   -9.790000e-01 -1.053584e+01 1.592384e+01
      vertex   -1.233000e+00 -1.053584e+01 1.566984e+01
    endloop
  endfacet
  facet normal -7.071068e-01 -9.126181e-16 7.071068e-01
    outer loop
      vertex   -1.233000e+00 -1.053584e+01 1.566984e+01
      vertex   -9.790000e-01 -1.053584e+01 1.592384e+01
      vertex   -7.250000e-01 -1.002784e+01 1.617784e+01
    endloop
  endfacet
  facet normal -7.071068e-01 0.000000e+00 7.071068e-01
    outer loop
      vertex   -7.250000e-01 -1.002784e+01 1.617784e+01
      vertex   -9.790000e-01 -1.053584e+01 1.592384e+01
      vertex   -7.250000e-01 -1.053584e+01 1.617784e+01
    endloop
  endfacet
  facet normal 7.071068e-01 1.339318e-15 7.071068e-01
    outer loop
      vertex   1.053000e+00 -1.205984e+01 1.592384e+01
      vertex   1.307000e+00 -1.053584e+01 1.566984e+01
      vertex   1.053000e+00 -1.053584e+01 1.592384e+01
    endloop
  endfacet
  facet normal 7.071068e-01 -3.346266e-15 7.071068e-01
    outer loop
      vertex   1.053000e+00 -1.053584e+01 1.592384e+01
      vertex   1.307000e+00 -1.053584e+01 1.566984e+01
      vertex   7.990000e-01 -1.002784e+01 1.617784e+01
    endloop
  endfacet
  facet normal 7.071068e-01 7.605151e-16 7.071068e-01
    outer loop
      vertex   1.053000e+00 -1.053584e+01 1.592384e+01
      vertex   7.990000e-01 -1.002784e+01 1.617784e+01
      vertex   7.990000e-01 -1.053584e+01 1.617784e+01
    endloop
  endfacet
  facet normal 7.071068e-01 7.726833e-16 7.071068e-01
    outer loop
      vertex   7.990000e-01 -1.205984e+01 1.617784e+01
      vertex   7.990000e-01 -1.256784e+01 1.617784e+01
      vertex   1.053000e+00 -1.205984e+01 1.592384e+01
    endloop
  endfacet
  facet normal 7.071068e-01 -3.042060e-16 7.071068e-01
    outer loop
      vertex   1.053000e+00 -1.205984e+01 1.592384e+01
      vertex   7.990000e-01 -1.256784e+01 1.617784e+01
      vertex   1.307000e+00 -1.205984e+01 1.566984e+01
    endloop
  endfacet
  facet normal 7.071068e-01 4.056080e-16 7.071068e-01
    outer loop
      vertex   1.053000e+00 -1.205984e+01 1.592384e+01
      vertex   1.307000e+00 -1.205984e+01 1.566984e+01
      vertex   1.307000e+00 -1.053584e+01 1.566984e+01
    endloop
  endfacet
  facet normal -1.000000e+00 -1.456986e-15 1.273684e-30
    outer loop
      vertex   -1.233000e+00 -1.205984e+01 1.363784e+01
      vertex   -1.233000e+00 -1.205984e+01 1.566984e+01
      vertex   -1.233000e+00 -1.053584e+01 1.363784e+01
    endloop
  endfacet
  facet normal -1.000000e+00 -1.456986e-15 0.000000e+00
    outer loop
      vertex   -1.233000e+00 -1.053584e+01 1.363784e+01
      vertex   -1.233000e+00 -1.205984e+01 1.566984e+01
      vertex   -1.233000e+00 -1.053584e+01 1.566984e+01
    endloop
  endfacet
  facet normal 1.165588e-15 -1.000000e+00 0.000000e+00
    outer loop
      vertex   -7.250000e-01 -1.256784e+01 1.617784e+01
      vertex   -7.250000e-01 -1.256784e+01 1.363784e+01
      vertex   7.990000e-01 -1.256784e+01 1.617784e+01
    endloop
  endfacet
  facet normal 0.000000e+00 -1.000000e+00 6.993531e-16
    outer loop
      vertex   7.990000e-01 -1.256784e+01 1.617784e+01
      vertex   -7.250000e-01 -1.256784e+01 1.363784e+01
      vertex   7.990000e-01 -1.256784e+01 1.363784e+01
    endloop
  endfacet
  facet normal 1.000000e+00 5.827942e-16 -0.000000e+00
    outer loop
      vertex   1.307000e+00 -1.053584e+01 1.363784e+01
      vertex   1.307000e+00 -1.053584e+01 1.566984e+01
      vertex   1.307000e+00 -1.205984e+01 1.363784e+01
    endloop
  endfacet
  facet normal 1.000000e+00 5.827942e-16 -0.000000e+00
    outer loop
      vertex   1.307000e+00 -1.205984e+01 1.363784e+01
      vertex   1.307000e+00 -1.053584e+01 1.566984e+01
      vertex   1.307000e+00 -1.205984e+01 1.566984e+01
    endloop
  endfacet
  facet normal 0.000000e+00 1.000000e+00 0.000000e+00
    outer loop
      vertex   -7.250000e-01 -1.002784e+01 1.363784e+01
      vertex   -7.250000e-01 -1.002784e+01 1.617784e+01
      vertex   7.990000e-01 -1.002784e+01 1.363784e+01
    endloop
  endfacet
  facet normal -1.165588e-15 1.000000e+00 -6.993531e-16
    outer loop
      vertex   7.990000e-01 -1.002784e+01 1.363784e+01
      vertex   -7.250000e-01 -1.002784e+01 1.617784e+01
      vertex   7.990000e-01 -1.002784e+01 1.617784e+01
    endloop
  endfacet
  facet normal 0.000000e+00 0.000000e+00 1.000000e+00
    outer loop
      vertex   7.990000e-01 -1.053584e+01 1.617784e+01
      vertex   7.990000e-01 -1.002784e+01 1.617784e+01
      vertex   -7.250000e-01 -1.053584e+01 1.617784e+01
    endloop
  endfacet
  facet normal 0.000000e+00 0.000000e+00 1.000000e+00
    outer loop
      vertex   -7.250000e-01 -1.053584e+01 1.617784e+01
      vertex   7.990000e-01 -1.002784e+01 1.617784e+01
      vertex   -7.250000e-01 -1.002784e+01 1.617784e+01
    endloop
  endfacet
  facet normal 0.000000e+00 0.000000e+00 -1.000000e+00
    outer loop
      vertex   -7.250000e-01 -1.256784e+01 1.363784e+01
      vertex   -2.805000e-01 -1.161534e+01 1.363784e+01
      vertex   7.990000e-01 -1.256784e+01 1.363784e+01
    endloop
  endfacet
  facet normal 0.000000e+00 0.000000e+00 -1.000000e+00
    outer loop
      vertex   7.990000e-01 -1.256784e+01 1.363784e+01
      vertex   -2.805000e-01 -1.161534e+01 1.363784e+01
      vertex   3.545000e-01 -1.161534e+01 1.363784e+01
    endloop
  endfacet
  facet normal 0.000000e+00 0.000000e+00 -1.000000e+00
    outer loop
      vertex   7.990000e-01 -1.256784e+01 1.363784e+01
      vertex   3.545000e-01 -1.161534e+01 1.363784e+01
      vertex   1.307000e+00 -1.205984e+01 1.363784e+01
    endloop
  endfacet
  facet normal 0.000000e+00 0.000000e+00 -1.000000e+00
    outer loop
      vertex   1.307000e+00 -1.205984e+01 1.363784e+01
      vertex   3.545000e-01 -1.161534e+01 1.363784e+01
      vertex   3.545000e-01 -1.098034e+01 1.363784e+01
    endloop
  endfacet
  facet normal 0.000000e+00 0.000000e+00 -1.000000e+00
    outer loop
      vertex   1.307000e+00 -1.205984e+01 1.363784e+01
      vertex   3.545000e-01 -1.098034e+01 1.363784e+01
      vertex   1.307000e+00 -1.053584e+01 1.363784e+01
    endloop
  endfacet
  facet normal -0.000000e+00 0.000000e+00 -1.000000e+00
    outer loop
      vertex   1.307000e+00 -1.053584e+01 1.363784e+01
      vertex   3.545000e-01 -1.098034e+01 1.363784e+01
      vertex   7.990000e-01 -1.002784e+01 1.363784e+01
    endloop
  endfacet
  facet normal 0.000000e+00 0.000000e+00 -1.000000e+00
    outer loop
      vertex   7.990000e-01 -1.002784e+01 1.363784e+01
      vertex   3.545000e-01 -1.098034e+01 1.363784e+01
      vertex   -2.805000e-01 -1.098034e+01 1.363784e+01
    endloop
  endfacet
  facet normal -0.000000e+00 0.000000e+00 -1.000000e+00
    outer loop
      vertex   7.990000e-01 -1.002784e+01 1.363784e+01
      vertex   -2.805000e-01 -1.098034e+01 1.363784e+01
      vertex   -7.250000e-01 -1.002784e+01 1.363784e+01
    endloop
  endfacet
  facet normal 0.000000e+00 -0.000000e+00 -1.000000e+00
    outer loop
      vertex   -7.250000e-01 -1.002784e+01 1.363784e+01
      vertex   -2.805000e-01 -1.098034e+01 1.363784e+01
      vertex   -1.233000e+00 -1.053584e+01 1.363784e+01
    endloop
  endfacet
  facet normal 0.000000e+00 0.000000e+00 -1.000000e+00
    outer loop
      vertex   -1.233000e+00 -1.053584e+01 1.363784e+01
      vertex   -2.805000e-01 -1.098034e+01 1.363784e+01
      vertex   -2.805000e-01 -1.161534e+01 1.363784e+01
    endloop
  endfacet
  facet normal 0.000000e+00 0.000000e+00 -1.000000e+00
    outer loop
      vertex   -1.233000e+00 -1.053584e+01 1.363784e+01
      vertex   -2.805000e-01 -1.161534e+01 1.363784e+01
      vertex   -1.233000e+00 -1.205984e+01 1.363784e+01
    endloop
  endfacet
  facet normal 0.000000e+00 0.000000e+00 -1.000000e+00
    outer loop
      vertex   -1.233000e+00 -1.205984e+01 1.363784e+01
      vertex   -2.805000e-01 -1.161534e+01 1.363784e+01
      vertex   -7.250000e-01 -1.256784e+01 1.363784e+01
    endloop
  endfacet
  facet normal -7.071068e-01 7.071068e-01 0.000000e+00
    outer loop
      vertex   -1.233000e+00 -1.053584e+01 1.363784e+01
      vertex   -1.233000e+00 -1.053584e+01 1.566984e+01
      vertex   -7.250000e-01 -1.002784e+01 1.363784e+01
    endloop
  endfacet
  facet normal -7.071068e-01 7.071068e-01 0.000000e+00
    outer loop
      vertex   -7.250000e-01 -1.002784e+01 1.363784e+01
      vertex   -1.233000e+00 -1.053584e+01 1.566984e+01
      vertex   -7.250000e-01 -1.002784e+01 1.617784e+01
    endloop
  endfacet
  facet normal -7.071068e-01 -7.071068e-01 6.181466e-16
    outer loop
      vertex   -1.233000e+00 -1.205984e+01 1.363784e+01
      vertex   -7.250000e-01 -1.256784e+01 1.363784e+01
      vertex   -1.233000e+00 -1.205984e+01 1.566984e+01
    endloop
  endfacet
  facet normal -7.071068e-01 -7.071068e-01 0.000000e+00
    outer loop
      vertex   -1.233000e+00 -1.205984e+01 1.566984e+01
      vertex   -7.250000e-01 -1.256784e+01 1.363784e+01
      vertex   -7.250000e-01 -1.256784e+01 1.617784e+01
    endloop
  endfacet
  facet normal 7.071068e-01 -7.071068e-01 0.000000e+00
    outer loop
      vertex   1.307000e+00 -1.205984e+01 1.363784e+01
      vertex   1.307000e+00 -1.205984e+01 1.566984e+01
      vertex   7.990000e-01 -1.256784e+01 1.363784e+01
    endloop
  endfacet
  facet normal 7.071068e-01 -7.071068e-01 4.945173e-16
    outer loop
      vertex   7.990000e-01 -1.256784e+01 1.363784e+01
      vertex   1.307000e+00 -1.205984e+01 1.566984e+01
      vertex   7.990000e-01 -1.256784e+01 1.617784e+01
    endloop
  endfacet
  facet normal 7.071068e-01 7.071068e-01 -0.000000e+00
    outer loop
      vertex   1.307000e+00 -1.053584e+01 1.363784e+01
      vertex   7.990000e-01 -1.002784e+01 1.363784e+01
      vertex   1.307000e+00 -1.053584e+01 1.566984e+01
    endloop
  endfacet
  facet normal 7.071068e-01 7.071068e-01 -4.867296e-16
    outer loop
      vertex   1.307000e+00 -1.053584e+01 1.566984e+01
      vertex   7.990000e-01 -1.002784e+01 1.363784e+01
      vertex   7.990000e-01 -1.002784e+01 1.617784e+01
    endloop
  endfacet
  facet normal -1.165588e-15 1.000000e+00 1.165588e-15
    outer loop
      vertex   -7.250000e-01 -1.205984e+01 1.617784e+01
      vertex   7.990000e-01 -1.205984e+01 1.617784e+01
      vertex   -9.790000e-01 -1.205984e+01 1.592384e+01
    endloop
  endfacet
  facet normal -8.741914e-16 1.000000e+00 -8.741914e-16
    outer loop
      vertex   -9.790000e-01 -1.205984e+01 1.592384e+01
      vertex   7.990000e-01 -1.205984e+01 1.617784e+01
      vertex   1.053000e+00 -1.205984e+01 1.592384e+01
    endloop
  endfacet
  facet normal 0.000000e+00 -1.000000e+00 0.000000e+00
    outer loop
      vertex   -9.790000e-01 -1.053584e+01 1.592384e+01
      vertex   1.053000e+00 -1.053584e+01 1.592384e+01
      vertex   -7.250000e-01 -1.053584e+01 1.617784e+01
    endloop
  endfacet
  facet normal 0.000000e+00 -1.000000e+00 0.000000e+00
    outer loop
      vertex   -7.250000e-01 -1.053584e+01 1.617784e+01
      vertex   1.053000e+00 -1.053584e+01 1.592384e+01
      vertex   7.990000e-01 -1.053584e+01 1.617784e+01
    endloop
  endfacet
  facet normal 0.000000e+00 0.000000e+00 1.000000e+00
    outer loop
      vertex   1.053000e+00 -1.053584e+01 1.592384e+01
      vertex   -9.790000e-01 -1.053584e+01 1.592384e+01
      vertex   -2.805000e-01 -1.098034e+01 1.592384e+01
    endloop
  endfacet
  facet normal 7.417381e-16 1.165588e-15 1.000000e+00
    outer loop
      vertex   -2.805000e-01 -1.098034e+01 1.592384e+01
      vertex   -9.790000e-01 -1.053584e+01 1.592384e+01
      vertex   -9.790000e-01 -1.205984e+01 1.592384e+01
    endloop
  endfacet
  facet normal -1.780171e-15 2.797412e-15 1.000000e+00
    outer loop
      vertex   -2.805000e-01 -1.098034e+01 1.592384e+01
      vertex   -9.790000e-01 -1.205984e+01 1.592384e+01
      vertex   -2.805000e-01 -1.161534e+01 1.592384e+01
    endloop
  endfacet
  facet normal 0.000000e+00 0.000000e+00 1.000000e+00
    outer loop
      vertex   -2.805000e-01 -1.161534e+01 1.592384e+01
      vertex   -9.790000e-01 -1.205984e+01 1.592384e+01
      vertex   1.053000e+00 -1.205984e+01 1.592384e+01
    endloop
  endfacet
  facet normal -0.000000e+00 0.000000e+00 1.000000e+00
    outer loop
      vertex   -2.805000e-01 -1.161534e+01 1.592384e+01
      vertex   1.053000e+00 -1.205984e+01 1.592384e+01
      vertex   3.545000e-01 -1.161534e+01 1.592384e+01
    endloop
  endfacet
  facet normal 7.417381e-16 1.165588e-15 1.000000e+00
    outer loop
      vertex   3.545000e-01 -1.161534e+01 1.592384e+01
      vertex   1.053000e+00 -1.205984e+01 1.592384e+01
      vertex   1.053000e+00 -1.053584e+01 1.592384e+01
    endloop
  endfacet
  facet normal -1.780171e-15 2.797412e-15 1.000000e+00
    outer loop
      vertex   3.545000e-01 -1.161534e+01 1.592384e+01
      vertex   1.053000e+00 -1.053584e+01 1.592384e+01
      vertex   3.545000e-01 -1.098034e+01 1.592384e+01
    endloop
  endfacet
  facet normal 0.000000e+00 -0.000000e+00 1.000000e+00
    outer loop
      vertex   3.545000e-01 -1.098034e+01 1.592384e+01
      vertex   1.053000e+00 -1.053584e+01 1.592384e+01
      vertex   -2.805000e-01 -1.098034e+01 1.592384e+01
    endloop
  endfacet
  facet normal 0.000000e+00 1.000000e+00 0.000000e+00
    outer loop
      vertex   -2.805000e-01 -1.161534e+01 1.363784e+01
      vertex   -2.805000e-01 -1.161534e+01 1.592384e+01
      vertex   3.545000e-01 -1.161534e+01 1.363784e+01
    endloop
  endfacet
  facet normal 0.000000e+00 1.000000e+00 -0.000000e+00
    outer loop
      vertex   3.545000e-01 -1.161534e+01 1.363784e+01
      vertex   -2.805000e-01 -1.161534e+01 1.592384e+01
      vertex   3.545000e-01 -1.161534e+01 1.592384e+01
    endloop
  endfacet
  facet normal 1.000000e+00 0.000000e+00 -0.000000e+00
    outer loop
      vertex   -2.805000e-01 -1.098034e+01 1.363784e+01
      vertex   -2.805000e-01 -1.098034e+01 1.592384e+01
      vertex   -2.805000e-01 -1.161534e+01 1.363784e+01
    endloop
  endfacet
  facet normal 1.000000e+00 0.000000e+00 0.000000e+00
    outer loop
      vertex   -2.805000e-01 -1.161534e+01 1.363784e+01
      vertex   -2.805000e-01 -1.098034e+01 1.592384e+01
      vertex   -2.805000e-01 -1.161534e+01 1.592384e+01
    endloop
  endfacet
  facet normal 2.797412e-15 -1.000000e+00 0.000000e+00
    outer loop
      vertex   3.545000e-01 -1.098034e+01 1.363784e+01
      vertex   3.545000e-01 -1.098034e+01 1.592384e+01
      vertex   -2.805000e-01 -1.098034e+01 1.363784e+01
    endloop
  endfacet
  facet normal 2.797412e-15 -1.000000e+00 0.000000e+00
    outer loop
      vertex   -2.805000e-01 -1.098034e+01 1.363784e+01
      vertex   3.545000e-01 -1.098034e+01 1.592384e+01
      vertex   -2.805000e-01 -1.098034e+01 1.592384e+01
    endloop
  endfacet
  facet normal -1.000000e+00 0.000000e+00 0.000000e+00
    outer loop
      vertex   3.545000e-01 -1.161534e+01 1.363784e+01
      vertex   3.545000e-01 -1.161534e+01 1.592384e+01
      vertex   3.545000e-01 -1.098034e+01 1.363784e+01
    endloop
  endfacet
  facet normal -1.000000e+00 0.000000e+00 0.000000e+00
    outer loop
      vertex   3.545000e-01 -1.098034e+01 1.363784e+01
      vertex   3.545000e-01 -1.161534e+01 1.592384e+01
      vertex   3.545000e-01 -1.098034e+01 1.592384e+01
    endloop
  endfacet
  facet normal 0.000000e+00 -1.000000e+00 1.665126e-16
    outer loop
      vertex   -2.805000e-01 -1.161534e+01 1.833684e+01
      vertex   -2.805000e-01 -1.161534e+01 7.668842e+00
      vertex   3.545000e-01 -1.161534e+01 1.833684e+01
    endloop
  endfacet
  facet normal 2.797412e-15 -1.000000e+00 0.000000e+00
    outer loop
      vertex   3.545000e-01 -1.161534e+01 1.833684e+01
      vertex   -2.805000e-01 -1.161534e+01 7.668842e+00
      vertex   3.545000e-01 -1.161534e+01 7.668842e+00
    endloop
  endfacet
  facet normal -1.000000e+00 -0.000000e+00 0.000000e+00
    outer loop
      vertex   -2.805000e-01 -1.098034e+01 1.833684e+01
      vertex   -2.805000e-01 -1.098034e+01 7.668842e+00
      vertex   -2.805000e-01 -1.161534e+01 1.833684e+01
    endloop
  endfacet
  facet normal -1.000000e+00 0.000000e+00 -0.000000e+00
    outer loop
      vertex   -2.805000e-01 -1.161534e+01 1.833684e+01
      vertex   -2.805000e-01 -1.098034e+01 7.668842e+00
      vertex   -2.805000e-01 -1.161534e+01 7.668842e+00
    endloop
  endfacet
  facet normal 0.000000e+00 1.000000e+00 -1.665126e-16
    outer loop
      vertex   3.545000e-01 -1.098034e+01 1.833684e+01
      vertex   3.545000e-01 -1.098034e+01 7.668842e+00
      vertex   -2.805000e-01 -1.098034e+01 1.833684e+01
    endloop
  endfacet
  facet normal 0.000000e+00 1.000000e+00 -1.665126e-16
    outer loop
      vertex   -2.805000e-01 -1.098034e+01 1.833684e+01
      vertex   3.545000e-01 -1.098034e+01 7.668842e+00
      vertex   -2.805000e-01 -1.098034e+01 7.668842e+00
    endloop
  endfacet
  facet normal 1.000000e+00 -0.000000e+00 0.000000e+00
    outer loop
      vertex   3.545000e-01 -1.161534e+01 1.833684e+01
      vertex   3.545000e-01 -1.161534e+01 7.668842e+00
      vertex   3.545000e-01 -1.098034e+01 1.833684e+01
    endloop
  endfacet
  facet normal 1.000000e+00 0.000000e+00 0.000000e+00
    outer loop
      vertex   3.545000e-01 -1.098034e+01 1.833684e+01
      vertex   3.545000e-01 -1.161534e+01 7.668842e+00
      vertex   3.545000e-01 -1.098034e+01 7.668842e+00
    endloop
  endfacet
  facet normal -0.000000e+00 0.000000e+00 1.000000e+00
    outer loop
      vertex   -2.650000e-02 -1.123434e+01 1.871784e+01
      vertex   -2.650000e-02 -1.136134e+01 1.871784e+01
      vertex   1.005000e-01 -1.123434e+01 1.871784e+01
    endloop
  endfacet
  facet normal 0.000000e+00 0.000000e+00 1.000000e+00
    outer loop
      vertex   1.005000e-01 -1.123434e+01 1.871784e+01
      vertex   -2.650000e-02 -1.136134e+01 1.871784e+01
      vertex   1.005000e-01 -1.136134e+01 1.871784e+01
    endloop
  endfacet
  facet normal 0.000000e+00 -0.000000e+00 -1.000000e+00
    outer loop
      vertex   1.005000e-01 -1.123434e+01 7.287842e+00
      vertex   1.005000e-01 -1.136134e+01 7.287842e+00
      vertex   -2.650000e-02 -1.123434e+01 7.287842e+00
    endloop
  endfacet
  facet normal 0.000000e+00 0.000000e+00 -1.000000e+00
    outer loop
      vertex   -2.650000e-02 -1.123434e+01 7.287842e+00
      vertex   1.005000e-01 -1.136134e+01 7.287842e+00
      vertex   -2.650000e-02 -1.136134e+01 7.287842e+00
    endloop
  endfacet
  facet normal -0.000000e+00 8.320503e-01 5.547002e-01
    outer loop
      vertex   -2.650000e-02 -1.123434e+01 1.871784e+01
      vertex   1.005000e-01 -1.123434e+01 1.871784e+01
      vertex   -2.805000e-01 -1.098034e+01 1.833684e+01
    endloop
  endfacet
  facet normal -0.000000e+00 8.320503e-01 5.547002e-01
    outer loop
      vertex   -2.805000e-01 -1.098034e+01 1.833684e+01
      vertex   1.005000e-01 -1.123434e+01 1.871784e+01
      vertex   3.545000e-01 -1.098034e+01 1.833684e+01
    endloop
  endfacet
  facet normal 8.320503e-01 0.000000e+00 5.547002e-01
    outer loop
      vertex   1.005000e-01 -1.123434e+01 1.871784e+01
      vertex   1.005000e-01 -1.136134e+01 1.871784e+01
      vertex   3.545000e-01 -1.098034e+01 1.833684e+01
    endloop
  endfacet
  facet normal 8.320503e-01 0.000000e+00 5.547002e-01
    outer loop
      vertex   3.545000e-01 -1.098034e+01 1.833684e+01
      vertex   1.005000e-01 -1.136134e+01 1.871784e+01
      vertex   3.545000e-01 -1.161534e+01 1.833684e+01
    endloop
  endfacet
  facet normal -8.320503e-01 0.000000e+00 5.547002e-01
    outer loop
      vertex   -2.805000e-01 -1.098034e+01 1.833684e+01
      vertex   -2.805000e-01 -1.161534e+01 1.833684e+01
      vertex   -2.650000e-02 -1.123434e+01 1.871784e+01
    endloop
  endfacet
  facet normal -8.320503e-01 0.000000e+00 5.547002e-01
    outer loop
      vertex   -2.650000e-02 -1.123434e+01 1.871784e+01
      vertex   -2.805000e-01 -1.161534e+01 1.833684e+01
      vertex   -2.650000e-02 -1.136134e+01 1.871784e+01
    endloop
  endfacet
  facet normal 0.000000e+00 -8.320503e-01 5.547002e-01
    outer loop
      vertex   1.005000e-01 -1.136134e+01 1.871784e+01
      vertex   -2.650000e-02 -1.136134e+01 1.871784e+01
      vertex   3.545000e-01 -1.161534e+01 1.833684e+01
    endloop
  endfacet
  facet normal 0.000000e+00 -8.320503e-01 5.547002e-01
    outer loop
      vertex   3.545000e-01 -1.161534e+01 1.833684e+01
      vertex   -2.650000e-02 -1.136134e+01 1.871784e+01
      vertex   -2.805000e-01 -1.161534e+01 1.833684e+01
    endloop
  endfacet
  facet normal -8.320503e-01 0.000000e+00 -5.547002e-01
    outer loop
      vertex   -2.805000e-01 -1.161534e+01 7.668842e+00
      vertex   -2.805000e-01 -1.098034e+01 7.668842e+00
      vertex   -2.650000e-02 -1.136134e+01 7.287842e+00
    endloop
  endfacet
  facet normal -8.320503e-01 0.000000e+00 -5.547002e-01
    outer loop
      vertex   -2.650000e-02 -1.136134e+01 7.287842e+00
      vertex   -2.805000e-01 -1.098034e+01 7.668842e+00
      vertex   -2.650000e-02 -1.123434e+01 7.287842e+00
    endloop
  endfacet
  facet normal 0.000000e+00 8.320503e-01 -5.547002e-01
    outer loop
      vertex   -2.805000e-01 -1.098034e+01 7.668842e+00
      vertex   3.545000e-01 -1.098034e+01 7.668842e+00
      vertex   -2.650000e-02 -1.123434e+01 7.287842e+00
    endloop
  endfacet
  facet normal -1.163794e-14 8.320503e-01 -5.547002e-01
    outer loop
      vertex   -2.650000e-02 -1.123434e+01 7.287842e+00
      vertex   3.545000e-01 -1.098034e+01 7.668842e+00
      vertex   1.005000e-01 -1.123434e+01 7.287842e+00
    endloop
  endfacet
  facet normal 0.000000e+00 -8.320503e-01 -5.547002e-01
    outer loop
      vertex   -2.650000e-02 -1.136134e+01 7.287842e+00
      vertex   1.005000e-01 -1.136134e+01 7.287842e+00
      vertex   -2.805000e-01 -1.161534e+01 7.668842e+00
    endloop
  endfacet
  facet normal 2.327588e-15 -8.320503e-01 -5.547002e-01
    outer loop
      vertex   -2.805000e-01 -1.161534e+01 7.668842e+00
      vertex   1.005000e-01 -1.136134e+01 7.287842e+00
      vertex   3.545000e-01 -1.161534e+01 7.668842e+00
    endloop
  endfacet
  facet normal 8.320503e-01 0.000000e+00 -5.547002e-01
    outer loop
      vertex   3.545000e-01 -1.098034e+01 7.668842e+00
      vertex   3.545000e-01 -1.161534e+01 7.668842e+00
      vertex   1.005000e-01 -1.123434e+01 7.287842e+00
    endloop
  endfacet
  facet normal 8.320503e-01 0.000000e+00 -5.547002e-01
    outer loop
      vertex   1.005000e-01 -1.123434e+01 7.287842e+00
      vertex   3.545000e-01 -1.161534e+01 7.668842e+00
      vertex   1.005000e-01 -1.136134e+01 7.287842e+00
    endloop
  endfacet
  facet normal -0.000000e+00 0.000000e+00 1.000000e+00
    outer loop
      vertex   4.355000e+00 -1.205984e+01 1.617784e+01
      vertex   4.355000e+00 -1.256784e+01 1.617784e+01
      vertex   5.879000e+00 -1.205984e+01 1.617784e+01
    endloop
  endfacet
  facet normal 0.000000e+00 0.000000e+00 1.000000e+00
    outer loop
      vertex   5.879000e+00 -1.205984e+01 1.617784e+01
      vertex   4.355000e+00 -1.256784e+01 1.617784e+01
      vertex   5.879000e+00 -1.256784e+01 1.617784e+01
    endloop
  endfacet
  facet normal -7.071068e-01 -1.236293e-15 7.071068e-01
    outer loop
      vertex   4.355000e+00 -1.205984e+01 1.617784e+01
      vertex   4.101000e+00 -1.205984e+01 1.592384e+01
      vertex   4.355000e+00 -1.256784e+01 1.617784e+01
    endloop
  endfacet
  facet normal -7.071068e-01 1.840446e-14 7.071068e-01
    outer loop
      vertex   4.355000e+00 -1.256784e+01 1.617784e+01
      vertex   4.101000e+00 -1.205984e+01 1.592384e+01
      vertex   3.847000e+00 -1.205984e+01 1.566984e+01
    endloop
  endfacet
  facet normal -7.071068e-01 -8.112161e-16 7.071068e-01
    outer loop
      vertex   3.847000e+00 -1.205984e+01 1.566984e+01
      vertex   4.101000e+00 -1.205984e+01 1.592384e+01
      vertex   4.101000e+00 -1.053584e+01 1.592384e+01
    endloop
  endfacet
  facet normal -7.071068e-01 -4.120978e-16 7.071068e-01
    outer loop
      vertex   3.847000e+00 -1.205984e+01 1.566984e+01
      vertex   4.101000e+00 -1.053584e+01 1.592384e+01
      vertex   3.847000e+00 -1.053584e+01 1.566984e+01
    endloop
  endfacet
  facet normal -7.071068e-01 -1.733974e-14 7.071068e-01
    outer loop
      vertex   3.847000e+00 -1.053584e+01 1.566984e+01
      vertex   4.101000e+00 -1.053584e+01 1.592384e+01
      vertex   4.355000e+00 -1.002784e+01 1.617784e+01
    endloop
  endfacet
  facet normal -7.071068e-01 0.000000e+00 7.071068e-01
    outer loop
      vertex   4.355000e+00 -1.002784e+01 1.617784e+01
      vertex   4.101000e+00 -1.053584e+01 1.592384e+01
      vertex   4.355000e+00 -1.053584e+01 1.617784e+01
    endloop
  endfacet
  facet normal 7.071068e-01 4.120978e-16 7.071068e-01
    outer loop
      vertex   6.133000e+00 -1.205984e+01 1.592384e+01
      vertex   6.387000e+00 -1.053584e+01 1.566984e+01
      vertex   6.133000e+00 -1.053584e+01 1.592384e+01
    endloop
  endfacet
  facet normal 7.071068e-01 -1.733974e-14 7.071068e-01
    outer loop
      vertex   6.133000e+00 -1.053584e+01 1.592384e+01
      vertex   6.387000e+00 -1.053584e+01 1.566984e+01
      vertex   5.879000e+00 -1.002784e+01 1.617784e+01
    endloop
  endfacet
  facet normal 7.071068e-01 0.000000e+00 7.071068e-01
    outer loop
      vertex   6.133000e+00 -1.053584e+01 1.592384e+01
      vertex   5.879000e+00 -1.002784e+01 1.617784e+01
      vertex   5.879000e+00 -1.053584e+01 1.617784e+01
    endloop
  endfacet
  facet normal 7.071068e-01 0.000000e+00 7.071068e-01
    outer loop
      vertex   5.879000e+00 -1.205984e+01 1.617784e+01
      vertex   5.879000e+00 -1.256784e+01 1.617784e+01
      vertex   6.133000e+00 -1.205984e+01 1.592384e+01
    endloop
  endfacet
  facet normal 7.071068e-01 1.848052e-14 7.071068e-01
    outer loop
      vertex   6.133000e+00 -1.205984e+01 1.592384e+01
      vertex   5.879000e+00 -1.256784e+01 1.617784e+01
      vertex   6.387000e+00 -1.205984e+01 1.566984e+01
    endloop
  endfacet
  facet normal 7.071068e-01 0.000000e+00 7.071068e-01
    outer loop
      vertex   6.133000e+00 -1.205984e+01 1.592384e+01
      vertex   6.387000e+00 -1.205984e+01 1.566984e+01
      vertex   6.387000e+00 -1.053584e+01 1.566984e+01
    endloop
  endfacet
  facet normal -1.000000e+00 -5.827942e-16 0.000000e+00
    outer loop
      vertex   3.847000e+00 -1.205984e+01 1.363784e+01
      vertex   3.847000e+00 -1.205984e+01 1.566984e+01
      vertex   3.847000e+00 -1.053584e+01 1.363784e+01
    endloop
  endfacet
  facet normal -1.000000e+00 -5.827942e-16 -5.094737e-31
    outer loop
      vertex   3.847000e+00 -1.053584e+01 1.363784e+01
      vertex   3.847000e+00 -1.205984e+01 1.566984e+01
      vertex   3.847000e+00 -1.053584e+01 1.566984e+01
    endloop
  endfacet
  facet normal 0.000000e+00 -1.000000e+00 0.000000e+00
    outer loop
      vertex   4.355000e+00 -1.256784e+01 1.617784e+01
      vertex   4.355000e+00 -1.256784e+01 1.363784e+01
      vertex   5.879000e+00 -1.256784e+01 1.617784e+01
    endloop
  endfacet
  facet normal 0.000000e+00 -1.000000e+00 -0.000000e+00
    outer loop
      vertex   5.879000e+00 -1.256784e+01 1.617784e+01
      vertex   4.355000e+00 -1.256784e+01 1.363784e+01
      vertex   5.879000e+00 -1.256784e+01 1.363784e+01
    endloop
  endfacet
  facet normal 1.000000e+00 0.000000e+00 -0.000000e+00
    outer loop
      vertex   6.387000e+00 -1.053584e+01 1.363784e+01
      vertex   6.387000e+00 -1.053584e+01 1.566984e+01
      vertex   6.387000e+00 -1.205984e+01 1.363784e+01
    endloop
  endfacet
  facet normal 1.000000e+00 0.000000e+00 0.000000e+00
    outer loop
      vertex   6.387000e+00 -1.205984e+01 1.363784e+01
      vertex   6.387000e+00 -1.053584e+01 1.566984e+01
      vertex   6.387000e+00 -1.205984e+01 1.566984e+01
    endloop
  endfacet
  facet normal 0.000000e+00 1.000000e+00 0.000000e+00
    outer loop
      vertex   4.355000e+00 -1.002784e+01 1.363784e+01
      vertex   4.355000e+00 -1.002784e+01 1.617784e+01
      vertex   5.879000e+00 -1.002784e+01 1.363784e+01
    endloop
  endfacet
  facet normal 0.000000e+00 1.000000e+00 -0.000000e+00
    outer loop
      vertex   5.879000e+00 -1.002784e+01 1.363784e+01
      vertex   4.355000e+00 -1.002784e+01 1.617784e+01
      vertex   5.879000e+00 -1.002784e+01 1.617784e+01
    endloop
  endfacet
  facet normal 0.000000e+00 -0.000000e+00 1.000000e+00
    outer loop
      vertex   5.879000e+00 -1.053584e+01 1.617784e+01
      vertex   5.879000e+00 -1.002784e+01 1.617784e+01
      vertex   4.355000e+00 -1.053584e+01 1.617784e+01
    endloop
  endfacet
  facet normal 0.000000e+00 0.000000e+00 1.000000e+00
    outer loop
      vertex   4.355000e+00 -1.053584e+01 1.617784e+01
      vertex   5.879000e+00 -1.002784e+01 1.617784e+01
      vertex   4.355000e+00 -1.002784e+01 1.617784e+01
    endloop
  endfacet
  facet normal 0.000000e+00 0.000000e+00 -1.000000e+00
    outer loop
      vertex   4.355000e+00 -1.256784e+01 1.363784e+01
      vertex   4.799500e+00 -1.161534e+01 1.363784e+01
      vertex   5.879000e+00 -1.256784e+01 1.363784e+01
    endloop
  endfacet
  facet normal 0.000000e+00 0.000000e+00 -1.000000e+00
    outer loop
      vertex   5.879000e+00 -1.256784e+01 1.363784e+01
      vertex   4.799500e+00 -1.161534e+01 1.363784e+01
      vertex   5.434500e+00 -1.161534e+01 1.363784e+01
    endloop
  endfacet
  facet normal 0.000000e+00 0.000000e+00 -1.000000e+00
    outer loop
      vertex   5.879000e+00 -1.256784e+01 1.363784e+01
      vertex   5.434500e+00 -1.161534e+01 1.363784e+01
      vertex   6.387000e+00 -1.205984e+01 1.363784e+01
    endloop
  endfacet
  facet normal 0.000000e+00 0.000000e+00 -1.000000e+00
    outer loop
      vertex   6.387000e+00 -1.205984e+01 1.363784e+01
      vertex   5.434500e+00 -1.161534e+01 1.363784e+01
      vertex   5.434500e+00 -1.098034e+01 1.363784e+01
    endloop
  endfacet
  facet normal 0.000000e+00 0.000000e+00 -1.000000e+00
    outer loop
      vertex   6.387000e+00 -1.205984e+01 1.363784e+01
      vertex   5.434500e+00 -1.098034e+01 1.363784e+01
      vertex   6.387000e+00 -1.053584e+01 1.363784e+01
    endloop
  endfacet
  facet normal -0.000000e+00 0.000000e+00 -1.000000e+00
    outer loop
      vertex   6.387000e+00 -1.053584e+01 1.363784e+01
      vertex   5.434500e+00 -1.098034e+01 1.363784e+01
      vertex   5.879000e+00 -1.002784e+01 1.363784e+01
    endloop
  endfacet
  facet normal 0.000000e+00 0.000000e+00 -1.000000e+00
    outer loop
      vertex   5.879000e+00 -1.002784e+01 1.363784e+01
      vertex   5.434500e+00 -1.098034e+01 1.363784e+01
      vertex   4.799500e+00 -1.098034e+01 1.363784e+01
    endloop
  endfacet
  facet normal -0.000000e+00 0.000000e+00 -1.000000e+00
    outer loop
      vertex   5.879000e+00 -1.002784e+01 1.363784e+01
      vertex   4.799500e+00 -1.098034e+01 1.363784e+01
      vertex   4.355000e+00 -1.002784e+01 1.363784e+01
    endloop
  endfacet
  facet normal 0.000000e+00 -0.000000e+00 -1.000000e+00
    outer loop
      vertex   4.355000e+00 -1.002784e+01 1.363784e+01
      vertex   4.799500e+00 -1.098034e+01 1.363784e+01
      vertex   3.847000e+00 -1.053584e+01 1.363784e+01
    endloop
  endfacet
  facet normal 0.000000e+00 0.000000e+00 -1.000000e+00
    outer loop
      vertex   3.847000e+00 -1.053584e+01 1.363784e+01
      vertex   4.799500e+00 -1.098034e+01 1.363784e+01
      vertex   4.799500e+00 -1.161534e+01 1.363784e+01
    endloop
  endfacet
  facet normal 0.000000e+00 0.000000e+00 -1.000000e+00
    outer loop
      vertex   3.847000e+00 -1.053584e+01 1.363784e+01
      vertex   4.799500e+00 -1.161534e+01 1.363784e+01
      vertex   3.847000e+00 -1.205984e+01 1.363784e+01
    endloop
  endfacet
  facet normal 0.000000e+00 0.000000e+00 -1.000000e+00
    outer loop
      vertex   3.847000e+00 -1.205984e+01 1.363784e+01
      vertex   4.799500e+00 -1.161534e+01 1.363784e+01
      vertex   4.355000e+00 -1.256784e+01 1.363784e+01
    endloop
  endfacet
  facet normal -7.071068e-01 7.071068e-01 6.181466e-16
    outer loop
      vertex   3.847000e+00 -1.053584e+01 1.363784e+01
      vertex   3.847000e+00 -1.053584e+01 1.566984e+01
      vertex   4.355000e+00 -1.002784e+01 1.363784e+01
    endloop
  endfacet
  facet normal -7.071068e-01 7.071068e-01 0.000000e+00
    outer loop
      vertex   4.355000e+00 -1.002784e+01 1.363784e+01
      vertex   3.847000e+00 -1.053584e+01 1.566984e+01
      vertex   4.355000e+00 -1.002784e+01 1.617784e+01
    endloop
  endfacet
  facet normal -7.071068e-01 -7.071068e-01 0.000000e+00
    outer loop
      vertex   3.847000e+00 -1.205984e+01 1.363784e+01
      vertex   4.355000e+00 -1.256784e+01 1.363784e+01
      vertex   3.847000e+00 -1.205984e+01 1.566984e+01
    endloop
  endfacet
  facet normal -7.071068e-01 -7.071068e-01 -2.433648e-16
    outer loop
      vertex   3.847000e+00 -1.205984e+01 1.566984e+01
      vertex   4.355000e+00 -1.256784e+01 1.363784e+01
      vertex   4.355000e+00 -1.256784e+01 1.617784e+01
    endloop
  endfacet
  facet normal 7.071068e-01 -7.071068e-01 1.236293e-15
    outer loop
      vertex   6.387000e+00 -1.205984e+01 1.363784e+01
      vertex   6.387000e+00 -1.205984e+01 1.566984e+01
      vertex   5.879000e+00 -1.256784e+01 1.363784e+01
    endloop
  endfacet
  facet normal 7.071068e-01 -7.071068e-01 0.000000e+00
    outer loop
      vertex   5.879000e+00 -1.256784e+01 1.363784e+01
      vertex   6.387000e+00 -1.205984e+01 1.566984e+01
      vertex   5.879000e+00 -1.256784e+01 1.617784e+01
    endloop
  endfacet
  facet normal 7.071068e-01 7.071068e-01 -0.000000e+00
    outer loop
      vertex   6.387000e+00 -1.053584e+01 1.363784e+01
      vertex   5.879000e+00 -1.002784e+01 1.363784e+01
      vertex   6.387000e+00 -1.053584e+01 1.566984e+01
    endloop
  endfacet
  facet normal 7.071068e-01 7.071068e-01 0.000000e+00
    outer loop
      vertex   6.387000e+00 -1.053584e+01 1.566984e+01
      vertex   5.879000e+00 -1.002784e+01 1.363784e+01
      vertex   5.879000e+00 -1.002784e+01 1.617784e+01
    endloop
  endfacet
  facet normal -1.165588e-15 1.000000e+00 1.165588e-15
    outer loop
      vertex   4.355000e+00 -1.205984e+01 1.617784e+01
      vertex   5.879000e+00 -1.205984e+01 1.617784e+01
      vertex   4.101000e+00 -1.205984e+01 1.592384e+01
    endloop
  endfacet
  facet normal -8.741914e-16 1.000000e+00 -8.741914e-16
    outer loop
      vertex   4.101000e+00 -1.205984e+01 1.592384e+01
      vertex   5.879000e+00 -1.205984e+01 1.617784e+01
      vertex   6.133000e+00 -1.205984e+01 1.592384e+01
    endloop
  endfacet
  facet normal 0.000000e+00 -1.000000e+00 0.000000e+00
    outer loop
      vertex   4.101000e+00 -1.053584e+01 1.592384e+01
      vertex   6.133000e+00 -1.053584e+01 1.592384e+01
      vertex   4.355000e+00 -1.053584e+01 1.617784e+01
    endloop
  endfacet
  facet normal 0.000000e+00 -1.000000e+00 0.000000e+00
    outer loop
      vertex   4.355000e+00 -1.053584e+01 1.617784e+01
      vertex   6.133000e+00 -1.053584e+01 1.592384e+01
      vertex   5.879000e+00 -1.053584e+01 1.617784e+01
    endloop
  endfacet
  facet normal 0.000000e+00 0.000000e+00 1.000000e+00
    outer loop
      vertex   6.133000e+00 -1.053584e+01 1.592384e+01
      vertex   4.101000e+00 -1.053584e+01 1.592384e+01
      vertex   4.799500e+00 -1.098034e+01 1.592384e+01
    endloop
  endfacet
  facet normal 0.000000e+00 0.000000e+00 1.000000e+00
    outer loop
      vertex   4.799500e+00 -1.098034e+01 1.592384e+01
      vertex   4.101000e+00 -1.053584e+01 1.592384e+01
      vertex   4.101000e+00 -1.205984e+01 1.592384e+01
    endloop
  endfacet
  facet normal 0.000000e+00 0.000000e+00 1.000000e+00
    outer loop
      vertex   4.799500e+00 -1.098034e+01 1.592384e+01
      vertex   4.101000e+00 -1.205984e+01 1.592384e+01
      vertex   4.799500e+00 -1.161534e+01 1.592384e+01
    endloop
  endfacet
  facet normal 0.000000e+00 0.000000e+00 1.000000e+00
    outer loop
      vertex   4.799500e+00 -1.161534e+01 1.592384e+01
      vertex   4.101000e+00 -1.205984e+01 1.592384e+01
      vertex   6.133000e+00 -1.205984e+01 1.592384e+01
    endloop
  endfacet
  facet normal -0.000000e+00 0.000000e+00 1.000000e+00
    outer loop
      vertex   4.799500e+00 -1.161534e+01 1.592384e+01
      vertex   6.133000e+00 -1.205984e+01 1.592384e+01
      vertex   5.434500e+00 -1.161534e+01 1.592384e+01
    endloop
  endfacet
  facet normal -0.000000e+00 0.000000e+00 1.000000e+00
    outer loop
      vertex   5.434500e+00 -1.161534e+01 1.592384e+01
      vertex   6.133000e+00 -1.205984e+01 1.592384e+01
      vertex   6.133000e+00 -1.053584e+01 1.592384e+01
    endloop
  endfacet
  facet normal 0.000000e+00 -0.000000e+00 1.000000e+00
    outer loop
      vertex   5.434500e+00 -1.161534e+01 1.592384e+01
      vertex   6.133000e+00 -1.053584e+01 1.592384e+01
      vertex   5.434500e+00 -1.098034e+01 1.592384e+01
    endloop
  endfacet
  facet normal 0.000000e+00 -0.000000e+00 1.000000e+00
    outer loop
      vertex   5.434500e+00 -1.098034e+01 1.592384e+01
      vertex   6.133000e+00 -1.053584e+01 1.592384e+01
      vertex   4.799500e+00 -1.098034e+01 1.592384e+01
    endloop
  endfacet
  facet normal 0.000000e+00 1.000000e+00 -0.000000e+00
    outer loop
      vertex   4.799500e+00 -1.161534e+01 1.363784e+01
      vertex   4.799500e+00 -1.161534e+01 1.592384e+01
      vertex   5.434500e+00 -1.161534e+01 1.363784e+01
    endloop
  endfacet
  facet normal 0.000000e+00 1.000000e+00 -0.000000e+00
    outer loop
      vertex   5.434500e+00 -1.161534e+01 1.363784e+01
      vertex   4.799500e+00 -1.161534e+01 1.592384e+01
      vertex   5.434500e+00 -1.161534e+01 1.592384e+01
    endloop
  endfacet
  facet normal 1.000000e+00 2.797412e-15 -0.000000e+00
    outer loop
      vertex   4.799500e+00 -1.098034e+01 1.363784e+01
      vertex   4.799500e+00 -1.098034e+01 1.592384e+01
      vertex   4.799500e+00 -1.161534e+01 1.363784e+01
    endloop
  endfacet
  facet normal 1.000000e+00 1.398706e-15 3.885295e-16
    outer loop
      vertex   4.799500e+00 -1.161534e+01 1.363784e+01
      vertex   4.799500e+00 -1.098034e+01 1.592384e+01
      vertex   4.799500e+00 -1.161534e+01 1.592384e+01
    endloop
  endfacet
  facet normal 0.000000e+00 -1.000000e+00 1.554118e-15
    outer loop
      vertex   5.434500e+00 -1.098034e+01 1.363784e+01
      vertex   5.434500e+00 -1.098034e+01 1.592384e+01
      vertex   4.799500e+00 -1.098034e+01 1.363784e+01
    endloop
  endfacet
  facet normal 5.594825e-15 -1.000000e+00 0.000000e+00
    outer loop
      vertex   4.799500e+00 -1.098034e+01 1.363784e+01
      vertex   5.434500e+00 -1.098034e+01 1.592384e+01
      vertex   4.799500e+00 -1.098034e+01 1.592384e+01
    endloop
  endfacet
  facet normal -1.000000e+00 -2.797412e-15 0.000000e+00
    outer loop
      vertex   5.434500e+00 -1.161534e+01 1.363784e+01
      vertex   5.434500e+00 -1.161534e+01 1.592384e+01
      vertex   5.434500e+00 -1.098034e+01 1.363784e+01
    endloop
  endfacet
  facet normal -1.000000e+00 -2.797412e-15 4.347509e-30
    outer loop
      vertex   5.434500e+00 -1.098034e+01 1.363784e+01
      vertex   5.434500e+00 -1.161534e+01 1.592384e+01
      vertex   5.434500e+00 -1.098034e+01 1.592384e+01
    endloop
  endfacet
  facet normal 0.000000e+00 -1.000000e+00 3.330253e-16
    outer loop
      vertex   4.799500e+00 -1.161534e+01 1.833684e+01
      vertex   4.799500e+00 -1.161534e+01 7.668842e+00
      vertex   5.434500e+00 -1.161534e+01 1.833684e+01
    endloop
  endfacet
  facet normal 5.594825e-15 -1.000000e+00 0.000000e+00
    outer loop
      vertex   5.434500e+00 -1.161534e+01 1.833684e+01
      vertex   4.799500e+00 -1.161534e+01 7.668842e+00
      vertex   5.434500e+00 -1.161534e+01 7.668842e+00
    endloop
  endfacet
  facet normal -1.000000e+00 -1.398706e-15 -8.325632e-17
    outer loop
      vertex   4.799500e+00 -1.098034e+01 1.833684e+01
      vertex   4.799500e+00 -1.098034e+01 7.668842e+00
      vertex   4.799500e+00 -1.161534e+01 1.833684e+01
    endloop
  endfacet
  facet normal -1.000000e+00 -1.398706e-15 -8.325632e-17
    outer loop
      vertex   4.799500e+00 -1.161534e+01 1.833684e+01
      vertex   4.799500e+00 -1.098034e+01 7.668842e+00
      vertex   4.799500e+00 -1.161534e+01 7.668842e+00
    endloop
  endfacet
  facet normal -5.594825e-15 1.000000e+00 -3.330253e-16
    outer loop
      vertex   5.434500e+00 -1.098034e+01 1.833684e+01
      vertex   5.434500e+00 -1.098034e+01 7.668842e+00
      vertex   4.799500e+00 -1.098034e+01 1.833684e+01
    endloop
  endfacet
  facet normal 0.000000e+00 1.000000e+00 0.000000e+00
    outer loop
      vertex   4.799500e+00 -1.098034e+01 1.833684e+01
      vertex   5.434500e+00 -1.098034e+01 7.668842e+00
      vertex   4.799500e+00 -1.098034e+01 7.668842e+00
    endloop
  endfacet
  facet normal 1.000000e+00 2.797412e-15 0.000000e+00
    outer loop
      vertex   5.434500e+00 -1.161534e+01 1.833684e+01
      vertex   5.434500e+00 -1.161534e+01 7.668842e+00
      vertex   5.434500e+00 -1.098034e+01 1.833684e+01
    endloop
  endfacet
  facet normal 1.000000e+00 2.797412e-15 -9.316090e-31
    outer loop
      vertex   5.434500e+00 -1.098034e+01 1.833684e+01
      vertex   5.434500e+00 -1.161534e+01 7.668842e+00
      vertex   5.434500e+00 -1.098034e+01 7.668842e+00
    endloop
  endfacet
  facet normal -0.000000e+00 0.000000e+00 1.000000e+00
    outer loop
      vertex   5.053500e+00 -1.123434e+01 1.871784e+01
      vertex   5.053500e+00 -1.136134e+01 1.871784e+01
      vertex   5.180500e+00 -1.123434e+01 1.871784e+01
    endloop
  endfacet
  facet normal 0.000000e+00 0.000000e+00 1.000000e+00
    outer loop
      vertex   5.180500e+00 -1.123434e+01 1.871784e+01
      vertex   5.053500e+00 -1.136134e+01 1.871784e+01
      vertex   5.180500e+00 -1.136134e+01 1.871784e+01
    endloop
  endfacet
  facet normal -0.000000e+00 -0.000000e+00 -1.000000e+00
    outer loop
      vertex   5.180500e+00 -1.123434e+01 7.287842e+00
      vertex   5.180500e+00 -1.136134e+01 7.287842e+00
      vertex   5.053500e+00 -1.123434e+01 7.287842e+00
    endloop
  endfacet
  facet normal 0.000000e+00 0.000000e+00 -1.000000e+00
    outer loop
      vertex   5.053500e+00 -1.123434e+01 7.287842e+00
      vertex   5.180500e+00 -1.136134e+01 7.287842e+00
      vertex   5.053500e+00 -1.136134e+01 7.287842e+00
    endloop
  endfacet
  facet normal -0.000000e+00 8.320503e-01 5.547002e-01
    outer loop
      vertex   5.053500e+00 -1.123434e+01 1.871784e+01
      vertex   5.180500e+00 -1.123434e+01 1.871784e+01
      vertex   4.799500e+00 -1.098034e+01 1.833684e+01
    endloop
  endfacet
  facet normal -4.655176e-15 8.320503e-01 5.547002e-01
    outer loop
      vertex   4.799500e+00 -1.098034e+01 1.833684e+01
      vertex   5.180500e+00 -1.123434e+01 1.871784e+01
      vertex   5.434500e+00 -1.098034e+01 1.833684e+01
    endloop
  endfacet
  facet normal 8.320503e-01 0.000000e+00 5.547002e-01
    outer loop
      vertex   5.180500e+00 -1.123434e+01 1.871784e+01
      vertex   5.180500e+00 -1.136134e+01 1.871784e+01
      vertex   5.434500e+00 -1.098034e+01 1.833684e+01
    endloop
  endfacet
  facet normal 8.320503e-01 2.327588e-15 5.547002e-01
    outer loop
      vertex   5.434500e+00 -1.098034e+01 1.833684e+01
      vertex   5.180500e+00 -1.136134e+01 1.871784e+01
      vertex   5.434500e+00 -1.161534e+01 1.833684e+01
    endloop
  endfacet
  facet normal -8.320503e-01 -1.163794e-15 5.547002e-01
    outer loop
      vertex   4.799500e+00 -1.098034e+01 1.833684e+01
      vertex   4.799500e+00 -1.161534e+01 1.833684e+01
      vertex   5.053500e+00 -1.123434e+01 1.871784e+01
    endloop
  endfacet
  facet normal -8.320503e-01 0.000000e+00 5.547002e-01
    outer loop
      vertex   5.053500e+00 -1.123434e+01 1.871784e+01
      vertex   4.799500e+00 -1.161534e+01 1.833684e+01
      vertex   5.053500e+00 -1.136134e+01 1.871784e+01
    endloop
  endfacet
  facet normal 0.000000e+00 -8.320503e-01 5.547002e-01
    outer loop
      vertex   5.180500e+00 -1.136134e+01 1.871784e+01
      vertex   5.053500e+00 -1.136134e+01 1.871784e+01
      vertex   5.434500e+00 -1.161534e+01 1.833684e+01
    endloop
  endfacet
  facet normal 0.000000e+00 -8.320503e-01 5.547002e-01
    outer loop
      vertex   5.434500e+00 -1.161534e+01 1.833684e+01
      vertex   5.053500e+00 -1.136134e+01 1.871784e+01
      vertex   4.799500e+00 -1.161534e+01 1.833684e+01
    endloop
  endfacet
  facet normal -8.320503e-01 -1.163794e-15 -5.547002e-01
    outer loop
      vertex   4.799500e+00 -1.161534e+01 7.668842e+00
      vertex   4.799500e+00 -1.098034e+01 7.668842e+00
      vertex   5.053500e+00 -1.136134e+01 7.287842e+00
    endloop
  endfacet
  facet normal -8.320503e-01 0.000000e+00 -5.547002e-01
    outer loop
      vertex   5.053500e+00 -1.136134e+01 7.287842e+00
      vertex   4.799500e+00 -1.098034e+01 7.668842e+00
      vertex   5.053500e+00 -1.123434e+01 7.287842e+00
    endloop
  endfacet
  facet normal 0.000000e+00 8.320503e-01 -5.547002e-01
    outer loop
      vertex   4.799500e+00 -1.098034e+01 7.668842e+00
      vertex   5.434500e+00 -1.098034e+01 7.668842e+00
      vertex   5.053500e+00 -1.123434e+01 7.287842e+00
    endloop
  endfacet
  facet normal 0.000000e+00 8.320503e-01 -5.547002e-01
    outer loop
      vertex   5.053500e+00 -1.123434e+01 7.287842e+00
      vertex   5.434500e+00 -1.098034e+01 7.668842e+00
      vertex   5.180500e+00 -1.123434e+01 7.287842e+00
    endloop
  endfacet
  facet normal 0.000000e+00 -8.320503e-01 -5.547002e-01
    outer loop
      vertex   5.053500e+00 -1.136134e+01 7.287842e+00
      vertex   5.180500e+00 -1.136134e+01 7.287842e+00
      vertex   4.799500e+00 -1.161534e+01 7.668842e+00
    endloop
  endfacet
  facet normal 4.655176e-15 -8.320503e-01 -5.547002e-01
    outer loop
      vertex   4.799500e+00 -1.161534e+01 7.668842e+00
      vertex   5.180500e+00 -1.136134e+01 7.287842e+00
      vertex   5.434500e+00 -1.161534e+01 7.668842e+00
    endloop
  endfacet
  facet normal 8.320503e-01 2.327588e-15 -5.547002e-01
    outer loop
      vertex   5.434500e+00 -1.098034e+01 7.668842e+00
      vertex   5.434500e+00 -1.161534e+01 7.668842e+00
      vertex   5.180500e+00 -1.123434e+01 7.287842e+00
    endloop
  endfacet
  facet normal 8.320503e-01 0.000000e+00 -5.547002e-01
    outer loop
      vertex   5.180500e+00 -1.123434e+01 7.287842e+00
      vertex   5.434500e+00 -1.161534e+01 7.668842e+00
      vertex   5.180500e+00 -1.136134e+01 7.287842e+00
    endloop
  endfacet
  facet normal -0.000000e+00 0.000000e+00 1.000000e+00
    outer loop
      vertex   -3.265000e+00 -1.205984e+01 1.617784e+01
      vertex   -3.265000e+00 -1.256784e+01 1.617784e+01
      vertex   -1.741000e+00 -1.205984e+01 1.617784e+01
    endloop
  endfacet
  facet normal 0.000000e+00 0.000000e+00 1.000000e+00
    outer loop
      vertex   -1.741000e+00 -1.205984e+01 1.617784e+01
      vertex   -3.265000e+00 -1.256784e+01 1.617784e+01
      vertex   -1.741000e+00 -1.256784e+01 1.617784e+01
    endloop
  endfacet
  facet normal -7.071068e-01 0.000000e+00 7.071068e-01
    outer loop
      vertex   -3.265000e+00 -1.205984e+01 1.617784e+01
      vertex   -3.519000e+00 -1.205984e+01 1.592384e+01
      vertex   -3.265000e+00 -1.256784e+01 1.617784e+01
    endloop
  endfacet
  facet normal -7.071068e-01 6.692532e-15 7.071068e-01
    outer loop
      vertex   -3.265000e+00 -1.256784e+01 1.617784e+01
      vertex   -3.519000e+00 -1.205984e+01 1.592384e+01
      vertex   -3.773000e+00 -1.205984e+01 1.566984e+01
    endloop
  endfacet
  facet normal -7.071068e-01 -8.112161e-16 7.071068e-01
    outer loop
      vertex   -3.773000e+00 -1.205984e+01 1.566984e+01
      vertex   -3.519000e+00 -1.205984e+01 1.592384e+01
      vertex   -3.519000e+00 -1.053584e+01 1.592384e+01
    endloop
  endfacet
  facet normal -7.071068e-01 -1.030244e-15 7.071068e-01
    outer loop
      vertex   -3.773000e+00 -1.205984e+01 1.566984e+01
      vertex   -3.519000e+00 -1.053584e+01 1.592384e+01
      vertex   -3.773000e+00 -1.053584e+01 1.566984e+01
    endloop
  endfacet
  facet normal -7.071068e-01 -7.453048e-15 7.071068e-01
    outer loop
      vertex   -3.773000e+00 -1.053584e+01 1.566984e+01
      vertex   -3.519000e+00 -1.053584e+01 1.592384e+01
      vertex   -3.265000e+00 -1.002784e+01 1.617784e+01
    endloop
  endfacet
  facet normal -7.071068e-01 0.000000e+00 7.071068e-01
    outer loop
      vertex   -3.265000e+00 -1.002784e+01 1.617784e+01
      vertex   -3.519000e+00 -1.053584e+01 1.592384e+01
      vertex   -3.265000e+00 -1.053584e+01 1.617784e+01
    endloop
  endfacet
  facet normal 7.071068e-01 1.854440e-15 7.071068e-01
    outer loop
      vertex   -1.487000e+00 -1.205984e+01 1.592384e+01
      vertex   -1.233000e+00 -1.053584e+01 1.566984e+01
      vertex   -1.487000e+00 -1.053584e+01 1.592384e+01
    endloop
  endfacet
  facet normal 7.071068e-01 -5.551760e-15 7.071068e-01
    outer loop
      vertex   -1.487000e+00 -1.053584e+01 1.592384e+01
      vertex   -1.233000e+00 -1.053584e+01 1.566984e+01
      vertex   -1.741000e+00 -1.002784e+01 1.617784e+01
    endloop
  endfacet
  facet normal 7.071068e-01 0.000000e+00 7.071068e-01
    outer loop
      vertex   -1.487000e+00 -1.053584e+01 1.592384e+01
      vertex   -1.741000e+00 -1.002784e+01 1.617784e+01
      vertex   -1.741000e+00 -1.053584e+01 1.617784e+01
    endloop
  endfacet
  facet normal 7.071068e-01 0.000000e+00 7.071068e-01
    outer loop
      vertex   -1.741000e+00 -1.205984e+01 1.617784e+01
      vertex   -1.741000e+00 -1.256784e+01 1.617784e+01
      vertex   -1.487000e+00 -1.205984e+01 1.592384e+01
    endloop
  endfacet
  facet normal 7.071068e-01 6.084120e-16 7.071068e-01
    outer loop
      vertex   -1.487000e+00 -1.205984e+01 1.592384e+01
      vertex   -1.741000e+00 -1.256784e+01 1.617784e+01
      vertex   -1.233000e+00 -1.205984e+01 1.566984e+01
    endloop
  endfacet
  facet normal 7.071068e-01 1.014020e-15 7.071068e-01
    outer loop
      vertex   -1.487000e+00 -1.205984e+01 1.592384e+01
      vertex   -1.233000e+00 -1.205984e+01 1.566984e+01
      vertex   -1.233000e+00 -1.053584e+01 1.566984e+01
    endloop
  endfacet
  facet normal -1.000000e+00 -1.456986e-15 0.000000e+00
    outer loop
      vertex   -3.773000e+00 -1.205984e+01 1.363784e+01
      vertex   -3.773000e+00 -1.205984e+01 1.566984e+01
      vertex   -3.773000e+00 -1.053584e+01 1.363784e+01
    endloop
  endfacet
  facet normal -1.000000e+00 -1.456986e-15 0.000000e+00
    outer loop
      vertex   -3.773000e+00 -1.053584e+01 1.363784e+01
      vertex   -3.773000e+00 -1.205984e+01 1.566984e+01
      vertex   -3.773000e+00 -1.053584e+01 1.566984e+01
    endloop
  endfacet
  facet normal 1.165588e-15 -1.000000e+00 0.000000e+00
    outer loop
      vertex   -3.265000e+00 -1.256784e+01 1.617784e+01
      vertex   -3.265000e+00 -1.256784e+01 1.363784e+01
      vertex   -1.741000e+00 -1.256784e+01 1.617784e+01
    endloop
  endfacet
  facet normal 0.000000e+00 -1.000000e+00 6.993531e-16
    outer loop
      vertex   -1.741000e+00 -1.256784e+01 1.617784e+01
      vertex   -3.265000e+00 -1.256784e+01 1.363784e+01
      vertex   -1.741000e+00 -1.256784e+01 1.363784e+01
    endloop
  endfacet
  facet normal 1.000000e+00 1.456986e-15 -0.000000e+00
    outer loop
      vertex   -1.233000e+00 -1.053584e+01 1.363784e+01
      vertex   -1.233000e+00 -1.053584e+01 1.566984e+01
      vertex   -1.233000e+00 -1.205984e+01 1.363784e+01
    endloop
  endfacet
  facet normal 1.000000e+00 1.456986e-15 -0.000000e+00
    outer loop
      vertex   -1.233000e+00 -1.205984e+01 1.363784e+01
      vertex   -1.233000e+00 -1.053584e+01 1.566984e+01
      vertex   -1.233000e+00 -1.205984e+01 1.566984e+01
    endloop
  endfacet
  facet normal 0.000000e+00 1.000000e+00 0.000000e+00
    outer loop
      vertex   -3.265000e+00 -1.002784e+01 1.363784e+01
      vertex   -3.265000e+00 -1.002784e+01 1.617784e+01
      vertex   -1.741000e+00 -1.002784e+01 1.363784e+01
    endloop
  endfacet
  facet normal -2.331177e-15 1.000000e+00 -1.398706e-15
    outer loop
      vertex   -1.741000e+00 -1.002784e+01 1.363784e+01
      vertex   -3.265000e+00 -1.002784e+01 1.617784e+01
      vertex   -1.741000e+00 -1.002784e+01 1.617784e+01
    endloop
  endfacet
  facet normal 0.000000e+00 -0.000000e+00 1.000000e+00
    outer loop
      vertex   -1.741000e+00 -1.053584e+01 1.617784e+01
      vertex   -1.741000e+00 -1.002784e+01 1.617784e+01
      vertex   -3.265000e+00 -1.053584e+01 1.617784e+01
    endloop
  endfacet
  facet normal 0.000000e+00 0.000000e+00 1.000000e+00
    outer loop
      vertex   -3.265000e+00 -1.053584e+01 1.617784e+01
      vertex   -1.741000e+00 -1.002784e+01 1.617784e+01
      vertex   -3.265000e+00 -1.002784e+01 1.617784e+01
    endloop
  endfacet
  facet normal 0.000000e+00 0.000000e+00 -1.000000e+00
    outer loop
      vertex   -3.265000e+00 -1.256784e+01 1.363784e+01
      vertex   -2.820500e+00 -1.161534e+01 1.363784e+01
      vertex   -1.741000e+00 -1.256784e+01 1.363784e+01
    endloop
  endfacet
  facet normal 0.000000e+00 0.000000e+00 -1.000000e+00
    outer loop
      vertex   -1.741000e+00 -1.256784e+01 1.363784e+01
      vertex   -2.820500e+00 -1.161534e+01 1.363784e+01
      vertex   -2.185500e+00 -1.161534e+01 1.363784e+01
    endloop
  endfacet
  facet normal 0.000000e+00 0.000000e+00 -1.000000e+00
    outer loop
      vertex   -1.741000e+00 -1.256784e+01 1.363784e+01
      vertex   -2.185500e+00 -1.161534e+01 1.363784e+01
      vertex   -1.233000e+00 -1.205984e+01 1.363784e+01
    endloop
  endfacet
  facet normal 0.000000e+00 0.000000e+00 -1.000000e+00
    outer loop
      vertex   -1.233000e+00 -1.205984e+01 1.363784e+01
      vertex   -2.185500e+00 -1.161534e+01 1.363784e+01
      vertex   -2.185500e+00 -1.098034e+01 1.363784e+01
    endloop
  endfacet
  facet normal 0.000000e+00 0.000000e+00 -1.000000e+00
    outer loop
      vertex   -1.233000e+00 -1.205984e+01 1.363784e+01
      vertex   -2.185500e+00 -1.098034e+01 1.363784e+01
      vertex   -1.233000e+00 -1.053584e+01 1.363784e+01
    endloop
  endfacet
  facet normal -0.000000e+00 0.000000e+00 -1.000000e+00
    outer loop
      vertex   -1.233000e+00 -1.053584e+01 1.363784e+01
      vertex   -2.185500e+00 -1.098034e+01 1.363784e+01
      vertex   -1.741000e+00 -1.002784e+01 1.363784e+01
    endloop
  endfacet
  facet normal 0.000000e+00 0.000000e+00 -1.000000e+00
    outer loop
      vertex   -1.741000e+00 -1.002784e+01 1.363784e+01
      vertex   -2.185500e+00 -1.098034e+01 1.363784e+01
      vertex   -2.820500e+00 -1.098034e+01 1.363784e+01
    endloop
  endfacet
  facet normal -0.000000e+00 0.000000e+00 -1.000000e+00
    outer loop
      vertex   -1.741000e+00 -1.002784e+01 1.363784e+01
      vertex   -2.820500e+00 -1.098034e+01 1.363784e+01
      vertex   -3.265000e+00 -1.002784e+01 1.363784e+01
    endloop
  endfacet
  facet normal 0.000000e+00 -0.000000e+00 -1.000000e+00
    outer loop
      vertex   -3.265000e+00 -1.002784e+01 1.363784e+01
      vertex   -2.820500e+00 -1.098034e+01 1.363784e+01
      vertex   -3.773000e+00 -1.053584e+01 1.363784e+01
    endloop
  endfacet
  facet normal 0.000000e+00 0.000000e+00 -1.000000e+00
    outer loop
      vertex   -3.773000e+00 -1.053584e+01 1.363784e+01
      vertex   -2.820500e+00 -1.098034e+01 1.363784e+01
      vertex   -2.820500e+00 -1.161534e+01 1.363784e+01
    endloop
  endfacet
  facet normal 0.000000e+00 0.000000e+00 -1.000000e+00
    outer loop
      vertex   -3.773000e+00 -1.053584e+01 1.363784e+01
      vertex   -2.820500e+00 -1.161534e+01 1.363784e+01
      vertex   -3.773000e+00 -1.205984e+01 1.363784e+01
    endloop
  endfacet
  facet normal 0.000000e+00 0.000000e+00 -1.000000e+00
    outer loop
      vertex   -3.773000e+00 -1.205984e+01 1.363784e+01
      vertex   -2.820500e+00 -1.161534e+01 1.363784e+01
      vertex   -3.265000e+00 -1.256784e+01 1.363784e+01
    endloop
  endfacet
  facet normal -7.071068e-01 7.071068e-01 0.000000e+00
    outer loop
      vertex   -3.773000e+00 -1.053584e+01 1.363784e+01
      vertex   -3.773000e+00 -1.053584e+01 1.566984e+01
      vertex   -3.265000e+00 -1.002784e+01 1.363784e+01
    endloop
  endfacet
  facet normal -7.071068e-01 7.071068e-01 0.000000e+00
    outer loop
      vertex   -3.265000e+00 -1.002784e+01 1.363784e+01
      vertex   -3.773000e+00 -1.053584e+01 1.566984e+01
      vertex   -3.265000e+00 -1.002784e+01 1.617784e+01
    endloop
  endfacet
  facet normal -7.071068e-01 -7.071068e-01 0.000000e+00
    outer loop
      vertex   -3.773000e+00 -1.205984e+01 1.363784e+01
      vertex   -3.265000e+00 -1.256784e+01 1.363784e+01
      vertex   -3.773000e+00 -1.205984e+01 1.566984e+01
    endloop
  endfacet
  facet normal -7.071068e-01 -7.071068e-01 0.000000e+00
    outer loop
      vertex   -3.773000e+00 -1.205984e+01 1.566984e+01
      vertex   -3.265000e+00 -1.256784e+01 1.363784e+01
      vertex   -3.265000e+00 -1.256784e+01 1.617784e+01
    endloop
  endfacet
  facet normal 7.071068e-01 -7.071068e-01 0.000000e+00
    outer loop
      vertex   -1.233000e+00 -1.205984e+01 1.363784e+01
      vertex   -1.233000e+00 -1.205984e+01 1.566984e+01
      vertex   -1.741000e+00 -1.256784e+01 1.363784e+01
    endloop
  endfacet
  facet normal 7.071068e-01 -7.071068e-01 4.945173e-16
    outer loop
      vertex   -1.741000e+00 -1.256784e+01 1.363784e+01
      vertex   -1.233000e+00 -1.205984e+01 1.566984e+01
      vertex   -1.741000e+00 -1.256784e+01 1.617784e+01
    endloop
  endfacet
  facet normal 7.071068e-01 7.071068e-01 -0.000000e+00
    outer loop
      vertex   -1.233000e+00 -1.053584e+01 1.363784e+01
      vertex   -1.741000e+00 -1.002784e+01 1.363784e+01
      vertex   -1.233000e+00 -1.053584e+01 1.566984e+01
    endloop
  endfacet
  facet normal 7.071068e-01 7.071068e-01 -9.734593e-16
    outer loop
      vertex   -1.233000e+00 -1.053584e+01 1.566984e+01
      vertex   -1.741000e+00 -1.002784e+01 1.363784e+01
      vertex   -1.741000e+00 -1.002784e+01 1.617784e+01
    endloop
  endfacet
  facet normal -2.331177e-15 1.000000e+00 2.331177e-15
    outer loop
      vertex   -3.265000e+00 -1.205984e+01 1.617784e+01
      vertex   -1.741000e+00 -1.205984e+01 1.617784e+01
      vertex   -3.519000e+00 -1.205984e+01 1.592384e+01
    endloop
  endfacet
  facet normal -1.748383e-15 1.000000e+00 -1.748383e-15
    outer loop
      vertex   -3.519000e+00 -1.205984e+01 1.592384e+01
      vertex   -1.741000e+00 -1.205984e+01 1.617784e+01
      vertex   -1.487000e+00 -1.205984e+01 1.592384e+01
    endloop
  endfacet
  facet normal 1.748383e-15 -1.000000e+00 -1.748383e-15
    outer loop
      vertex   -3.519000e+00 -1.053584e+01 1.592384e+01
      vertex   -1.487000e+00 -1.053584e+01 1.592384e+01
      vertex   -3.265000e+00 -1.053584e+01 1.617784e+01
    endloop
  endfacet
  facet normal 0.000000e+00 -1.000000e+00 -1.398706e-14
    outer loop
      vertex   -3.265000e+00 -1.053584e+01 1.617784e+01
      vertex   -1.487000e+00 -1.053584e+01 1.592384e+01
      vertex   -1.741000e+00 -1.053584e+01 1.617784e+01
    endloop
  endfacet
  facet normal 0.000000e+00 0.000000e+00 1.000000e+00
    outer loop
      vertex   -1.487000e+00 -1.053584e+01 1.592384e+01
      vertex   -3.519000e+00 -1.053584e+01 1.592384e+01
      vertex   -2.820500e+00 -1.098034e+01 1.592384e+01
    endloop
  endfacet
  facet normal 0.000000e+00 0.000000e+00 1.000000e+00
    outer loop
      vertex   -2.820500e+00 -1.098034e+01 1.592384e+01
      vertex   -3.519000e+00 -1.053584e+01 1.592384e+01
      vertex   -3.519000e+00 -1.205984e+01 1.592384e+01
    endloop
  endfacet
  facet normal 0.000000e+00 0.000000e+00 1.000000e+00
    outer loop
      vertex   -2.820500e+00 -1.098034e+01 1.592384e+01
      vertex   -3.519000e+00 -1.205984e+01 1.592384e+01
      vertex   -2.820500e+00 -1.161534e+01 1.592384e+01
    endloop
  endfacet
  facet normal -8.741914e-16 1.373729e-15 1.000000e+00
    outer loop
      vertex   -2.820500e+00 -1.161534e+01 1.592384e+01
      vertex   -3.519000e+00 -1.205984e+01 1.592384e+01
      vertex   -1.487000e+00 -1.205984e+01 1.592384e+01
    endloop
  endfacet
  facet normal -0.000000e+00 3.996303e-15 1.000000e+00
    outer loop
      vertex   -2.820500e+00 -1.161534e+01 1.592384e+01
      vertex   -1.487000e+00 -1.205984e+01 1.592384e+01
      vertex   -2.185500e+00 -1.161534e+01 1.592384e+01
    endloop
  endfacet
  facet normal -1.801364e-15 1.165588e-15 1.000000e+00
    outer loop
      vertex   -2.185500e+00 -1.161534e+01 1.592384e+01
      vertex   -1.487000e+00 -1.205984e+01 1.592384e+01
      vertex   -1.487000e+00 -1.053584e+01 1.592384e+01
    endloop
  endfacet
  facet normal 0.000000e+00 0.000000e+00 1.000000e+00
    outer loop
      vertex   -2.185500e+00 -1.161534e+01 1.592384e+01
      vertex   -1.487000e+00 -1.053584e+01 1.592384e+01
      vertex   -2.185500e+00 -1.098034e+01 1.592384e+01
    endloop
  endfacet
  facet normal 0.000000e+00 -0.000000e+00 1.000000e+00
    outer loop
      vertex   -2.185500e+00 -1.098034e+01 1.592384e+01
      vertex   -1.487000e+00 -1.053584e+01 1.592384e+01
      vertex   -2.820500e+00 -1.098034e+01 1.592384e+01
    endloop
  endfacet
  facet normal 0.000000e+00 1.000000e+00 0.000000e+00
    outer loop
      vertex   -2.820500e+00 -1.161534e+01 1.363784e+01
      vertex   -2.820500e+00 -1.161534e+01 1.592384e+01
      vertex   -2.185500e+00 -1.161534e+01 1.363784e+01
    endloop
  endfacet
  facet normal 0.000000e+00 1.000000e+00 -0.000000e+00
    outer loop
      vertex   -2.185500e+00 -1.161534e+01 1.363784e+01
      vertex   -2.820500e+00 -1.161534e+01 1.592384e+01
      vertex   -2.185500e+00 -1.161534e+01 1.592384e+01
    endloop
  endfacet
  facet normal 1.000000e+00 0.000000e+00 -0.000000e+00
    outer loop
      vertex   -2.820500e+00 -1.098034e+01 1.363784e+01
      vertex   -2.820500e+00 -1.098034e+01 1.592384e+01
      vertex   -2.820500e+00 -1.161534e+01 1.363784e+01
    endloop
  endfacet
  facet normal 1.000000e+00 0.000000e+00 0.000000e+00
    outer loop
      vertex   -2.820500e+00 -1.161534e+01 1.363784e+01
      vertex   -2.820500e+00 -1.098034e+01 1.592384e+01
      vertex   -2.820500e+00 -1.161534e+01 1.592384e+01
    endloop
  endfacet
  facet normal 5.594825e-15 -1.000000e+00 0.000000e+00
    outer loop
      vertex   -2.185500e+00 -1.098034e+01 1.363784e+01
      vertex   -2.185500e+00 -1.098034e+01 1.592384e+01
      vertex   -2.820500e+00 -1.098034e+01 1.363784e+01
    endloop
  endfacet
  facet normal 5.594825e-15 -1.000000e+00 0.000000e+00
    outer loop
      vertex   -2.820500e+00 -1.098034e+01 1.363784e+01
      vertex   -2.185500e+00 -1.098034e+01 1.592384e+01
      vertex   -2.820500e+00 -1.098034e+01 1.592384e+01
    endloop
  endfacet
  facet normal -1.000000e+00 0.000000e+00 0.000000e+00
    outer loop
      vertex   -2.185500e+00 -1.161534e+01 1.363784e+01
      vertex   -2.185500e+00 -1.161534e+01 1.592384e+01
      vertex   -2.185500e+00 -1.098034e+01 1.363784e+01
    endloop
  endfacet
  facet normal -1.000000e+00 0.000000e+00 0.000000e+00
    outer loop
      vertex   -2.185500e+00 -1.098034e+01 1.363784e+01
      vertex   -2.185500e+00 -1.161534e+01 1.592384e+01
      vertex   -2.185500e+00 -1.098034e+01 1.592384e+01
    endloop
  endfacet
  facet normal 0.000000e+00 -1.000000e+00 0.000000e+00
    outer loop
      vertex   -2.820500e+00 -1.161534e+01 1.833684e+01
      vertex   -2.820500e+00 -1.161534e+01 7.668842e+00
      vertex   -2.185500e+00 -1.161534e+01 1.833684e+01
    endloop
  endfacet
  facet normal 0.000000e+00 -1.000000e+00 -0.000000e+00
    outer loop
      vertex   -2.185500e+00 -1.161534e+01 1.833684e+01
      vertex   -2.820500e+00 -1.161534e+01 7.668842e+00
      vertex   -2.185500e+00 -1.161534e+01 7.668842e+00
    endloop
  endfacet
  facet normal -1.000000e+00 -0.000000e+00 0.000000e+00
    outer loop
      vertex   -2.820500e+00 -1.098034e+01 1.833684e+01
      vertex   -2.820500e+00 -1.098034e+01 7.668842e+00
      vertex   -2.820500e+00 -1.161534e+01 1.833684e+01
    endloop
  endfacet
  facet normal -1.000000e+00 0.000000e+00 0.000000e+00
    outer loop
      vertex   -2.820500e+00 -1.161534e+01 1.833684e+01
      vertex   -2.820500e+00 -1.098034e+01 7.668842e+00
      vertex   -2.820500e+00 -1.161534e+01 7.668842e+00
    endloop
  endfacet
  facet normal 0.000000e+00 1.000000e+00 -3.330253e-16
    outer loop
      vertex   -2.185500e+00 -1.098034e+01 1.833684e+01
      vertex   -2.185500e+00 -1.098034e+01 7.668842e+00
      vertex   -2.820500e+00 -1.098034e+01 1.833684e+01
    endloop
  endfacet
  facet normal 0.000000e+00 1.000000e+00 -3.330253e-16
    outer loop
      vertex   -2.820500e+00 -1.098034e+01 1.833684e+01
      vertex   -2.185500e+00 -1.098034e+01 7.668842e+00
      vertex   -2.820500e+00 -1.098034e+01 7.668842e+00
    endloop
  endfacet
  facet normal 1.000000e+00 -0.000000e+00 0.000000e+00
    outer loop
      vertex   -2.185500e+00 -1.161534e+01 1.833684e+01
      vertex   -2.185500e+00 -1.161534e+01 7.668842e+00
      vertex   -2.185500e+00 -1.098034e+01 1.833684e+01
    endloop
  endfacet
  facet normal 1.000000e+00 0.000000e+00 0.000000e+00
    outer loop
      vertex   -2.185500e+00 -1.098034e+01 1.833684e+01
      vertex   -2.185500e+00 -1.161534e+01 7.668842e+00
      vertex   -2.185500e+00 -1.098034e+01 7.668842e+00
    endloop
  endfacet
  facet normal -0.000000e+00 0.000000e+00 1.000000e+00
    outer loop
      vertex   -2.566500e+00 -1.123434e+01 1.871784e+01
      vertex   -2.566500e+00 -1.136134e+01 1.871784e+01
      vertex   -2.439500e+00 -1.123434e+01 1.871784e+01
    endloop
  endfacet
  facet normal 0.000000e+00 0.000000e+00 1.000000e+00
    outer loop
      vertex   -2.439500e+00 -1.123434e+01 1.871784e+01
      vertex   -2.566500e+00 -1.136134e+01 1.871784e+01
      vertex   -2.439500e+00 -1.136134e+01 1.871784e+01
    endloop
  endfacet
  facet normal -0.000000e+00 -0.000000e+00 -1.000000e+00
    outer loop
      vertex   -2.439500e+00 -1.123434e+01 7.287842e+00
      vertex   -2.439500e+00 -1.136134e+01 7.287842e+00
      vertex   -2.566500e+00 -1.123434e+01 7.287842e+00
    endloop
  endfacet
  facet normal 0.000000e+00 0.000000e+00 -1.000000e+00
    outer loop
      vertex   -2.566500e+00 -1.123434e+01 7.287842e+00
      vertex   -2.439500e+00 -1.136134e+01 7.287842e+00
      vertex   -2.566500e+00 -1.136134e+01 7.287842e+00
    endloop
  endfacet
  facet normal -0.000000e+00 8.320503e-01 5.547002e-01
    outer loop
      vertex   -2.566500e+00 -1.123434e+01 1.871784e+01
      vertex   -2.439500e+00 -1.123434e+01 1.871784e+01
      vertex   -2.820500e+00 -1.098034e+01 1.833684e+01
    endloop
  endfacet
  facet normal -0.000000e+00 8.320503e-01 5.547002e-01
    outer loop
      vertex   -2.820500e+00 -1.098034e+01 1.833684e+01
      vertex   -2.439500e+00 -1.123434e+01 1.871784e+01
      vertex   -2.185500e+00 -1.098034e+01 1.833684e+01
    endloop
  endfacet
  facet normal 8.320503e-01 0.000000e+00 5.547002e-01
    outer loop
      vertex   -2.439500e+00 -1.123434e+01 1.871784e+01
      vertex   -2.439500e+00 -1.136134e+01 1.871784e+01
      vertex   -2.185500e+00 -1.098034e+01 1.833684e+01
    endloop
  endfacet
  facet normal 8.320503e-01 0.000000e+00 5.547002e-01
    outer loop
      vertex   -2.185500e+00 -1.098034e+01 1.833684e+01
      vertex   -2.439500e+00 -1.136134e+01 1.871784e+01
      vertex   -2.185500e+00 -1.161534e+01 1.833684e+01
    endloop
  endfacet
  facet normal -8.320503e-01 0.000000e+00 5.547002e-01
    outer loop
      vertex   -2.820500e+00 -1.098034e+01 1.833684e+01
      vertex   -2.820500e+00 -1.161534e+01 1.833684e+01
      vertex   -2.566500e+00 -1.123434e+01 1.871784e+01
    endloop
  endfacet
  facet normal -8.320503e-01 0.000000e+00 5.547002e-01
    outer loop
      vertex   -2.566500e+00 -1.123434e+01 1.871784e+01
      vertex   -2.820500e+00 -1.161534e+01 1.833684e+01
      vertex   -2.566500e+00 -1.136134e+01 1.871784e+01
    endloop
  endfacet
  facet normal 0.000000e+00 -8.320503e-01 5.547002e-01
    outer loop
      vertex   -2.439500e+00 -1.136134e+01 1.871784e+01
      vertex   -2.566500e+00 -1.136134e+01 1.871784e+01
      vertex   -2.185500e+00 -1.161534e+01 1.833684e+01
    endloop
  endfacet
  facet normal 0.000000e+00 -8.320503e-01 5.547002e-01
    outer loop
      vertex   -2.185500e+00 -1.161534e+01 1.833684e+01
      vertex   -2.566500e+00 -1.136134e+01 1.871784e+01
      vertex   -2.820500e+00 -1.161534e+01 1.833684e+01
    endloop
  endfacet
  facet normal -8.320503e-01 0.000000e+00 -5.547002e-01
    outer loop
      vertex   -2.820500e+00 -1.161534e+01 7.668842e+00
      vertex   -2.820500e+00 -1.098034e+01 7.668842e+00
      vertex   -2.566500e+00 -1.136134e+01 7.287842e+00
    endloop
  endfacet
  facet normal -8.320503e-01 0.000000e+00 -5.547002e-01
    outer loop
      vertex   -2.566500e+00 -1.136134e+01 7.287842e+00
      vertex   -2.820500e+00 -1.098034e+01 7.668842e+00
      vertex   -2.566500e+00 -1.123434e+01 7.287842e+00
    endloop
  endfacet
  facet normal 0.000000e+00 8.320503e-01 -5.547002e-01
    outer loop
      vertex   -2.820500e+00 -1.098034e+01 7.668842e+00
      vertex   -2.185500e+00 -1.098034e+01 7.668842e+00
      vertex   -2.566500e+00 -1.123434e+01 7.287842e+00
    endloop
  endfacet
  facet normal 0.000000e+00 8.320503e-01 -5.547002e-01
    outer loop
      vertex   -2.566500e+00 -1.123434e+01 7.287842e+00
      vertex   -2.185500e+00 -1.098034e+01 7.668842e+00
      vertex   -2.439500e+00 -1.123434e+01 7.287842e+00
    endloop
  endfacet
  facet normal 0.000000e+00 -8.320503e-01 -5.547002e-01
    outer loop
      vertex   -2.566500e+00 -1.136134e+01 7.287842e+00
      vertex   -2.439500e+00 -1.136134e+01 7.287842e+00
      vertex   -2.820500e+00 -1.161534e+01 7.668842e+00
    endloop
  endfacet
  facet normal 0.000000e+00 -8.320503e-01 -5.547002e-01
    outer loop
      vertex   -2.820500e+00 -1.161534e+01 7.668842e+00
      vertex   -2.439500e+00 -1.136134e+01 7.287842e+00
      vertex   -2.185500e+00 -1.161534e+01 7.668842e+00
    endloop
  endfacet
  facet normal 8.320503e-01 0.000000e+00 -5.547002e-01
    outer loop
      vertex   -2.185500e+00 -1.098034e+01 7.668842e+00
      vertex   -2.185500e+00 -1.161534e+01 7.668842e+00
      vertex   -2.439500e+00 -1.123434e+01 7.287842e+00
    endloop
  endfacet
  facet normal 8.320503e-01 0.000000e+00 -5.547002e-01
    outer loop
      vertex   -2.439500e+00 -1.123434e+01 7.287842e+00
      vertex   -2.185500e+00 -1.161534e+01 7.668842e+00
      vertex   -2.439500e+00 -1.136134e+01 7.287842e+00
    endloop
  endfacet
endsolid
