solid ASCII
  facet normal -0.000000e+00 0.000000e+00 1.000000e+00
    outer loop
      vertex   1.197800e+01 -1.205984e+01 1.617784e+01
      vertex   1.197800e+01 -1.256784e+01 1.617784e+01
      vertex   1.350200e+01 -1.205984e+01 1.617784e+01
    endloop
  endfacet
  facet normal 0.000000e+00 0.000000e+00 1.000000e+00
    outer loop
      vertex   1.350200e+01 -1.205984e+01 1.617784e+01
      vertex   1.197800e+01 -1.256784e+01 1.617784e+01
      vertex   1.350200e+01 -1.256784e+01 1.617784e+01
    endloop
  endfacet
  facet normal -7.071068e-01 -2.472587e-15 7.071068e-01
    outer loop
      vertex   1.197800e+01 -1.205984e+01 1.617784e+01
      vertex   1.172400e+01 -1.205984e+01 1.592384e+01
      vertex   1.197800e+01 -1.256784e+01 1.617784e+01
    endloop
  endfacet
  facet normal -7.071068e-01 -9.886696e-15 7.071068e-01
    outer loop
      vertex   1.197800e+01 -1.256784e+01 1.617784e+01
      vertex   1.172400e+01 -1.205984e+01 1.592384e+01
      vertex   1.147000e+01 -1.205984e+01 1.566984e+01
    endloop
  endfacet
  facet normal -7.071068e-01 0.000000e+00 7.071068e-01
    outer loop
      vertex   1.147000e+01 -1.205984e+01 1.566984e+01
      vertex   1.172400e+01 -1.205984e+01 1.592384e+01
      vertex   1.172400e+01 -1.053584e+01 1.592384e+01
    endloop
  endfacet
  facet normal -7.071068e-01 -8.241955e-16 7.071068e-01
    outer loop
      vertex   1.147000e+01 -1.205984e+01 1.566984e+01
      vertex   1.172400e+01 -1.053584e+01 1.592384e+01
      vertex   1.147000e+01 -1.053584e+01 1.566984e+01
    endloop
  endfacet
  facet normal -7.071068e-01 4.867296e-15 7.071068e-01
    outer loop
      vertex   1.147000e+01 -1.053584e+01 1.566984e+01
      vertex   1.172400e+01 -1.053584e+01 1.592384e+01
      vertex   1.197800e+01 -1.002784e+01 1.617784e+01
    endloop
  endfacet
  facet normal -7.071068e-01 0.000000e+00 7.071068e-01
    outer loop
      vertex   1.197800e+01 -1.002784e+01 1.617784e+01
      vertex   1.172400e+01 -1.053584e+01 1.592384e+01
      vertex   1.197800e+01 -1.053584e+01 1.617784e+01
    endloop
  endfacet
  facet normal 7.071068e-01 1.648391e-15 7.071068e-01
    outer loop
      vertex   1.375600e+01 -1.205984e+01 1.592384e+01
      vertex   1.401000e+01 -1.053584e+01 1.566984e+01
      vertex   1.375600e+01 -1.053584e+01 1.592384e+01
    endloop
  endfacet
  facet normal 7.071068e-01 -1.977339e-14 7.071068e-01
    outer loop
      vertex   1.375600e+01 -1.053584e+01 1.592384e+01
      vertex   1.401000e+01 -1.053584e+01 1.566984e+01
      vertex   1.350200e+01 -1.002784e+01 1.617784e+01
    endloop
  endfacet
  facet normal 7.071068e-01 0.000000e+00 7.071068e-01
    outer loop
      vertex   1.375600e+01 -1.053584e+01 1.592384e+01
      vertex   1.350200e+01 -1.002784e+01 1.617784e+01
      vertex   1.350200e+01 -1.053584e+01 1.617784e+01
    endloop
  endfacet
  facet normal 7.071068e-01 0.000000e+00 7.071068e-01
    outer loop
      vertex   1.350200e+01 -1.205984e+01 1.617784e+01
      vertex   1.350200e+01 -1.256784e+01 1.617784e+01
      vertex   1.375600e+01 -1.205984e+01 1.592384e+01
    endloop
  endfacet
  facet normal 7.071068e-01 1.232034e-14 7.071068e-01
    outer loop
      vertex   1.375600e+01 -1.205984e+01 1.592384e+01
      vertex   1.350200e+01 -1.256784e+01 1.617784e+01
      vertex   1.401000e+01 -1.205984e+01 1.566984e+01
    endloop
  endfacet
  facet normal 7.071068e-01 0.000000e+00 7.071068e-01
    outer loop
      vertex   1.375600e+01 -1.205984e+01 1.592384e+01
      vertex   1.401000e+01 -1.205984e+01 1.566984e+01
      vertex   1.401000e+01 -1.053584e+01 1.566984e+01
    endloop
  endfacet
  facet normal -1.000000e+00 0.000000e+00 8.741914e-16
    outer loop
      vertex   1.147000e+01 -1.205984e+01 1.363784e+01
      vertex   1.147000e+01 -1.205984e+01 1.566984e+01
      vertex   1.147000e+01 -1.053584e+01 1.363784e+01
    endloop
  endfacet
  facet normal -1.000000e+00 -1.165588e-15 1.018947e-30
    outer loop
      vertex   1.147000e+01 -1.053584e+01 1.363784e+01
      vertex   1.147000e+01 -1.205984e+01 1.566984e+01
      vertex   1.147000e+01 -1.053584e+01 1.566984e+01
    endloop
  endfacet
  facet normal 0.000000e+00 -1.000000e+00 -0.000000e+00
    outer loop
      vertex   1.197800e+01 -1.256784e+01 1.617784e+01
      vertex   1.197800e+01 -1.256784e+01 1.363784e+01
      vertex   1.350200e+01 -1.256784e+01 1.617784e+01
    endloop
  endfacet
  facet normal 0.000000e+00 -1.000000e+00 -0.000000e+00
    outer loop
      vertex   1.350200e+01 -1.256784e+01 1.617784e+01
      vertex   1.197800e+01 -1.256784e+01 1.363784e+01
      vertex   1.350200e+01 -1.256784e+01 1.363784e+01
    endloop
  endfacet
  facet normal 1.000000e+00 0.000000e+00 -0.000000e+00
    outer loop
      vertex   1.401000e+01 -1.053584e+01 1.363784e+01
      vertex   1.401000e+01 -1.053584e+01 1.566984e+01
      vertex   1.401000e+01 -1.205984e+01 1.363784e+01
    endloop
  endfacet
  facet normal 1.000000e+00 0.000000e+00 0.000000e+00
    outer loop
      vertex   1.401000e+01 -1.205984e+01 1.363784e+01
      vertex   1.401000e+01 -1.053584e+01 1.566984e+01
      vertex   1.401000e+01 -1.205984e+01 1.566984e+01
    endloop
  endfacet
  facet normal 0.000000e+00 1.000000e+00 0.000000e+00
    outer loop
      vertex   1.197800e+01 -1.002784e+01 1.363784e+01
      vertex   1.197800e+01 -1.002784e+01 1.617784e+01
      vertex   1.350200e+01 -1.002784e+01 1.363784e+01
    endloop
  endfacet
  facet normal 0.000000e+00 1.000000e+00 -0.000000e+00
    outer loop
      vertex   1.350200e+01 -1.002784e+01 1.363784e+01
      vertex   1.197800e+01 -1.002784e+01 1.617784e+01
      vertex   1.350200e+01 -1.002784e+01 1.617784e+01
    endloop
  endfacet
  facet normal 0.000000e+00 -0.000000e+00 1.000000e+00
    outer loop
      vertex   1.350200e+01 -1.053584e+01 1.617784e+01
      vertex   1.350200e+01 -1.002784e+01 1.617784e+01
      vertex   1.197800e+01 -1.053584e+01 1.617784e+01
    endloop
  endfacet
  facet normal 0.000000e+00 0.000000e+00 1.000000e+00
    outer loop
      vertex   1.197800e+01 -1.053584e+01 1.617784e+01
      vertex   1.350200e+01 -1.002784e+01 1.617784e+01
      vertex   1.197800e+01 -1.002784e+01 1.617784e+01
    endloop
  endfacet
  facet normal 0.000000e+00 0.000000e+00 -1.000000e+00
    outer loop
      vertex   1.197800e+01 -1.256784e+01 1.363784e+01
      vertex   1.242250e+01 -1.161534e+01 1.363784e+01
      vertex   1.350200e+01 -1.256784e+01 1.363784e+01
    endloop
  endfacet
  facet normal 0.000000e+00 0.000000e+00 -1.000000e+00
    outer loop
      vertex   1.350200e+01 -1.256784e+01 1.363784e+01
      vertex   1.242250e+01 -1.161534e+01 1.363784e+01
      vertex   1.305750e+01 -1.161534e+01 1.363784e+01
    endloop
  endfacet
  facet normal 0.000000e+00 0.000000e+00 -1.000000e+00
    outer loop
      vertex   1.350200e+01 -1.256784e+01 1.363784e+01
      vertex   1.305750e+01 -1.161534e+01 1.363784e+01
      vertex   1.401000e+01 -1.205984e+01 1.363784e+01
    endloop
  endfacet
  facet normal 0.000000e+00 0.000000e+00 -1.000000e+00
    outer loop
      vertex   1.401000e+01 -1.205984e+01 1.363784e+01
      vertex   1.305750e+01 -1.161534e+01 1.363784e+01
      vertex   1.305750e+01 -1.098034e+01 1.363784e+01
    endloop
  endfacet
  facet normal 0.000000e+00 0.000000e+00 -1.000000e+00
    outer loop
      vertex   1.401000e+01 -1.205984e+01 1.363784e+01
      vertex   1.305750e+01 -1.098034e+01 1.363784e+01
      vertex   1.401000e+01 -1.053584e+01 1.363784e+01
    endloop
  endfacet
  facet normal -0.000000e+00 0.000000e+00 -1.000000e+00
    outer loop
      vertex   1.401000e+01 -1.053584e+01 1.363784e+01
      vertex   1.305750e+01 -1.098034e+01 1.363784e+01
      vertex   1.350200e+01 -1.002784e+01 1.363784e+01
    endloop
  endfacet
  facet normal 0.000000e+00 0.000000e+00 -1.000000e+00
    outer loop
      vertex   1.350200e+01 -1.002784e+01 1.363784e+01
      vertex   1.305750e+01 -1.098034e+01 1.363784e+01
      vertex   1.242250e+01 -1.098034e+01 1.363784e+01
    endloop
  endfacet
  facet normal -0.000000e+00 0.000000e+00 -1.000000e+00
    outer loop
      vertex   1.350200e+01 -1.002784e+01 1.363784e+01
      vertex   1.242250e+01 -1.098034e+01 1.363784e+01
      vertex   1.197800e+01 -1.002784e+01 1.363784e+01
    endloop
  endfacet
  facet normal 0.000000e+00 -0.000000e+00 -1.000000e+00
    outer loop
      vertex   1.197800e+01 -1.002784e+01 1.363784e+01
      vertex   1.242250e+01 -1.098034e+01 1.363784e+01
      vertex   1.147000e+01 -1.053584e+01 1.363784e+01
    endloop
  endfacet
  facet normal 0.000000e+00 0.000000e+00 -1.000000e+00
    outer loop
      vertex   1.147000e+01 -1.053584e+01 1.363784e+01
      vertex   1.242250e+01 -1.098034e+01 1.363784e+01
      vertex   1.242250e+01 -1.161534e+01 1.363784e+01
    endloop
  endfacet
  facet normal 0.000000e+00 0.000000e+00 -1.000000e+00
    outer loop
      vertex   1.147000e+01 -1.053584e+01 1.363784e+01
      vertex   1.242250e+01 -1.161534e+01 1.363784e+01
      vertex   1.147000e+01 -1.205984e+01 1.363784e+01
    endloop
  endfacet
  facet normal 0.000000e+00 0.000000e+00 -1.000000e+00
    outer loop
      vertex   1.147000e+01 -1.205984e+01 1.363784e+01
      vertex   1.242250e+01 -1.161534e+01 1.363784e+01
      vertex   1.197800e+01 -1.256784e+01 1.363784e+01
    endloop
  endfacet
  facet normal -7.071068e-01 7.071068e-01 -6.181466e-16
    outer loop
      vertex   1.147000e+01 -1.053584e+01 1.363784e+01
      vertex   1.147000e+01 -1.053584e+01 1.566984e+01
      vertex   1.197800e+01 -1.002784e+01 1.363784e+01
    endloop
  endfacet
  facet normal -7.071068e-01 7.071068e-01 0.000000e+00
    outer loop
      vertex   1.197800e+01 -1.002784e+01 1.363784e+01
      vertex   1.147000e+01 -1.053584e+01 1.566984e+01
      vertex   1.197800e+01 -1.002784e+01 1.617784e+01
    endloop
  endfacet
  facet normal -7.071068e-01 -7.071068e-01 1.236293e-15
    outer loop
      vertex   1.147000e+01 -1.205984e+01 1.363784e+01
      vertex   1.197800e+01 -1.256784e+01 1.363784e+01
      vertex   1.147000e+01 -1.205984e+01 1.566984e+01
    endloop
  endfacet
  facet normal -7.071068e-01 -7.071068e-01 4.867296e-16
    outer loop
      vertex   1.147000e+01 -1.205984e+01 1.566984e+01
      vertex   1.197800e+01 -1.256784e+01 1.363784e+01
      vertex   1.197800e+01 -1.256784e+01 1.617784e+01
    endloop
  endfacet
  facet normal 7.071068e-01 -7.071068e-01 1.854440e-15
    outer loop
      vertex   1.401000e+01 -1.205984e+01 1.363784e+01
      vertex   1.401000e+01 -1.205984e+01 1.566984e+01
      vertex   1.350200e+01 -1.256784e+01 1.363784e+01
    endloop
  endfacet
  facet normal 7.071068e-01 -7.071068e-01 0.000000e+00
    outer loop
      vertex   1.350200e+01 -1.256784e+01 1.363784e+01
      vertex   1.401000e+01 -1.205984e+01 1.566984e+01
      vertex   1.350200e+01 -1.256784e+01 1.617784e+01
    endloop
  endfacet
  facet normal 7.071068e-01 7.071068e-01 -0.000000e+00
    outer loop
      vertex   1.401000e+01 -1.053584e+01 1.363784e+01
      vertex   1.350200e+01 -1.002784e+01 1.363784e+01
      vertex   1.401000e+01 -1.053584e+01 1.566984e+01
    endloop
  endfacet
  facet normal 7.071068e-01 7.071068e-01 0.000000e+00
    outer loop
      vertex   1.401000e+01 -1.053584e+01 1.566984e+01
      vertex   1.350200e+01 -1.002784e+01 1.363784e+01
      vertex   1.350200e+01 -1.002784e+01 1.617784e+01
    endloop
  endfacet
  facet normal -2.331177e-15 1.000000e+00 2.331177e-15
    outer loop
      vertex   1.197800e+01 -1.205984e+01 1.617784e+01
      vertex   1.350200e+01 -1.205984e+01 1.617784e+01
      vertex   1.172400e+01 -1.205984e+01 1.592384e+01
    endloop
  endfacet
  facet normal -1.748383e-15 1.000000e+00 -1.748383e-15
    outer loop
      vertex   1.172400e+01 -1.205984e+01 1.592384e+01
      vertex   1.350200e+01 -1.205984e+01 1.617784e+01
      vertex   1.375600e+01 -1.205984e+01 1.592384e+01
    endloop
  endfacet
  facet normal 0.000000e+00 -1.000000e+00 0.000000e+00
    outer loop
      vertex   1.172400e+01 -1.053584e+01 1.592384e+01
      vertex   1.375600e+01 -1.053584e+01 1.592384e+01
      vertex   1.197800e+01 -1.053584e+01 1.617784e+01
    endloop
  endfacet
  facet normal 0.000000e+00 -1.000000e+00 0.000000e+00
    outer loop
      vertex   1.197800e+01 -1.053584e+01 1.617784e+01
      vertex   1.375600e+01 -1.053584e+01 1.592384e+01
      vertex   1.350200e+01 -1.053584e+01 1.617784e+01
    endloop
  endfacet
  facet normal 1.748383e-15 2.747459e-15 1.000000e+00
    outer loop
      vertex   1.375600e+01 -1.053584e+01 1.592384e+01
      vertex   1.172400e+01 -1.053584e+01 1.592384e+01
      vertex   1.242250e+01 -1.098034e+01 1.592384e+01
    endloop
  endfacet
  facet normal 0.000000e+00 0.000000e+00 1.000000e+00
    outer loop
      vertex   1.242250e+01 -1.098034e+01 1.592384e+01
      vertex   1.172400e+01 -1.053584e+01 1.592384e+01
      vertex   1.172400e+01 -1.205984e+01 1.592384e+01
    endloop
  endfacet
  facet normal 0.000000e+00 0.000000e+00 1.000000e+00
    outer loop
      vertex   1.242250e+01 -1.098034e+01 1.592384e+01
      vertex   1.172400e+01 -1.205984e+01 1.592384e+01
      vertex   1.242250e+01 -1.161534e+01 1.592384e+01
    endloop
  endfacet
  facet normal 0.000000e+00 0.000000e+00 1.000000e+00
    outer loop
      vertex   1.242250e+01 -1.161534e+01 1.592384e+01
      vertex   1.172400e+01 -1.205984e+01 1.592384e+01
      vertex   1.375600e+01 -1.205984e+01 1.592384e+01
    endloop
  endfacet
  facet normal -0.000000e+00 0.000000e+00 1.000000e+00
    outer loop
      vertex   1.242250e+01 -1.161534e+01 1.592384e+01
      vertex   1.375600e+01 -1.205984e+01 1.592384e+01
      vertex   1.305750e+01 -1.161534e+01 1.592384e+01
    endloop
  endfacet
  facet normal 1.483476e-15 2.331177e-15 1.000000e+00
    outer loop
      vertex   1.305750e+01 -1.161534e+01 1.592384e+01
      vertex   1.375600e+01 -1.205984e+01 1.592384e+01
      vertex   1.375600e+01 -1.053584e+01 1.592384e+01
    endloop
  endfacet
  facet normal 5.086204e-15 -0.000000e+00 1.000000e+00
    outer loop
      vertex   1.305750e+01 -1.161534e+01 1.592384e+01
      vertex   1.375600e+01 -1.053584e+01 1.592384e+01
      vertex   1.305750e+01 -1.098034e+01 1.592384e+01
    endloop
  endfacet
  facet normal -4.471723e-29 7.992607e-15 1.000000e+00
    outer loop
      vertex   1.305750e+01 -1.098034e+01 1.592384e+01
      vertex   1.375600e+01 -1.053584e+01 1.592384e+01
      vertex   1.242250e+01 -1.098034e+01 1.592384e+01
    endloop
  endfacet
  facet normal 0.000000e+00 1.000000e+00 0.000000e+00
    outer loop
      vertex   1.242250e+01 -1.161534e+01 1.363784e+01
      vertex   1.242250e+01 -1.161534e+01 1.592384e+01
      vertex   1.305750e+01 -1.161534e+01 1.363784e+01
    endloop
  endfacet
  facet normal 0.000000e+00 1.000000e+00 -0.000000e+00
    outer loop
      vertex   1.305750e+01 -1.161534e+01 1.363784e+01
      vertex   1.242250e+01 -1.161534e+01 1.592384e+01
      vertex   1.305750e+01 -1.161534e+01 1.592384e+01
    endloop
  endfacet
  facet normal 1.000000e+00 0.000000e+00 -0.000000e+00
    outer loop
      vertex   1.242250e+01 -1.098034e+01 1.363784e+01
      vertex   1.242250e+01 -1.098034e+01 1.592384e+01
      vertex   1.242250e+01 -1.161534e+01 1.363784e+01
    endloop
  endfacet
  facet normal 1.000000e+00 0.000000e+00 0.000000e+00
    outer loop
      vertex   1.242250e+01 -1.161534e+01 1.363784e+01
      vertex   1.242250e+01 -1.098034e+01 1.592384e+01
      vertex   1.242250e+01 -1.161534e+01 1.592384e+01
    endloop
  endfacet
  facet normal 0.000000e+00 -1.000000e+00 1.554118e-15
    outer loop
      vertex   1.305750e+01 -1.098034e+01 1.363784e+01
      vertex   1.305750e+01 -1.098034e+01 1.592384e+01
      vertex   1.242250e+01 -1.098034e+01 1.363784e+01
    endloop
  endfacet
  facet normal 5.594825e-15 -1.000000e+00 0.000000e+00
    outer loop
      vertex   1.242250e+01 -1.098034e+01 1.363784e+01
      vertex   1.305750e+01 -1.098034e+01 1.592384e+01
      vertex   1.242250e+01 -1.098034e+01 1.592384e+01
    endloop
  endfacet
  facet normal -1.000000e+00 0.000000e+00 0.000000e+00
    outer loop
      vertex   1.305750e+01 -1.161534e+01 1.363784e+01
      vertex   1.305750e+01 -1.161534e+01 1.592384e+01
      vertex   1.305750e+01 -1.098034e+01 1.363784e+01
    endloop
  endfacet
  facet normal -1.000000e+00 0.000000e+00 0.000000e+00
    outer loop
      vertex   1.305750e+01 -1.098034e+01 1.363784e+01
      vertex   1.305750e+01 -1.161534e+01 1.592384e+01
      vertex   1.305750e+01 -1.098034e+01 1.592384e+01
    endloop
  endfacet
  facet normal 0.000000e+00 -1.000000e+00 1.665126e-16
    outer loop
      vertex   1.242250e+01 -1.161534e+01 1.833684e+01
      vertex   1.242250e+01 -1.161534e+01 7.668842e+00
      vertex   1.305750e+01 -1.161534e+01 1.833684e+01
    endloop
  endfacet
  facet normal 2.797412e-15 -1.000000e+00 -4.658045e-31
    outer loop
      vertex   1.305750e+01 -1.161534e+01 1.833684e+01
      vertex   1.242250e+01 -1.161534e+01 7.668842e+00
      vertex   1.305750e+01 -1.161534e+01 7.668842e+00
    endloop
  endfacet
  facet normal -1.000000e+00 0.000000e+00 1.665126e-16
    outer loop
      vertex   1.242250e+01 -1.098034e+01 1.833684e+01
      vertex   1.242250e+01 -1.098034e+01 7.668842e+00
      vertex   1.242250e+01 -1.161534e+01 1.833684e+01
    endloop
  endfacet
  facet normal -1.000000e+00 0.000000e+00 1.665126e-16
    outer loop
      vertex   1.242250e+01 -1.161534e+01 1.833684e+01
      vertex   1.242250e+01 -1.098034e+01 7.668842e+00
      vertex   1.242250e+01 -1.161534e+01 7.668842e+00
    endloop
  endfacet
  facet normal -5.594825e-15 1.000000e+00 -3.330253e-16
    outer loop
      vertex   1.305750e+01 -1.098034e+01 1.833684e+01
      vertex   1.305750e+01 -1.098034e+01 7.668842e+00
      vertex   1.242250e+01 -1.098034e+01 1.833684e+01
    endloop
  endfacet
  facet normal 0.000000e+00 1.000000e+00 0.000000e+00
    outer loop
      vertex   1.242250e+01 -1.098034e+01 1.833684e+01
      vertex   1.305750e+01 -1.098034e+01 7.668842e+00
      vertex   1.242250e+01 -1.098034e+01 7.668842e+00
    endloop
  endfacet
  facet normal 1.000000e+00 2.797412e-15 -1.665126e-16
    outer loop
      vertex   1.305750e+01 -1.161534e+01 1.833684e+01
      vertex   1.305750e+01 -1.161534e+01 7.668842e+00
      vertex   1.305750e+01 -1.098034e+01 1.833684e+01
    endloop
  endfacet
  facet normal 1.000000e+00 0.000000e+00 0.000000e+00
    outer loop
      vertex   1.305750e+01 -1.098034e+01 1.833684e+01
      vertex   1.305750e+01 -1.161534e+01 7.668842e+00
      vertex   1.305750e+01 -1.098034e+01 7.668842e+00
    endloop
  endfacet
  facet normal -0.000000e+00 0.000000e+00 1.000000e+00
    outer loop
      vertex   1.267650e+01 -1.123434e+01 1.871784e+01
      vertex   1.267650e+01 -1.136134e+01 1.871784e+01
      vertex   1.280350e+01 -1.123434e+01 1.871784e+01
    endloop
  endfacet
  facet normal 0.000000e+00 0.000000e+00 1.000000e+00
    outer loop
      vertex   1.280350e+01 -1.123434e+01 1.871784e+01
      vertex   1.267650e+01 -1.136134e+01 1.871784e+01
      vertex   1.280350e+01 -1.136134e+01 1.871784e+01
    endloop
  endfacet
  facet normal -0.000000e+00 -0.000000e+00 -1.000000e+00
    outer loop
      vertex   1.280350e+01 -1.123434e+01 7.287842e+00
      vertex   1.280350e+01 -1.136134e+01 7.287842e+00
      vertex   1.267650e+01 -1.123434e+01 7.287842e+00
    endloop
  endfacet
  facet normal 0.000000e+00 0.000000e+00 -1.000000e+00
    outer loop
      vertex   1.267650e+01 -1.123434e+01 7.287842e+00
      vertex   1.280350e+01 -1.136134e+01 7.287842e+00
      vertex   1.267650e+01 -1.136134e+01 7.287842e+00
    endloop
  endfacet
  facet normal -0.000000e+00 8.320503e-01 5.547002e-01
    outer loop
      vertex   1.267650e+01 -1.123434e+01 1.871784e+01
      vertex   1.280350e+01 -1.123434e+01 1.871784e+01
      vertex   1.242250e+01 -1.098034e+01 1.833684e+01
    endloop
  endfacet
  facet normal -4.655176e-15 8.320503e-01 5.547002e-01
    outer loop
      vertex   1.242250e+01 -1.098034e+01 1.833684e+01
      vertex   1.280350e+01 -1.123434e+01 1.871784e+01
      vertex   1.305750e+01 -1.098034e+01 1.833684e+01
    endloop
  endfacet
  facet normal 8.320503e-01 0.000000e+00 5.547002e-01
    outer loop
      vertex   1.280350e+01 -1.123434e+01 1.871784e+01
      vertex   1.280350e+01 -1.136134e+01 1.871784e+01
      vertex   1.305750e+01 -1.098034e+01 1.833684e+01
    endloop
  endfacet
  facet normal 8.320503e-01 2.327588e-15 5.547002e-01
    outer loop
      vertex   1.305750e+01 -1.098034e+01 1.833684e+01
      vertex   1.280350e+01 -1.136134e+01 1.871784e+01
      vertex   1.305750e+01 -1.161534e+01 1.833684e+01
    endloop
  endfacet
  facet normal -8.320503e-01 0.000000e+00 5.547002e-01
    outer loop
      vertex   1.242250e+01 -1.098034e+01 1.833684e+01
      vertex   1.242250e+01 -1.161534e+01 1.833684e+01
      vertex   1.267650e+01 -1.123434e+01 1.871784e+01
    endloop
  endfacet
  facet normal -8.320503e-01 0.000000e+00 5.547002e-01
    outer loop
      vertex   1.267650e+01 -1.123434e+01 1.871784e+01
      vertex   1.242250e+01 -1.161534e+01 1.833684e+01
      vertex   1.267650e+01 -1.136134e+01 1.871784e+01
    endloop
  endfacet
  facet normal 0.000000e+00 -8.320503e-01 5.547002e-01
    outer loop
      vertex   1.280350e+01 -1.136134e+01 1.871784e+01
      vertex   1.267650e+01 -1.136134e+01 1.871784e+01
      vertex   1.305750e+01 -1.161534e+01 1.833684e+01
    endloop
  endfacet
  facet normal 0.000000e+00 -8.320503e-01 5.547002e-01
    outer loop
      vertex   1.305750e+01 -1.161534e+01 1.833684e+01
      vertex   1.267650e+01 -1.136134e+01 1.871784e+01
      vertex   1.242250e+01 -1.161534e+01 1.833684e+01
    endloop
  endfacet
  facet normal -8.320503e-01 0.000000e+00 -5.547002e-01
    outer loop
      vertex   1.242250e+01 -1.161534e+01 7.668842e+00
      vertex   1.242250e+01 -1.098034e+01 7.668842e+00
      vertex   1.267650e+01 -1.136134e+01 7.287842e+00
    endloop
  endfacet
  facet normal -8.320503e-01 0.000000e+00 -5.547002e-01
    outer loop
      vertex   1.267650e+01 -1.136134e+01 7.287842e+00
      vertex   1.242250e+01 -1.098034e+01 7.668842e+00
      vertex   1.267650e+01 -1.123434e+01 7.287842e+00
    endloop
  endfacet
  facet normal 0.000000e+00 8.320503e-01 -5.547002e-01
    outer loop
      vertex   1.242250e+01 -1.098034e+01 7.668842e+00
      vertex   1.305750e+01 -1.098034e+01 7.668842e+00
      vertex   1.267650e+01 -1.123434e+01 7.287842e+00
    endloop
  endfacet
  facet normal 0.000000e+00 8.320503e-01 -5.547002e-01
    outer loop
      vertex   1.267650e+01 -1.123434e+01 7.287842e+00
      vertex   1.305750e+01 -1.098034e+01 7.668842e+00
      vertex   1.280350e+01 -1.123434e+01 7.287842e+00
    endloop
  endfacet
  facet normal 0.000000e+00 -8.320503e-01 -5.547002e-01
    outer loop
      vertex   1.267650e+01 -1.136134e+01 7.287842e+00
      vertex   1.280350e+01 -1.136134e+01 7.287842e+00
      vertex   1.242250e+01 -1.161534e+01 7.668842e+00
    endloop
  endfacet
  facet normal 2.327588e-15 -8.320503e-01 -5.547002e-01
    outer loop
      vertex   1.242250e+01 -1.161534e+01 7.668842e+00
      vertex   1.280350e+01 -1.136134e+01 7.287842e+00
      vertex   1.305750e+01 -1.161534e+01 7.668842e+00
    endloop
  endfacet
  facet normal 8.320503e-01 0.000000e+00 -5.547002e-01
    outer loop
      vertex   1.305750e+01 -1.098034e+01 7.668842e+00
      vertex   1.305750e+01 -1.161534e+01 7.668842e+00
      vertex   1.280350e+01 -1.123434e+01 7.287842e+00
    endloop
  endfacet
  facet normal 8.320503e-01 0.000000e+00 -5.547002e-01
    outer loop
      vertex   1.280350e+01 -1.123434e+01 7.287842e+00
      vertex   1.305750e+01 -1.161534e+01 7.668842e+00
      vertex   1.280350e+01 -1.136134e+01 7.287842e+00
    endloop
  endfacet
  facet normal 2.331177e-15 0.000000e+00 1.000000e+00
    outer loop
      vertex   9.438000e+00 -1.205984e+01 1.617784e+01
      vertex   9.438000e+00 -1.256784e+01 1.617784e+01
      vertex   1.096200e+01 -1.205984e+01 1.617784e+01
    endloop
  endfacet
  facet normal 2.331177e-15 1.630316e-29 1.000000e+00
    outer loop
      vertex   1.096200e+01 -1.205984e+01 1.617784e+01
      vertex   9.438000e+00 -1.256784e+01 1.617784e+01
      vertex   1.096200e+01 -1.256784e+01 1.617784e+01
    endloop
  endfacet
  facet normal -7.071068e-01 0.000000e+00 7.071068e-01
    outer loop
      vertex   9.438000e+00 -1.205984e+01 1.617784e+01
      vertex   9.184000e+00 -1.205984e+01 1.592384e+01
      vertex   9.438000e+00 -1.256784e+01 1.617784e+01
    endloop
  endfacet
  facet normal -7.071068e-01 -2.585751e-15 7.071068e-01
    outer loop
      vertex   9.438000e+00 -1.256784e+01 1.617784e+01
      vertex   9.184000e+00 -1.205984e+01 1.592384e+01
      vertex   8.930000e+00 -1.205984e+01 1.566984e+01
    endloop
  endfacet
  facet normal -7.071068e-01 -8.112161e-16 7.071068e-01
    outer loop
      vertex   8.930000e+00 -1.205984e+01 1.566984e+01
      vertex   9.184000e+00 -1.205984e+01 1.592384e+01
      vertex   9.184000e+00 -1.053584e+01 1.592384e+01
    endloop
  endfacet
  facet normal -7.071068e-01 -8.241955e-16 7.071068e-01
    outer loop
      vertex   8.930000e+00 -1.205984e+01 1.566984e+01
      vertex   9.184000e+00 -1.053584e+01 1.592384e+01
      vertex   8.930000e+00 -1.053584e+01 1.566984e+01
    endloop
  endfacet
  facet normal -7.071068e-01 4.867296e-15 7.071068e-01
    outer loop
      vertex   8.930000e+00 -1.053584e+01 1.566984e+01
      vertex   9.184000e+00 -1.053584e+01 1.592384e+01
      vertex   9.438000e+00 -1.002784e+01 1.617784e+01
    endloop
  endfacet
  facet normal -7.071068e-01 0.000000e+00 7.071068e-01
    outer loop
      vertex   9.438000e+00 -1.002784e+01 1.617784e+01
      vertex   9.184000e+00 -1.053584e+01 1.592384e+01
      vertex   9.438000e+00 -1.053584e+01 1.617784e+01
    endloop
  endfacet
  facet normal 7.071068e-01 8.241955e-16 7.071068e-01
    outer loop
      vertex   1.121600e+01 -1.205984e+01 1.592384e+01
      vertex   1.147000e+01 -1.053584e+01 1.566984e+01
      vertex   1.121600e+01 -1.053584e+01 1.592384e+01
    endloop
  endfacet
  facet normal 7.071068e-01 2.433648e-15 7.071068e-01
    outer loop
      vertex   1.121600e+01 -1.053584e+01 1.592384e+01
      vertex   1.147000e+01 -1.053584e+01 1.566984e+01
      vertex   1.096200e+01 -1.002784e+01 1.617784e+01
    endloop
  endfacet
  facet normal 7.071068e-01 0.000000e+00 7.071068e-01
    outer loop
      vertex   1.121600e+01 -1.053584e+01 1.592384e+01
      vertex   1.096200e+01 -1.002784e+01 1.617784e+01
      vertex   1.096200e+01 -1.053584e+01 1.617784e+01
    endloop
  endfacet
  facet normal 7.071068e-01 4.945173e-15 7.071068e-01
    outer loop
      vertex   1.096200e+01 -1.205984e+01 1.617784e+01
      vertex   1.096200e+01 -1.256784e+01 1.617784e+01
      vertex   1.121600e+01 -1.205984e+01 1.592384e+01
    endloop
  endfacet
  facet normal 7.071068e-01 0.000000e+00 7.071068e-01
    outer loop
      vertex   1.121600e+01 -1.205984e+01 1.592384e+01
      vertex   1.096200e+01 -1.256784e+01 1.617784e+01
      vertex   1.147000e+01 -1.205984e+01 1.566984e+01
    endloop
  endfacet
  facet normal 7.071068e-01 8.365666e-16 7.071068e-01
    outer loop
      vertex   1.121600e+01 -1.205984e+01 1.592384e+01
      vertex   1.147000e+01 -1.205984e+01 1.566984e+01
      vertex   1.147000e+01 -1.053584e+01 1.566984e+01
    endloop
  endfacet
  facet normal -1.000000e+00 -1.165588e-15 2.037895e-30
    outer loop
      vertex   8.930000e+00 -1.205984e+01 1.363784e+01
      vertex   8.930000e+00 -1.205984e+01 1.566984e+01
      vertex   8.930000e+00 -1.053584e+01 1.363784e+01
    endloop
  endfacet
  facet normal -1.000000e+00 -1.165588e-15 0.000000e+00
    outer loop
      vertex   8.930000e+00 -1.053584e+01 1.363784e+01
      vertex   8.930000e+00 -1.205984e+01 1.566984e+01
      vertex   8.930000e+00 -1.053584e+01 1.566984e+01
    endloop
  endfacet
  facet normal 1.165588e-15 -1.000000e+00 0.000000e+00
    outer loop
      vertex   9.438000e+00 -1.256784e+01 1.617784e+01
      vertex   9.438000e+00 -1.256784e+01 1.363784e+01
      vertex   1.096200e+01 -1.256784e+01 1.617784e+01
    endloop
  endfacet
  facet normal 0.000000e+00 -1.000000e+00 6.993531e-16
    outer loop
      vertex   1.096200e+01 -1.256784e+01 1.617784e+01
      vertex   9.438000e+00 -1.256784e+01 1.363784e+01
      vertex   1.096200e+01 -1.256784e+01 1.363784e+01
    endloop
  endfacet
  facet normal 1.000000e+00 0.000000e+00 -0.000000e+00
    outer loop
      vertex   1.147000e+01 -1.053584e+01 1.363784e+01
      vertex   1.147000e+01 -1.053584e+01 1.566984e+01
      vertex   1.147000e+01 -1.205984e+01 1.363784e+01
    endloop
  endfacet
  facet normal 1.000000e+00 1.165588e-15 -8.741914e-16
    outer loop
      vertex   1.147000e+01 -1.205984e+01 1.363784e+01
      vertex   1.147000e+01 -1.053584e+01 1.566984e+01
      vertex   1.147000e+01 -1.205984e+01 1.566984e+01
    endloop
  endfacet
  facet normal 0.000000e+00 1.000000e+00 0.000000e+00
    outer loop
      vertex   9.438000e+00 -1.002784e+01 1.363784e+01
      vertex   9.438000e+00 -1.002784e+01 1.617784e+01
      vertex   1.096200e+01 -1.002784e+01 1.363784e+01
    endloop
  endfacet
  facet normal -1.165588e-15 1.000000e+00 -6.993531e-16
    outer loop
      vertex   1.096200e+01 -1.002784e+01 1.363784e+01
      vertex   9.438000e+00 -1.002784e+01 1.617784e+01
      vertex   1.096200e+01 -1.002784e+01 1.617784e+01
    endloop
  endfacet
  facet normal 0.000000e+00 -0.000000e+00 1.000000e+00
    outer loop
      vertex   1.096200e+01 -1.053584e+01 1.617784e+01
      vertex   1.096200e+01 -1.002784e+01 1.617784e+01
      vertex   9.438000e+00 -1.053584e+01 1.617784e+01
    endloop
  endfacet
  facet normal 0.000000e+00 0.000000e+00 1.000000e+00
    outer loop
      vertex   9.438000e+00 -1.053584e+01 1.617784e+01
      vertex   1.096200e+01 -1.002784e+01 1.617784e+01
      vertex   9.438000e+00 -1.002784e+01 1.617784e+01
    endloop
  endfacet
  facet normal 0.000000e+00 0.000000e+00 -1.000000e+00
    outer loop
      vertex   9.438000e+00 -1.256784e+01 1.363784e+01
      vertex   9.882500e+00 -1.161534e+01 1.363784e+01
      vertex   1.096200e+01 -1.256784e+01 1.363784e+01
    endloop
  endfacet
  facet normal 0.000000e+00 0.000000e+00 -1.000000e+00
    outer loop
      vertex   1.096200e+01 -1.256784e+01 1.363784e+01
      vertex   9.882500e+00 -1.161534e+01 1.363784e+01
      vertex   1.051750e+01 -1.161534e+01 1.363784e+01
    endloop
  endfacet
  facet normal 0.000000e+00 0.000000e+00 -1.000000e+00
    outer loop
      vertex   1.096200e+01 -1.256784e+01 1.363784e+01
      vertex   1.051750e+01 -1.161534e+01 1.363784e+01
      vertex   1.147000e+01 -1.205984e+01 1.363784e+01
    endloop
  endfacet
  facet normal 0.000000e+00 0.000000e+00 -1.000000e+00
    outer loop
      vertex   1.147000e+01 -1.205984e+01 1.363784e+01
      vertex   1.051750e+01 -1.161534e+01 1.363784e+01
      vertex   1.051750e+01 -1.098034e+01 1.363784e+01
    endloop
  endfacet
  facet normal 0.000000e+00 0.000000e+00 -1.000000e+00
    outer loop
      vertex   1.147000e+01 -1.205984e+01 1.363784e+01
      vertex   1.051750e+01 -1.098034e+01 1.363784e+01
      vertex   1.147000e+01 -1.053584e+01 1.363784e+01
    endloop
  endfacet
  facet normal -0.000000e+00 0.000000e+00 -1.000000e+00
    outer loop
      vertex   1.147000e+01 -1.053584e+01 1.363784e+01
      vertex   1.051750e+01 -1.098034e+01 1.363784e+01
      vertex   1.096200e+01 -1.002784e+01 1.363784e+01
    endloop
  endfacet
  facet normal 0.000000e+00 0.000000e+00 -1.000000e+00
    outer loop
      vertex   1.096200e+01 -1.002784e+01 1.363784e+01
      vertex   1.051750e+01 -1.098034e+01 1.363784e+01
      vertex   9.882500e+00 -1.098034e+01 1.363784e+01
    endloop
  endfacet
  facet normal -0.000000e+00 0.000000e+00 -1.000000e+00
    outer loop
      vertex   1.096200e+01 -1.002784e+01 1.363784e+01
      vertex   9.882500e+00 -1.098034e+01 1.363784e+01
      vertex   9.438000e+00 -1.002784e+01 1.363784e+01
    endloop
  endfacet
  facet normal 0.000000e+00 -0.000000e+00 -1.000000e+00
    outer loop
      vertex   9.438000e+00 -1.002784e+01 1.363784e+01
      vertex   9.882500e+00 -1.098034e+01 1.363784e+01
      vertex   8.930000e+00 -1.053584e+01 1.363784e+01
    endloop
  endfacet
  facet normal 0.000000e+00 0.000000e+00 -1.000000e+00
    outer loop
      vertex   8.930000e+00 -1.053584e+01 1.363784e+01
      vertex   9.882500e+00 -1.098034e+01 1.363784e+01
      vertex   9.882500e+00 -1.161534e+01 1.363784e+01
    endloop
  endfacet
  facet normal 0.000000e+00 0.000000e+00 -1.000000e+00
    outer loop
      vertex   8.930000e+00 -1.053584e+01 1.363784e+01
      vertex   9.882500e+00 -1.161534e+01 1.363784e+01
      vertex   8.930000e+00 -1.205984e+01 1.363784e+01
    endloop
  endfacet
  facet normal 0.000000e+00 0.000000e+00 -1.000000e+00
    outer loop
      vertex   8.930000e+00 -1.205984e+01 1.363784e+01
      vertex   9.882500e+00 -1.161534e+01 1.363784e+01
      vertex   9.438000e+00 -1.256784e+01 1.363784e+01
    endloop
  endfacet
  facet normal -7.071068e-01 7.071068e-01 0.000000e+00
    outer loop
      vertex   8.930000e+00 -1.053584e+01 1.363784e+01
      vertex   8.930000e+00 -1.053584e+01 1.566984e+01
      vertex   9.438000e+00 -1.002784e+01 1.363784e+01
    endloop
  endfacet
  facet normal -7.071068e-01 7.071068e-01 0.000000e+00
    outer loop
      vertex   9.438000e+00 -1.002784e+01 1.363784e+01
      vertex   8.930000e+00 -1.053584e+01 1.566984e+01
      vertex   9.438000e+00 -1.002784e+01 1.617784e+01
    endloop
  endfacet
  facet normal -7.071068e-01 -7.071068e-01 1.236293e-15
    outer loop
      vertex   8.930000e+00 -1.205984e+01 1.363784e+01
      vertex   9.438000e+00 -1.256784e+01 1.363784e+01
      vertex   8.930000e+00 -1.205984e+01 1.566984e+01
    endloop
  endfacet
  facet normal -7.071068e-01 -7.071068e-01 0.000000e+00
    outer loop
      vertex   8.930000e+00 -1.205984e+01 1.566984e+01
      vertex   9.438000e+00 -1.256784e+01 1.363784e+01
      vertex   9.438000e+00 -1.256784e+01 1.617784e+01
    endloop
  endfacet
  facet normal 7.071068e-01 -7.071068e-01 -6.181466e-16
    outer loop
      vertex   1.147000e+01 -1.205984e+01 1.363784e+01
      vertex   1.147000e+01 -1.205984e+01 1.566984e+01
      vertex   1.096200e+01 -1.256784e+01 1.363784e+01
    endloop
  endfacet
  facet normal 7.071068e-01 -7.071068e-01 -4.945173e-16
    outer loop
      vertex   1.096200e+01 -1.256784e+01 1.363784e+01
      vertex   1.147000e+01 -1.205984e+01 1.566984e+01
      vertex   1.096200e+01 -1.256784e+01 1.617784e+01
    endloop
  endfacet
  facet normal 7.071068e-01 7.071068e-01 -0.000000e+00
    outer loop
      vertex   1.147000e+01 -1.053584e+01 1.363784e+01
      vertex   1.096200e+01 -1.002784e+01 1.363784e+01
      vertex   1.147000e+01 -1.053584e+01 1.566984e+01
    endloop
  endfacet
  facet normal 7.071068e-01 7.071068e-01 -4.867296e-16
    outer loop
      vertex   1.147000e+01 -1.053584e+01 1.566984e+01
      vertex   1.096200e+01 -1.002784e+01 1.363784e+01
      vertex   1.096200e+01 -1.002784e+01 1.617784e+01
    endloop
  endfacet
  facet normal -1.165588e-15 1.000000e+00 1.165588e-15
    outer loop
      vertex   9.438000e+00 -1.205984e+01 1.617784e+01
      vertex   1.096200e+01 -1.205984e+01 1.617784e+01
      vertex   9.184000e+00 -1.205984e+01 1.592384e+01
    endloop
  endfacet
  facet normal -8.741914e-16 1.000000e+00 -8.741914e-16
    outer loop
      vertex   9.184000e+00 -1.205984e+01 1.592384e+01
      vertex   1.096200e+01 -1.205984e+01 1.617784e+01
      vertex   1.121600e+01 -1.205984e+01 1.592384e+01
    endloop
  endfacet
  facet normal 0.000000e+00 -1.000000e+00 0.000000e+00
    outer loop
      vertex   9.184000e+00 -1.053584e+01 1.592384e+01
      vertex   1.121600e+01 -1.053584e+01 1.592384e+01
      vertex   9.438000e+00 -1.053584e+01 1.617784e+01
    endloop
  endfacet
  facet normal 0.000000e+00 -1.000000e+00 0.000000e+00
    outer loop
      vertex   9.438000e+00 -1.053584e+01 1.617784e+01
      vertex   1.121600e+01 -1.053584e+01 1.592384e+01
      vertex   1.096200e+01 -1.053584e+01 1.617784e+01
    endloop
  endfacet
  facet normal 0.000000e+00 0.000000e+00 1.000000e+00
    outer loop
      vertex   1.121600e+01 -1.053584e+01 1.592384e+01
      vertex   9.184000e+00 -1.053584e+01 1.592384e+01
      vertex   9.882500e+00 -1.098034e+01 1.592384e+01
    endloop
  endfacet
  facet normal 0.000000e+00 0.000000e+00 1.000000e+00
    outer loop
      vertex   9.882500e+00 -1.098034e+01 1.592384e+01
      vertex   9.184000e+00 -1.053584e+01 1.592384e+01
      vertex   9.184000e+00 -1.205984e+01 1.592384e+01
    endloop
  endfacet
  facet normal 0.000000e+00 0.000000e+00 1.000000e+00
    outer loop
      vertex   9.882500e+00 -1.098034e+01 1.592384e+01
      vertex   9.184000e+00 -1.205984e+01 1.592384e+01
      vertex   9.882500e+00 -1.161534e+01 1.592384e+01
    endloop
  endfacet
  facet normal 0.000000e+00 0.000000e+00 1.000000e+00
    outer loop
      vertex   9.882500e+00 -1.161534e+01 1.592384e+01
      vertex   9.184000e+00 -1.205984e+01 1.592384e+01
      vertex   1.121600e+01 -1.205984e+01 1.592384e+01
    endloop
  endfacet
  facet normal -0.000000e+00 0.000000e+00 1.000000e+00
    outer loop
      vertex   9.882500e+00 -1.161534e+01 1.592384e+01
      vertex   1.121600e+01 -1.205984e+01 1.592384e+01
      vertex   1.051750e+01 -1.161534e+01 1.592384e+01
    endloop
  endfacet
  facet normal -0.000000e+00 0.000000e+00 1.000000e+00
    outer loop
      vertex   1.051750e+01 -1.161534e+01 1.592384e+01
      vertex   1.121600e+01 -1.205984e+01 1.592384e+01
      vertex   1.121600e+01 -1.053584e+01 1.592384e+01
    endloop
  endfacet
  facet normal 0.000000e+00 0.000000e+00 1.000000e+00
    outer loop
      vertex   1.051750e+01 -1.161534e+01 1.592384e+01
      vertex   1.121600e+01 -1.053584e+01 1.592384e+01
      vertex   1.051750e+01 -1.098034e+01 1.592384e+01
    endloop
  endfacet
  facet normal 0.000000e+00 -0.000000e+00 1.000000e+00
    outer loop
      vertex   1.051750e+01 -1.098034e+01 1.592384e+01
      vertex   1.121600e+01 -1.053584e+01 1.592384e+01
      vertex   9.882500e+00 -1.098034e+01 1.592384e+01
    endloop
  endfacet
  facet normal 0.000000e+00 1.000000e+00 0.000000e+00
    outer loop
      vertex   9.882500e+00 -1.161534e+01 1.363784e+01
      vertex   9.882500e+00 -1.161534e+01 1.592384e+01
      vertex   1.051750e+01 -1.161534e+01 1.363784e+01
    endloop
  endfacet
  facet normal 0.000000e+00 1.000000e+00 -0.000000e+00
    outer loop
      vertex   1.051750e+01 -1.161534e+01 1.363784e+01
      vertex   9.882500e+00 -1.161534e+01 1.592384e+01
      vertex   1.051750e+01 -1.161534e+01 1.592384e+01
    endloop
  endfacet
  facet normal 1.000000e+00 0.000000e+00 -0.000000e+00
    outer loop
      vertex   9.882500e+00 -1.098034e+01 1.363784e+01
      vertex   9.882500e+00 -1.098034e+01 1.592384e+01
      vertex   9.882500e+00 -1.161534e+01 1.363784e+01
    endloop
  endfacet
  facet normal 1.000000e+00 0.000000e+00 0.000000e+00
    outer loop
      vertex   9.882500e+00 -1.161534e+01 1.363784e+01
      vertex   9.882500e+00 -1.098034e+01 1.592384e+01
      vertex   9.882500e+00 -1.161534e+01 1.592384e+01
    endloop
  endfacet
  facet normal 2.797412e-15 -1.000000e+00 0.000000e+00
    outer loop
      vertex   1.051750e+01 -1.098034e+01 1.363784e+01
      vertex   1.051750e+01 -1.098034e+01 1.592384e+01
      vertex   9.882500e+00 -1.098034e+01 1.363784e+01
    endloop
  endfacet
  facet normal 2.797412e-15 -1.000000e+00 0.000000e+00
    outer loop
      vertex   9.882500e+00 -1.098034e+01 1.363784e+01
      vertex   1.051750e+01 -1.098034e+01 1.592384e+01
      vertex   9.882500e+00 -1.098034e+01 1.592384e+01
    endloop
  endfacet
  facet normal -1.000000e+00 0.000000e+00 0.000000e+00
    outer loop
      vertex   1.051750e+01 -1.161534e+01 1.363784e+01
      vertex   1.051750e+01 -1.161534e+01 1.592384e+01
      vertex   1.051750e+01 -1.098034e+01 1.363784e+01
    endloop
  endfacet
  facet normal -1.000000e+00 0.000000e+00 0.000000e+00
    outer loop
      vertex   1.051750e+01 -1.098034e+01 1.363784e+01
      vertex   1.051750e+01 -1.161534e+01 1.592384e+01
      vertex   1.051750e+01 -1.098034e+01 1.592384e+01
    endloop
  endfacet
  facet normal 0.000000e+00 -1.000000e+00 1.665126e-16
    outer loop
      vertex   9.882500e+00 -1.161534e+01 1.833684e+01
      vertex   9.882500e+00 -1.161534e+01 7.668842e+00
      vertex   1.051750e+01 -1.161534e+01 1.833684e+01
    endloop
  endfacet
  facet normal 2.797412e-15 -1.000000e+00 0.000000e+00
    outer loop
      vertex   1.051750e+01 -1.161534e+01 1.833684e+01
      vertex   9.882500e+00 -1.161534e+01 7.668842e+00
      vertex   1.051750e+01 -1.161534e+01 7.668842e+00
    endloop
  endfacet
  facet normal -1.000000e+00 0.000000e+00 1.665126e-16
    outer loop
      vertex   9.882500e+00 -1.098034e+01 1.833684e+01
      vertex   9.882500e+00 -1.098034e+01 7.668842e+00
      vertex   9.882500e+00 -1.161534e+01 1.833684e+01
    endloop
  endfacet
  facet normal -1.000000e+00 0.000000e+00 1.665126e-16
    outer loop
      vertex   9.882500e+00 -1.161534e+01 1.833684e+01
      vertex   9.882500e+00 -1.098034e+01 7.668842e+00
      vertex   9.882500e+00 -1.161534e+01 7.668842e+00
    endloop
  endfacet
  facet normal 0.000000e+00 1.000000e+00 -1.665126e-16
    outer loop
      vertex   1.051750e+01 -1.098034e+01 1.833684e+01
      vertex   1.051750e+01 -1.098034e+01 7.668842e+00
      vertex   9.882500e+00 -1.098034e+01 1.833684e+01
    endloop
  endfacet
  facet normal 0.000000e+00 1.000000e+00 -1.665126e-16
    outer loop
      vertex   9.882500e+00 -1.098034e+01 1.833684e+01
      vertex   1.051750e+01 -1.098034e+01 7.668842e+00
      vertex   9.882500e+00 -1.098034e+01 7.668842e+00
    endloop
  endfacet
  facet normal 1.000000e+00 -0.000000e+00 0.000000e+00
    outer loop
      vertex   1.051750e+01 -1.161534e+01 1.833684e+01
      vertex   1.051750e+01 -1.161534e+01 7.668842e+00
      vertex   1.051750e+01 -1.098034e+01 1.833684e+01
    endloop
  endfacet
  facet normal 1.000000e+00 0.000000e+00 0.000000e+00
    outer loop
      vertex   1.051750e+01 -1.098034e+01 1.833684e+01
      vertex   1.051750e+01 -1.161534e+01 7.668842e+00
      vertex   1.051750e+01 -1.098034e+01 7.668842e+00
    endloop
  endfacet
  facet normal -0.000000e+00 0.000000e+00 1.000000e+00
    outer loop
      vertex   1.013650e+01 -1.123434e+01 1.871784e+01
      vertex   1.013650e+01 -1.136134e+01 1.871784e+01
      vertex   1.026350e+01 -1.123434e+01 1.871784e+01
    endloop
  endfacet
  facet normal 0.000000e+00 0.000000e+00 1.000000e+00
    outer loop
      vertex   1.026350e+01 -1.123434e+01 1.871784e+01
      vertex   1.013650e+01 -1.136134e+01 1.871784e+01
      vertex   1.026350e+01 -1.136134e+01 1.871784e+01
    endloop
  endfacet
  facet normal 0.000000e+00 -0.000000e+00 -1.000000e+00
    outer loop
      vertex   1.026350e+01 -1.123434e+01 7.287842e+00
      vertex   1.026350e+01 -1.136134e+01 7.287842e+00
      vertex   1.013650e+01 -1.123434e+01 7.287842e+00
    endloop
  endfacet
  facet normal 0.000000e+00 0.000000e+00 -1.000000e+00
    outer loop
      vertex   1.013650e+01 -1.123434e+01 7.287842e+00
      vertex   1.026350e+01 -1.136134e+01 7.287842e+00
      vertex   1.013650e+01 -1.136134e+01 7.287842e+00
    endloop
  endfacet
  facet normal -0.000000e+00 8.320503e-01 5.547002e-01
    outer loop
      vertex   1.013650e+01 -1.123434e+01 1.871784e+01
      vertex   1.026350e+01 -1.123434e+01 1.871784e+01
      vertex   9.882500e+00 -1.098034e+01 1.833684e+01
    endloop
  endfacet
  facet normal -0.000000e+00 8.320503e-01 5.547002e-01
    outer loop
      vertex   9.882500e+00 -1.098034e+01 1.833684e+01
      vertex   1.026350e+01 -1.123434e+01 1.871784e+01
      vertex   1.051750e+01 -1.098034e+01 1.833684e+01
    endloop
  endfacet
  facet normal 8.320503e-01 0.000000e+00 5.547002e-01
    outer loop
      vertex   1.026350e+01 -1.123434e+01 1.871784e+01
      vertex   1.026350e+01 -1.136134e+01 1.871784e+01
      vertex   1.051750e+01 -1.098034e+01 1.833684e+01
    endloop
  endfacet
  facet normal 8.320503e-01 0.000000e+00 5.547002e-01
    outer loop
      vertex   1.051750e+01 -1.098034e+01 1.833684e+01
      vertex   1.026350e+01 -1.136134e+01 1.871784e+01
      vertex   1.051750e+01 -1.161534e+01 1.833684e+01
    endloop
  endfacet
  facet normal -8.320503e-01 0.000000e+00 5.547002e-01
    outer loop
      vertex   9.882500e+00 -1.098034e+01 1.833684e+01
      vertex   9.882500e+00 -1.161534e+01 1.833684e+01
      vertex   1.013650e+01 -1.123434e+01 1.871784e+01
    endloop
  endfacet
  facet normal -8.320503e-01 0.000000e+00 5.547002e-01
    outer loop
      vertex   1.013650e+01 -1.123434e+01 1.871784e+01
      vertex   9.882500e+00 -1.161534e+01 1.833684e+01
      vertex   1.013650e+01 -1.136134e+01 1.871784e+01
    endloop
  endfacet
  facet normal 0.000000e+00 -8.320503e-01 5.547002e-01
    outer loop
      vertex   1.026350e+01 -1.136134e+01 1.871784e+01
      vertex   1.013650e+01 -1.136134e+01 1.871784e+01
      vertex   1.051750e+01 -1.161534e+01 1.833684e+01
    endloop
  endfacet
  facet normal 0.000000e+00 -8.320503e-01 5.547002e-01
    outer loop
      vertex   1.051750e+01 -1.161534e+01 1.833684e+01
      vertex   1.013650e+01 -1.136134e+01 1.871784e+01
      vertex   9.882500e+00 -1.161534e+01 1.833684e+01
    endloop
  endfacet
  facet normal -8.320503e-01 0.000000e+00 -5.547002e-01
    outer loop
      vertex   9.882500e+00 -1.161534e+01 7.668842e+00
      vertex   9.882500e+00 -1.098034e+01 7.668842e+00
      vertex   1.013650e+01 -1.136134e+01 7.287842e+00
    endloop
  endfacet
  facet normal -8.320503e-01 0.000000e+00 -5.547002e-01
    outer loop
      vertex   1.013650e+01 -1.136134e+01 7.287842e+00
      vertex   9.882500e+00 -1.098034e+01 7.668842e+00
      vertex   1.013650e+01 -1.123434e+01 7.287842e+00
    endloop
  endfacet
  facet normal 0.000000e+00 8.320503e-01 -5.547002e-01
    outer loop
      vertex   9.882500e+00 -1.098034e+01 7.668842e+00
      vertex   1.051750e+01 -1.098034e+01 7.668842e+00
      vertex   1.013650e+01 -1.123434e+01 7.287842e+00
    endloop
  endfacet
  facet normal -1.163794e-14 8.320503e-01 -5.547002e-01
    outer loop
      vertex   1.013650e+01 -1.123434e+01 7.287842e+00
      vertex   1.051750e+01 -1.098034e+01 7.668842e+00
      vertex   1.026350e+01 -1.123434e+01 7.287842e+00
    endloop
  endfacet
  facet normal 0.000000e+00 -8.320503e-01 -5.547002e-01
    outer loop
      vertex   1.013650e+01 -1.136134e+01 7.287842e+00
      vertex   1.026350e+01 -1.136134e+01 7.287842e+00
      vertex   9.882500e+00 -1.161534e+01 7.668842e+00
    endloop
  endfacet
  facet normal 2.327588e-15 -8.320503e-01 -5.547002e-01
    outer loop
      vertex   9.882500e+00 -1.161534e+01 7.668842e+00
      vertex   1.026350e+01 -1.136134e+01 7.287842e+00
      vertex   1.051750e+01 -1.161534e+01 7.668842e+00
    endloop
  endfacet
  facet normal 8.320503e-01 0.000000e+00 -5.547002e-01
    outer loop
      vertex   1.051750e+01 -1.098034e+01 7.668842e+00
      vertex   1.051750e+01 -1.161534e+01 7.668842e+00
      vertex   1.026350e+01 -1.123434e+01 7.287842e+00
    endloop
  endfacet
  facet normal 8.320503e-01 0.000000e+00 -5.547002e-01
    outer loop
      vertex   1.026350e+01 -1.123434e+01 7.287842e+00
      vertex   1.051750e+01 -1.161534e+01 7.668842e+00
      vertex   1.026350e+01 -1.136134e+01 7.287842e+00
    endloop
  endfacet
  facet normal -0.000000e+00 0.000000e+00 1.000000e+00
    outer loop
      vertex   1.451800e+01 -1.205984e+01 1.617784e+01
      vertex   1.451800e+01 -1.256784e+01 1.617784e+01
      vertex   1.604200e+01 -1.205984e+01 1.617784e+01
    endloop
  endfacet
  facet normal 0.000000e+00 0.000000e+00 1.000000e+00
    outer loop
      vertex   1.604200e+01 -1.205984e+01 1.617784e+01
      vertex   1.451800e+01 -1.256784e+01 1.617784e+01
      vertex   1.604200e+01 -1.256784e+01 1.617784e+01
    endloop
  endfacet
  facet normal -7.071068e-01 0.000000e+00 7.071068e-01
    outer loop
      vertex   1.451800e+01 -1.205984e+01 1.617784e+01
      vertex   1.426400e+01 -1.205984e+01 1.592384e+01
      vertex   1.451800e+01 -1.256784e+01 1.617784e+01
    endloop
  endfacet
  facet normal -7.071068e-01 1.475399e-14 7.071068e-01
    outer loop
      vertex   1.451800e+01 -1.256784e+01 1.617784e+01
      vertex   1.426400e+01 -1.205984e+01 1.592384e+01
      vertex   1.401000e+01 -1.205984e+01 1.566984e+01
    endloop
  endfacet
  facet normal -7.071068e-01 1.647783e-15 7.071068e-01
    outer loop
      vertex   1.401000e+01 -1.205984e+01 1.566984e+01
      vertex   1.426400e+01 -1.205984e+01 1.592384e+01
      vertex   1.426400e+01 -1.053584e+01 1.592384e+01
    endloop
  endfacet
  facet normal -7.071068e-01 0.000000e+00 7.071068e-01
    outer loop
      vertex   1.401000e+01 -1.205984e+01 1.566984e+01
      vertex   1.426400e+01 -1.053584e+01 1.592384e+01
      vertex   1.401000e+01 -1.053584e+01 1.566984e+01
    endloop
  endfacet
  facet normal -7.071068e-01 -2.722644e-14 7.071068e-01
    outer loop
      vertex   1.401000e+01 -1.053584e+01 1.566984e+01
      vertex   1.426400e+01 -1.053584e+01 1.592384e+01
      vertex   1.451800e+01 -1.002784e+01 1.617784e+01
    endloop
  endfacet
  facet normal -7.071068e-01 0.000000e+00 7.071068e-01
    outer loop
      vertex   1.451800e+01 -1.002784e+01 1.617784e+01
      vertex   1.426400e+01 -1.053584e+01 1.592384e+01
      vertex   1.451800e+01 -1.053584e+01 1.617784e+01
    endloop
  endfacet
  facet normal 7.071068e-01 -0.000000e+00 7.071068e-01
    outer loop
      vertex   1.629600e+01 -1.205984e+01 1.592384e+01
      vertex   1.655000e+01 -1.053584e+01 1.566984e+01
      vertex   1.629600e+01 -1.053584e+01 1.592384e+01
    endloop
  endfacet
  facet normal 7.071068e-01 -2.966009e-14 7.071068e-01
    outer loop
      vertex   1.629600e+01 -1.053584e+01 1.592384e+01
      vertex   1.655000e+01 -1.053584e+01 1.566984e+01
      vertex   1.604200e+01 -1.002784e+01 1.617784e+01
    endloop
  endfacet
  facet normal 7.071068e-01 4.943348e-15 7.071068e-01
    outer loop
      vertex   1.629600e+01 -1.053584e+01 1.592384e+01
      vertex   1.604200e+01 -1.002784e+01 1.617784e+01
      vertex   1.604200e+01 -1.053584e+01 1.617784e+01
    endloop
  endfacet
  facet normal 7.071068e-01 0.000000e+00 7.071068e-01
    outer loop
      vertex   1.604200e+01 -1.205984e+01 1.617784e+01
      vertex   1.604200e+01 -1.256784e+01 1.617784e+01
      vertex   1.629600e+01 -1.205984e+01 1.592384e+01
    endloop
  endfacet
  facet normal 7.071068e-01 3.460344e-14 7.071068e-01
    outer loop
      vertex   1.629600e+01 -1.205984e+01 1.592384e+01
      vertex   1.604200e+01 -1.256784e+01 1.617784e+01
      vertex   1.655000e+01 -1.205984e+01 1.566984e+01
    endloop
  endfacet
  facet normal 7.071068e-01 0.000000e+00 7.071068e-01
    outer loop
      vertex   1.629600e+01 -1.205984e+01 1.592384e+01
      vertex   1.655000e+01 -1.205984e+01 1.566984e+01
      vertex   1.655000e+01 -1.053584e+01 1.566984e+01
    endloop
  endfacet
  facet normal -1.000000e+00 0.000000e+00 0.000000e+00
    outer loop
      vertex   1.401000e+01 -1.205984e+01 1.363784e+01
      vertex   1.401000e+01 -1.205984e+01 1.566984e+01
      vertex   1.401000e+01 -1.053584e+01 1.363784e+01
    endloop
  endfacet
  facet normal -1.000000e+00 0.000000e+00 0.000000e+00
    outer loop
      vertex   1.401000e+01 -1.053584e+01 1.363784e+01
      vertex   1.401000e+01 -1.205984e+01 1.566984e+01
      vertex   1.401000e+01 -1.053584e+01 1.566984e+01
    endloop
  endfacet
  facet normal 0.000000e+00 -1.000000e+00 0.000000e+00
    outer loop
      vertex   1.451800e+01 -1.256784e+01 1.617784e+01
      vertex   1.451800e+01 -1.256784e+01 1.363784e+01
      vertex   1.604200e+01 -1.256784e+01 1.617784e+01
    endloop
  endfacet
  facet normal 0.000000e+00 -1.000000e+00 -0.000000e+00
    outer loop
      vertex   1.604200e+01 -1.256784e+01 1.617784e+01
      vertex   1.451800e+01 -1.256784e+01 1.363784e+01
      vertex   1.604200e+01 -1.256784e+01 1.363784e+01
    endloop
  endfacet
  facet normal 1.000000e+00 0.000000e+00 -0.000000e+00
    outer loop
      vertex   1.655000e+01 -1.053584e+01 1.363784e+01
      vertex   1.655000e+01 -1.053584e+01 1.566984e+01
      vertex   1.655000e+01 -1.205984e+01 1.363784e+01
    endloop
  endfacet
  facet normal 1.000000e+00 0.000000e+00 0.000000e+00
    outer loop
      vertex   1.655000e+01 -1.205984e+01 1.363784e+01
      vertex   1.655000e+01 -1.053584e+01 1.566984e+01
      vertex   1.655000e+01 -1.205984e+01 1.566984e+01
    endloop
  endfacet
  facet normal 0.000000e+00 1.000000e+00 0.000000e+00
    outer loop
      vertex   1.451800e+01 -1.002784e+01 1.363784e+01
      vertex   1.451800e+01 -1.002784e+01 1.617784e+01
      vertex   1.604200e+01 -1.002784e+01 1.363784e+01
    endloop
  endfacet
  facet normal 0.000000e+00 1.000000e+00 -0.000000e+00
    outer loop
      vertex   1.604200e+01 -1.002784e+01 1.363784e+01
      vertex   1.451800e+01 -1.002784e+01 1.617784e+01
      vertex   1.604200e+01 -1.002784e+01 1.617784e+01
    endloop
  endfacet
  facet normal 0.000000e+00 0.000000e+00 1.000000e+00
    outer loop
      vertex   1.604200e+01 -1.053584e+01 1.617784e+01
      vertex   1.604200e+01 -1.002784e+01 1.617784e+01
      vertex   1.451800e+01 -1.053584e+01 1.617784e+01
    endloop
  endfacet
  facet normal 0.000000e+00 0.000000e+00 1.000000e+00
    outer loop
      vertex   1.451800e+01 -1.053584e+01 1.617784e+01
      vertex   1.604200e+01 -1.002784e+01 1.617784e+01
      vertex   1.451800e+01 -1.002784e+01 1.617784e+01
    endloop
  endfacet
  facet normal 0.000000e+00 0.000000e+00 -1.000000e+00
    outer loop
      vertex   1.451800e+01 -1.256784e+01 1.363784e+01
      vertex   1.496250e+01 -1.161534e+01 1.363784e+01
      vertex   1.604200e+01 -1.256784e+01 1.363784e+01
    endloop
  endfacet
  facet normal 0.000000e+00 0.000000e+00 -1.000000e+00
    outer loop
      vertex   1.604200e+01 -1.256784e+01 1.363784e+01
      vertex   1.496250e+01 -1.161534e+01 1.363784e+01
      vertex   1.559750e+01 -1.161534e+01 1.363784e+01
    endloop
  endfacet
  facet normal 0.000000e+00 0.000000e+00 -1.000000e+00
    outer loop
      vertex   1.604200e+01 -1.256784e+01 1.363784e+01
      vertex   1.559750e+01 -1.161534e+01 1.363784e+01
      vertex   1.655000e+01 -1.205984e+01 1.363784e+01
    endloop
  endfacet
  facet normal 0.000000e+00 0.000000e+00 -1.000000e+00
    outer loop
      vertex   1.655000e+01 -1.205984e+01 1.363784e+01
      vertex   1.559750e+01 -1.161534e+01 1.363784e+01
      vertex   1.559750e+01 -1.098034e+01 1.363784e+01
    endloop
  endfacet
  facet normal 0.000000e+00 0.000000e+00 -1.000000e+00
    outer loop
      vertex   1.655000e+01 -1.205984e+01 1.363784e+01
      vertex   1.559750e+01 -1.098034e+01 1.363784e+01
      vertex   1.655000e+01 -1.053584e+01 1.363784e+01
    endloop
  endfacet
  facet normal -0.000000e+00 0.000000e+00 -1.000000e+00
    outer loop
      vertex   1.655000e+01 -1.053584e+01 1.363784e+01
      vertex   1.559750e+01 -1.098034e+01 1.363784e+01
      vertex   1.604200e+01 -1.002784e+01 1.363784e+01
    endloop
  endfacet
  facet normal 0.000000e+00 0.000000e+00 -1.000000e+00
    outer loop
      vertex   1.604200e+01 -1.002784e+01 1.363784e+01
      vertex   1.559750e+01 -1.098034e+01 1.363784e+01
      vertex   1.496250e+01 -1.098034e+01 1.363784e+01
    endloop
  endfacet
  facet normal -0.000000e+00 0.000000e+00 -1.000000e+00
    outer loop
      vertex   1.604200e+01 -1.002784e+01 1.363784e+01
      vertex   1.496250e+01 -1.098034e+01 1.363784e+01
      vertex   1.451800e+01 -1.002784e+01 1.363784e+01
    endloop
  endfacet
  facet normal 0.000000e+00 -0.000000e+00 -1.000000e+00
    outer loop
      vertex   1.451800e+01 -1.002784e+01 1.363784e+01
      vertex   1.496250e+01 -1.098034e+01 1.363784e+01
      vertex   1.401000e+01 -1.053584e+01 1.363784e+01
    endloop
  endfacet
  facet normal 0.000000e+00 0.000000e+00 -1.000000e+00
    outer loop
      vertex   1.401000e+01 -1.053584e+01 1.363784e+01
      vertex   1.496250e+01 -1.098034e+01 1.363784e+01
      vertex   1.496250e+01 -1.161534e+01 1.363784e+01
    endloop
  endfacet
  facet normal 0.000000e+00 0.000000e+00 -1.000000e+00
    outer loop
      vertex   1.401000e+01 -1.053584e+01 1.363784e+01
      vertex   1.496250e+01 -1.161534e+01 1.363784e+01
      vertex   1.401000e+01 -1.205984e+01 1.363784e+01
    endloop
  endfacet
  facet normal 0.000000e+00 0.000000e+00 -1.000000e+00
    outer loop
      vertex   1.401000e+01 -1.205984e+01 1.363784e+01
      vertex   1.496250e+01 -1.161534e+01 1.363784e+01
      vertex   1.451800e+01 -1.256784e+01 1.363784e+01
    endloop
  endfacet
  facet normal -7.071068e-01 7.071068e-01 6.181466e-16
    outer loop
      vertex   1.401000e+01 -1.053584e+01 1.363784e+01
      vertex   1.401000e+01 -1.053584e+01 1.566984e+01
      vertex   1.451800e+01 -1.002784e+01 1.363784e+01
    endloop
  endfacet
  facet normal -7.071068e-01 7.071068e-01 0.000000e+00
    outer loop
      vertex   1.451800e+01 -1.002784e+01 1.363784e+01
      vertex   1.401000e+01 -1.053584e+01 1.566984e+01
      vertex   1.451800e+01 -1.002784e+01 1.617784e+01
    endloop
  endfacet
  facet normal -7.071068e-01 -7.071068e-01 0.000000e+00
    outer loop
      vertex   1.401000e+01 -1.205984e+01 1.363784e+01
      vertex   1.451800e+01 -1.256784e+01 1.363784e+01
      vertex   1.401000e+01 -1.205984e+01 1.566984e+01
    endloop
  endfacet
  facet normal -7.071068e-01 -7.071068e-01 0.000000e+00
    outer loop
      vertex   1.401000e+01 -1.205984e+01 1.566984e+01
      vertex   1.451800e+01 -1.256784e+01 1.363784e+01
      vertex   1.451800e+01 -1.256784e+01 1.617784e+01
    endloop
  endfacet
  facet normal 7.071068e-01 -7.071068e-01 1.854440e-15
    outer loop
      vertex   1.655000e+01 -1.205984e+01 1.363784e+01
      vertex   1.655000e+01 -1.205984e+01 1.566984e+01
      vertex   1.604200e+01 -1.256784e+01 1.363784e+01
    endloop
  endfacet
  facet normal 7.071068e-01 -7.071068e-01 0.000000e+00
    outer loop
      vertex   1.604200e+01 -1.256784e+01 1.363784e+01
      vertex   1.655000e+01 -1.205984e+01 1.566984e+01
      vertex   1.604200e+01 -1.256784e+01 1.617784e+01
    endloop
  endfacet
  facet normal 7.071068e-01 7.071068e-01 -0.000000e+00
    outer loop
      vertex   1.655000e+01 -1.053584e+01 1.363784e+01
      vertex   1.604200e+01 -1.002784e+01 1.363784e+01
      vertex   1.655000e+01 -1.053584e+01 1.566984e+01
    endloop
  endfacet
  facet normal 7.071068e-01 7.071068e-01 0.000000e+00
    outer loop
      vertex   1.655000e+01 -1.053584e+01 1.566984e+01
      vertex   1.604200e+01 -1.002784e+01 1.363784e+01
      vertex   1.604200e+01 -1.002784e+01 1.617784e+01
    endloop
  endfacet
  facet normal -1.165588e-15 1.000000e+00 1.165588e-15
    outer loop
      vertex   1.451800e+01 -1.205984e+01 1.617784e+01
      vertex   1.604200e+01 -1.205984e+01 1.617784e+01
      vertex   1.426400e+01 -1.205984e+01 1.592384e+01
    endloop
  endfacet
  facet normal -8.741914e-16 1.000000e+00 -8.741914e-16
    outer loop
      vertex   1.426400e+01 -1.205984e+01 1.592384e+01
      vertex   1.604200e+01 -1.205984e+01 1.617784e+01
      vertex   1.629600e+01 -1.205984e+01 1.592384e+01
    endloop
  endfacet
  facet normal 0.000000e+00 -1.000000e+00 0.000000e+00
    outer loop
      vertex   1.426400e+01 -1.053584e+01 1.592384e+01
      vertex   1.629600e+01 -1.053584e+01 1.592384e+01
      vertex   1.451800e+01 -1.053584e+01 1.617784e+01
    endloop
  endfacet
  facet normal 0.000000e+00 -1.000000e+00 0.000000e+00
    outer loop
      vertex   1.451800e+01 -1.053584e+01 1.617784e+01
      vertex   1.629600e+01 -1.053584e+01 1.592384e+01
      vertex   1.604200e+01 -1.053584e+01 1.617784e+01
    endloop
  endfacet
  facet normal 0.000000e+00 0.000000e+00 1.000000e+00
    outer loop
      vertex   1.629600e+01 -1.053584e+01 1.592384e+01
      vertex   1.426400e+01 -1.053584e+01 1.592384e+01
      vertex   1.496250e+01 -1.098034e+01 1.592384e+01
    endloop
  endfacet
  facet normal 1.483476e-15 2.331177e-15 1.000000e+00
    outer loop
      vertex   1.496250e+01 -1.098034e+01 1.592384e+01
      vertex   1.426400e+01 -1.053584e+01 1.592384e+01
      vertex   1.426400e+01 -1.205984e+01 1.592384e+01
    endloop
  endfacet
  facet normal 5.086204e-15 0.000000e+00 1.000000e+00
    outer loop
      vertex   1.496250e+01 -1.098034e+01 1.592384e+01
      vertex   1.426400e+01 -1.205984e+01 1.592384e+01
      vertex   1.496250e+01 -1.161534e+01 1.592384e+01
    endloop
  endfacet
  facet normal 1.748383e-15 5.245148e-15 1.000000e+00
    outer loop
      vertex   1.496250e+01 -1.161534e+01 1.592384e+01
      vertex   1.426400e+01 -1.205984e+01 1.592384e+01
      vertex   1.629600e+01 -1.205984e+01 1.592384e+01
    endloop
  endfacet
  facet normal -0.000000e+00 0.000000e+00 1.000000e+00
    outer loop
      vertex   1.496250e+01 -1.161534e+01 1.592384e+01
      vertex   1.629600e+01 -1.205984e+01 1.592384e+01
      vertex   1.559750e+01 -1.161534e+01 1.592384e+01
    endloop
  endfacet
  facet normal -0.000000e+00 0.000000e+00 1.000000e+00
    outer loop
      vertex   1.559750e+01 -1.161534e+01 1.592384e+01
      vertex   1.629600e+01 -1.205984e+01 1.592384e+01
      vertex   1.629600e+01 -1.053584e+01 1.592384e+01
    endloop
  endfacet
  facet normal 0.000000e+00 -0.000000e+00 1.000000e+00
    outer loop
      vertex   1.559750e+01 -1.161534e+01 1.592384e+01
      vertex   1.629600e+01 -1.053584e+01 1.592384e+01
      vertex   1.559750e+01 -1.098034e+01 1.592384e+01
    endloop
  endfacet
  facet normal 0.000000e+00 -0.000000e+00 1.000000e+00
    outer loop
      vertex   1.559750e+01 -1.098034e+01 1.592384e+01
      vertex   1.629600e+01 -1.053584e+01 1.592384e+01
      vertex   1.496250e+01 -1.098034e+01 1.592384e+01
    endloop
  endfacet
  facet normal 0.000000e+00 1.000000e+00 0.000000e+00
    outer loop
      vertex   1.496250e+01 -1.161534e+01 1.363784e+01
      vertex   1.496250e+01 -1.161534e+01 1.592384e+01
      vertex   1.559750e+01 -1.161534e+01 1.363784e+01
    endloop
  endfacet
  facet normal 0.000000e+00 1.000000e+00 -0.000000e+00
    outer loop
      vertex   1.559750e+01 -1.161534e+01 1.363784e+01
      vertex   1.496250e+01 -1.161534e+01 1.592384e+01
      vertex   1.559750e+01 -1.161534e+01 1.592384e+01
    endloop
  endfacet
  facet normal 1.000000e+00 0.000000e+00 -0.000000e+00
    outer loop
      vertex   1.496250e+01 -1.098034e+01 1.363784e+01
      vertex   1.496250e+01 -1.098034e+01 1.592384e+01
      vertex   1.496250e+01 -1.161534e+01 1.363784e+01
    endloop
  endfacet
  facet normal 1.000000e+00 0.000000e+00 0.000000e+00
    outer loop
      vertex   1.496250e+01 -1.161534e+01 1.363784e+01
      vertex   1.496250e+01 -1.098034e+01 1.592384e+01
      vertex   1.496250e+01 -1.161534e+01 1.592384e+01
    endloop
  endfacet
  facet normal 0.000000e+00 -1.000000e+00 7.770590e-16
    outer loop
      vertex   1.559750e+01 -1.098034e+01 1.363784e+01
      vertex   1.559750e+01 -1.098034e+01 1.592384e+01
      vertex   1.496250e+01 -1.098034e+01 1.363784e+01
    endloop
  endfacet
  facet normal 2.797412e-15 -1.000000e+00 0.000000e+00
    outer loop
      vertex   1.496250e+01 -1.098034e+01 1.363784e+01
      vertex   1.559750e+01 -1.098034e+01 1.592384e+01
      vertex   1.496250e+01 -1.098034e+01 1.592384e+01
    endloop
  endfacet
  facet normal -1.000000e+00 0.000000e+00 7.770590e-16
    outer loop
      vertex   1.559750e+01 -1.161534e+01 1.363784e+01
      vertex   1.559750e+01 -1.161534e+01 1.592384e+01
      vertex   1.559750e+01 -1.098034e+01 1.363784e+01
    endloop
  endfacet
  facet normal -1.000000e+00 -2.797412e-15 2.173754e-30
    outer loop
      vertex   1.559750e+01 -1.098034e+01 1.363784e+01
      vertex   1.559750e+01 -1.161534e+01 1.592384e+01
      vertex   1.559750e+01 -1.098034e+01 1.592384e+01
    endloop
  endfacet
  facet normal 0.000000e+00 -1.000000e+00 1.665126e-16
    outer loop
      vertex   1.496250e+01 -1.161534e+01 1.833684e+01
      vertex   1.496250e+01 -1.161534e+01 7.668842e+00
      vertex   1.559750e+01 -1.161534e+01 1.833684e+01
    endloop
  endfacet
  facet normal 2.797412e-15 -1.000000e+00 -4.658045e-31
    outer loop
      vertex   1.559750e+01 -1.161534e+01 1.833684e+01
      vertex   1.496250e+01 -1.161534e+01 7.668842e+00
      vertex   1.559750e+01 -1.161534e+01 7.668842e+00
    endloop
  endfacet
  facet normal -1.000000e+00 0.000000e+00 1.665126e-16
    outer loop
      vertex   1.496250e+01 -1.098034e+01 1.833684e+01
      vertex   1.496250e+01 -1.098034e+01 7.668842e+00
      vertex   1.496250e+01 -1.161534e+01 1.833684e+01
    endloop
  endfacet
  facet normal -1.000000e+00 0.000000e+00 1.665126e-16
    outer loop
      vertex   1.496250e+01 -1.161534e+01 1.833684e+01
      vertex   1.496250e+01 -1.098034e+01 7.668842e+00
      vertex   1.496250e+01 -1.161534e+01 7.668842e+00
    endloop
  endfacet
  facet normal -2.797412e-15 1.000000e+00 -1.665126e-16
    outer loop
      vertex   1.559750e+01 -1.098034e+01 1.833684e+01
      vertex   1.559750e+01 -1.098034e+01 7.668842e+00
      vertex   1.496250e+01 -1.098034e+01 1.833684e+01
    endloop
  endfacet
  facet normal 0.000000e+00 1.000000e+00 0.000000e+00
    outer loop
      vertex   1.496250e+01 -1.098034e+01 1.833684e+01
      vertex   1.559750e+01 -1.098034e+01 7.668842e+00
      vertex   1.496250e+01 -1.098034e+01 7.668842e+00
    endloop
  endfacet
  facet normal 1.000000e+00 2.797412e-15 -1.665126e-16
    outer loop
      vertex   1.559750e+01 -1.161534e+01 1.833684e+01
      vertex   1.559750e+01 -1.161534e+01 7.668842e+00
      vertex   1.559750e+01 -1.098034e+01 1.833684e+01
    endloop
  endfacet
  facet normal 1.000000e+00 0.000000e+00 0.000000e+00
    outer loop
      vertex   1.559750e+01 -1.098034e+01 1.833684e+01
      vertex   1.559750e+01 -1.161534e+01 7.668842e+00
      vertex   1.559750e+01 -1.098034e+01 7.668842e+00
    endloop
  endfacet
  facet normal -0.000000e+00 0.000000e+00 1.000000e+00
    outer loop
      vertex   1.521650e+01 -1.123434e+01 1.871784e+01
      vertex   1.521650e+01 -1.136134e+01 1.871784e+01
      vertex   1.534350e+01 -1.123434e+01 1.871784e+01
    endloop
  endfacet
  facet normal 0.000000e+00 0.000000e+00 1.000000e+00
    outer loop
      vertex   1.534350e+01 -1.123434e+01 1.871784e+01
      vertex   1.521650e+01 -1.136134e+01 1.871784e+01
      vertex   1.534350e+01 -1.136134e+01 1.871784e+01
    endloop
  endfacet
  facet normal -0.000000e+00 -0.000000e+00 -1.000000e+00
    outer loop
      vertex   1.534350e+01 -1.123434e+01 7.287842e+00
      vertex   1.534350e+01 -1.136134e+01 7.287842e+00
      vertex   1.521650e+01 -1.123434e+01 7.287842e+00
    endloop
  endfacet
  facet normal 0.000000e+00 0.000000e+00 -1.000000e+00
    outer loop
      vertex   1.521650e+01 -1.123434e+01 7.287842e+00
      vertex   1.534350e+01 -1.136134e+01 7.287842e+00
      vertex   1.521650e+01 -1.136134e+01 7.287842e+00
    endloop
  endfacet
  facet normal -0.000000e+00 8.320503e-01 5.547002e-01
    outer loop
      vertex   1.521650e+01 -1.123434e+01 1.871784e+01
      vertex   1.534350e+01 -1.123434e+01 1.871784e+01
      vertex   1.496250e+01 -1.098034e+01 1.833684e+01
    endloop
  endfacet
  facet normal -2.327588e-15 8.320503e-01 5.547002e-01
    outer loop
      vertex   1.496250e+01 -1.098034e+01 1.833684e+01
      vertex   1.534350e+01 -1.123434e+01 1.871784e+01
      vertex   1.559750e+01 -1.098034e+01 1.833684e+01
    endloop
  endfacet
  facet normal 8.320503e-01 0.000000e+00 5.547002e-01
    outer loop
      vertex   1.534350e+01 -1.123434e+01 1.871784e+01
      vertex   1.534350e+01 -1.136134e+01 1.871784e+01
      vertex   1.559750e+01 -1.098034e+01 1.833684e+01
    endloop
  endfacet
  facet normal 8.320503e-01 2.327588e-15 5.547002e-01
    outer loop
      vertex   1.559750e+01 -1.098034e+01 1.833684e+01
      vertex   1.534350e+01 -1.136134e+01 1.871784e+01
      vertex   1.559750e+01 -1.161534e+01 1.833684e+01
    endloop
  endfacet
  facet normal -8.320503e-01 0.000000e+00 5.547002e-01
    outer loop
      vertex   1.496250e+01 -1.098034e+01 1.833684e+01
      vertex   1.496250e+01 -1.161534e+01 1.833684e+01
      vertex   1.521650e+01 -1.123434e+01 1.871784e+01
    endloop
  endfacet
  facet normal -8.320503e-01 0.000000e+00 5.547002e-01
    outer loop
      vertex   1.521650e+01 -1.123434e+01 1.871784e+01
      vertex   1.496250e+01 -1.161534e+01 1.833684e+01
      vertex   1.521650e+01 -1.136134e+01 1.871784e+01
    endloop
  endfacet
  facet normal 0.000000e+00 -8.320503e-01 5.547002e-01
    outer loop
      vertex   1.534350e+01 -1.136134e+01 1.871784e+01
      vertex   1.521650e+01 -1.136134e+01 1.871784e+01
      vertex   1.559750e+01 -1.161534e+01 1.833684e+01
    endloop
  endfacet
  facet normal 0.000000e+00 -8.320503e-01 5.547002e-01
    outer loop
      vertex   1.559750e+01 -1.161534e+01 1.833684e+01
      vertex   1.521650e+01 -1.136134e+01 1.871784e+01
      vertex   1.496250e+01 -1.161534e+01 1.833684e+01
    endloop
  endfacet
  facet normal -8.320503e-01 0.000000e+00 -5.547002e-01
    outer loop
      vertex   1.496250e+01 -1.161534e+01 7.668842e+00
      vertex   1.496250e+01 -1.098034e+01 7.668842e+00
      vertex   1.521650e+01 -1.136134e+01 7.287842e+00
    endloop
  endfacet
  facet normal -8.320503e-01 -2.327588e-14 -5.547002e-01
    outer loop
      vertex   1.521650e+01 -1.136134e+01 7.287842e+00
      vertex   1.496250e+01 -1.098034e+01 7.668842e+00
      vertex   1.521650e+01 -1.123434e+01 7.287842e+00
    endloop
  endfacet
  facet normal 0.000000e+00 8.320503e-01 -5.547002e-01
    outer loop
      vertex   1.496250e+01 -1.098034e+01 7.668842e+00
      vertex   1.559750e+01 -1.098034e+01 7.668842e+00
      vertex   1.521650e+01 -1.123434e+01 7.287842e+00
    endloop
  endfacet
  facet normal 0.000000e+00 8.320503e-01 -5.547002e-01
    outer loop
      vertex   1.521650e+01 -1.123434e+01 7.287842e+00
      vertex   1.559750e+01 -1.098034e+01 7.668842e+00
      vertex   1.534350e+01 -1.123434e+01 7.287842e+00
    endloop
  endfacet
  facet normal 0.000000e+00 -8.320503e-01 -5.547002e-01
    outer loop
      vertex   1.521650e+01 -1.136134e+01 7.287842e+00
      vertex   1.534350e+01 -1.136134e+01 7.287842e+00
      vertex   1.496250e+01 -1.161534e+01 7.668842e+00
    endloop
  endfacet
  facet normal 2.327588e-15 -8.320503e-01 -5.547002e-01
    outer loop
      vertex   1.496250e+01 -1.161534e+01 7.668842e+00
      vertex   1.534350e+01 -1.136134e+01 7.287842e+00
      vertex   1.559750e+01 -1.161534e+01 7.668842e+00
    endloop
  endfacet
  facet normal 8.320503e-01 0.000000e+00 -5.547002e-01
    outer loop
      vertex   1.559750e+01 -1.098034e+01 7.668842e+00
      vertex   1.559750e+01 -1.161534e+01 7.668842e+00
      vertex   1.534350e+01 -1.123434e+01 7.287842e+00
    endloop
  endfacet
  facet normal 8.320503e-01 0.000000e+00 -5.547002e-01
    outer loop
      vertex   1.534350e+01 -1.123434e+01 7.287842e+00
      vertex   1.559750e+01 -1.161534e+01 7.668842e+00
      vertex   1.534350e+01 -1.136134e+01 7.287842e+00
    endloop
  endfacet
  facet normal -0.000000e+00 0.000000e+00 1.000000e+00
    outer loop
      vertex   6.898000e+00 -1.205984e+01 1.617784e+01
      vertex   6.898000e+00 -1.256784e+01 1.617784e+01
      vertex   8.422000e+00 -1.205984e+01 1.617784e+01
    endloop
  endfacet
  facet normal 0.000000e+00 0.000000e+00 1.000000e+00
    outer loop
      vertex   8.422000e+00 -1.205984e+01 1.617784e+01
      vertex   6.898000e+00 -1.256784e+01 1.617784e+01
      vertex   8.422000e+00 -1.256784e+01 1.617784e+01
    endloop
  endfacet
  facet normal -7.071068e-01 0.000000e+00 7.071068e-01
    outer loop
      vertex   6.898000e+00 -1.205984e+01 1.617784e+01
      vertex   6.644000e+00 -1.205984e+01 1.592384e+01
      vertex   6.898000e+00 -1.256784e+01 1.617784e+01
    endloop
  endfacet
  facet normal -7.071068e-01 3.650472e-15 7.071068e-01
    outer loop
      vertex   6.898000e+00 -1.256784e+01 1.617784e+01
      vertex   6.644000e+00 -1.205984e+01 1.592384e+01
      vertex   6.390000e+00 -1.205984e+01 1.566984e+01
    endloop
  endfacet
  facet normal -7.071068e-01 -8.365666e-16 7.071068e-01
    outer loop
      vertex   6.390000e+00 -1.205984e+01 1.566984e+01
      vertex   6.644000e+00 -1.205984e+01 1.592384e+01
      vertex   6.644000e+00 -1.053584e+01 1.592384e+01
    endloop
  endfacet
  facet normal -7.071068e-01 -1.236293e-15 7.071068e-01
    outer loop
      vertex   6.390000e+00 -1.205984e+01 1.566984e+01
      vertex   6.644000e+00 -1.053584e+01 1.592384e+01
      vertex   6.390000e+00 -1.053584e+01 1.566984e+01
    endloop
  endfacet
  facet normal -7.071068e-01 -5.019399e-15 7.071068e-01
    outer loop
      vertex   6.390000e+00 -1.053584e+01 1.566984e+01
      vertex   6.644000e+00 -1.053584e+01 1.592384e+01
      vertex   6.898000e+00 -1.002784e+01 1.617784e+01
    endloop
  endfacet
  facet normal -7.071068e-01 0.000000e+00 7.071068e-01
    outer loop
      vertex   6.898000e+00 -1.002784e+01 1.617784e+01
      vertex   6.644000e+00 -1.053584e+01 1.592384e+01
      vertex   6.898000e+00 -1.053584e+01 1.617784e+01
    endloop
  endfacet
  facet normal 7.071068e-01 8.241955e-16 7.071068e-01
    outer loop
      vertex   8.676000e+00 -1.205984e+01 1.592384e+01
      vertex   8.930000e+00 -1.053584e+01 1.566984e+01
      vertex   8.676000e+00 -1.053584e+01 1.592384e+01
    endloop
  endfacet
  facet normal 7.071068e-01 2.433648e-15 7.071068e-01
    outer loop
      vertex   8.676000e+00 -1.053584e+01 1.592384e+01
      vertex   8.930000e+00 -1.053584e+01 1.566984e+01
      vertex   8.422000e+00 -1.002784e+01 1.617784e+01
    endloop
  endfacet
  facet normal 7.071068e-01 4.943348e-15 7.071068e-01
    outer loop
      vertex   8.676000e+00 -1.053584e+01 1.592384e+01
      vertex   8.422000e+00 -1.002784e+01 1.617784e+01
      vertex   8.422000e+00 -1.053584e+01 1.617784e+01
    endloop
  endfacet
  facet normal 7.071068e-01 0.000000e+00 7.071068e-01
    outer loop
      vertex   8.422000e+00 -1.205984e+01 1.617784e+01
      vertex   8.422000e+00 -1.256784e+01 1.617784e+01
      vertex   8.676000e+00 -1.205984e+01 1.592384e+01
    endloop
  endfacet
  facet normal 7.071068e-01 4.943348e-15 7.071068e-01
    outer loop
      vertex   8.676000e+00 -1.205984e+01 1.592384e+01
      vertex   8.422000e+00 -1.256784e+01 1.617784e+01
      vertex   8.930000e+00 -1.205984e+01 1.566984e+01
    endloop
  endfacet
  facet normal 7.071068e-01 8.365666e-16 7.071068e-01
    outer loop
      vertex   8.676000e+00 -1.205984e+01 1.592384e+01
      vertex   8.930000e+00 -1.205984e+01 1.566984e+01
      vertex   8.930000e+00 -1.053584e+01 1.566984e+01
    endloop
  endfacet
  facet normal -1.000000e+00 -1.748383e-15 0.000000e+00
    outer loop
      vertex   6.390000e+00 -1.205984e+01 1.363784e+01
      vertex   6.390000e+00 -1.205984e+01 1.566984e+01
      vertex   6.390000e+00 -1.053584e+01 1.363784e+01
    endloop
  endfacet
  facet normal -1.000000e+00 -1.748383e-15 0.000000e+00
    outer loop
      vertex   6.390000e+00 -1.053584e+01 1.363784e+01
      vertex   6.390000e+00 -1.205984e+01 1.566984e+01
      vertex   6.390000e+00 -1.053584e+01 1.566984e+01
    endloop
  endfacet
  facet normal 1.165588e-15 -1.000000e+00 0.000000e+00
    outer loop
      vertex   6.898000e+00 -1.256784e+01 1.617784e+01
      vertex   6.898000e+00 -1.256784e+01 1.363784e+01
      vertex   8.422000e+00 -1.256784e+01 1.617784e+01
    endloop
  endfacet
  facet normal 8.151579e-31 -1.000000e+00 6.993531e-16
    outer loop
      vertex   8.422000e+00 -1.256784e+01 1.617784e+01
      vertex   6.898000e+00 -1.256784e+01 1.363784e+01
      vertex   8.422000e+00 -1.256784e+01 1.363784e+01
    endloop
  endfacet
  facet normal 1.000000e+00 1.165588e-15 -0.000000e+00
    outer loop
      vertex   8.930000e+00 -1.053584e+01 1.363784e+01
      vertex   8.930000e+00 -1.053584e+01 1.566984e+01
      vertex   8.930000e+00 -1.205984e+01 1.363784e+01
    endloop
  endfacet
  facet normal 1.000000e+00 1.165588e-15 -0.000000e+00
    outer loop
      vertex   8.930000e+00 -1.205984e+01 1.363784e+01
      vertex   8.930000e+00 -1.053584e+01 1.566984e+01
      vertex   8.930000e+00 -1.205984e+01 1.566984e+01
    endloop
  endfacet
  facet normal 0.000000e+00 1.000000e+00 0.000000e+00
    outer loop
      vertex   6.898000e+00 -1.002784e+01 1.363784e+01
      vertex   6.898000e+00 -1.002784e+01 1.617784e+01
      vertex   8.422000e+00 -1.002784e+01 1.363784e+01
    endloop
  endfacet
  facet normal -1.165588e-15 1.000000e+00 -6.993531e-16
    outer loop
      vertex   8.422000e+00 -1.002784e+01 1.363784e+01
      vertex   6.898000e+00 -1.002784e+01 1.617784e+01
      vertex   8.422000e+00 -1.002784e+01 1.617784e+01
    endloop
  endfacet
  facet normal 0.000000e+00 6.993531e-15 1.000000e+00
    outer loop
      vertex   8.422000e+00 -1.053584e+01 1.617784e+01
      vertex   8.422000e+00 -1.002784e+01 1.617784e+01
      vertex   6.898000e+00 -1.053584e+01 1.617784e+01
    endloop
  endfacet
  facet normal 2.331177e-15 -0.000000e+00 1.000000e+00
    outer loop
      vertex   6.898000e+00 -1.053584e+01 1.617784e+01
      vertex   8.422000e+00 -1.002784e+01 1.617784e+01
      vertex   6.898000e+00 -1.002784e+01 1.617784e+01
    endloop
  endfacet
  facet normal -1.165588e-15 5.439413e-16 -1.000000e+00
    outer loop
      vertex   6.898000e+00 -1.256784e+01 1.363784e+01
      vertex   7.342500e+00 -1.161534e+01 1.363784e+01
      vertex   8.422000e+00 -1.256784e+01 1.363784e+01
    endloop
  endfacet
  facet normal -2.797412e-15 -1.305459e-15 -1.000000e+00
    outer loop
      vertex   8.422000e+00 -1.256784e+01 1.363784e+01
      vertex   7.342500e+00 -1.161534e+01 1.363784e+01
      vertex   7.977500e+00 -1.161534e+01 1.363784e+01
    endloop
  endfacet
  facet normal 0.000000e+00 0.000000e+00 -1.000000e+00
    outer loop
      vertex   8.422000e+00 -1.256784e+01 1.363784e+01
      vertex   7.977500e+00 -1.161534e+01 1.363784e+01
      vertex   8.930000e+00 -1.205984e+01 1.363784e+01
    endloop
  endfacet
  facet normal 0.000000e+00 0.000000e+00 -1.000000e+00
    outer loop
      vertex   8.930000e+00 -1.205984e+01 1.363784e+01
      vertex   7.977500e+00 -1.161534e+01 1.363784e+01
      vertex   7.977500e+00 -1.098034e+01 1.363784e+01
    endloop
  endfacet
  facet normal 0.000000e+00 0.000000e+00 -1.000000e+00
    outer loop
      vertex   8.930000e+00 -1.205984e+01 1.363784e+01
      vertex   7.977500e+00 -1.098034e+01 1.363784e+01
      vertex   8.930000e+00 -1.053584e+01 1.363784e+01
    endloop
  endfacet
  facet normal -0.000000e+00 0.000000e+00 -1.000000e+00
    outer loop
      vertex   8.930000e+00 -1.053584e+01 1.363784e+01
      vertex   7.977500e+00 -1.098034e+01 1.363784e+01
      vertex   8.422000e+00 -1.002784e+01 1.363784e+01
    endloop
  endfacet
  facet normal 0.000000e+00 0.000000e+00 -1.000000e+00
    outer loop
      vertex   8.422000e+00 -1.002784e+01 1.363784e+01
      vertex   7.977500e+00 -1.098034e+01 1.363784e+01
      vertex   7.342500e+00 -1.098034e+01 1.363784e+01
    endloop
  endfacet
  facet normal -0.000000e+00 0.000000e+00 -1.000000e+00
    outer loop
      vertex   8.422000e+00 -1.002784e+01 1.363784e+01
      vertex   7.342500e+00 -1.098034e+01 1.363784e+01
      vertex   6.898000e+00 -1.002784e+01 1.363784e+01
    endloop
  endfacet
  facet normal -2.384158e-15 -1.112607e-15 -1.000000e+00
    outer loop
      vertex   6.898000e+00 -1.002784e+01 1.363784e+01
      vertex   7.342500e+00 -1.098034e+01 1.363784e+01
      vertex   6.390000e+00 -1.053584e+01 1.363784e+01
    endloop
  endfacet
  facet normal -3.170401e-15 -2.797412e-15 -1.000000e+00
    outer loop
      vertex   6.390000e+00 -1.053584e+01 1.363784e+01
      vertex   7.342500e+00 -1.098034e+01 1.363784e+01
      vertex   7.342500e+00 -1.161534e+01 1.363784e+01
    endloop
  endfacet
  facet normal 0.000000e+00 0.000000e+00 -1.000000e+00
    outer loop
      vertex   6.390000e+00 -1.053584e+01 1.363784e+01
      vertex   7.342500e+00 -1.161534e+01 1.363784e+01
      vertex   6.390000e+00 -1.205984e+01 1.363784e+01
    endloop
  endfacet
  facet normal 0.000000e+00 0.000000e+00 -1.000000e+00
    outer loop
      vertex   6.390000e+00 -1.205984e+01 1.363784e+01
      vertex   7.342500e+00 -1.161534e+01 1.363784e+01
      vertex   6.898000e+00 -1.256784e+01 1.363784e+01
    endloop
  endfacet
  facet normal -7.071068e-01 7.071068e-01 0.000000e+00
    outer loop
      vertex   6.390000e+00 -1.053584e+01 1.363784e+01
      vertex   6.390000e+00 -1.053584e+01 1.566984e+01
      vertex   6.898000e+00 -1.002784e+01 1.363784e+01
    endloop
  endfacet
  facet normal -7.071068e-01 7.071068e-01 0.000000e+00
    outer loop
      vertex   6.898000e+00 -1.002784e+01 1.363784e+01
      vertex   6.390000e+00 -1.053584e+01 1.566984e+01
      vertex   6.898000e+00 -1.002784e+01 1.617784e+01
    endloop
  endfacet
  facet normal -7.071068e-01 -7.071068e-01 0.000000e+00
    outer loop
      vertex   6.390000e+00 -1.205984e+01 1.363784e+01
      vertex   6.898000e+00 -1.256784e+01 1.363784e+01
      vertex   6.390000e+00 -1.205984e+01 1.566984e+01
    endloop
  endfacet
  facet normal -7.071068e-01 -7.071068e-01 0.000000e+00
    outer loop
      vertex   6.390000e+00 -1.205984e+01 1.566984e+01
      vertex   6.898000e+00 -1.256784e+01 1.363784e+01
      vertex   6.898000e+00 -1.256784e+01 1.617784e+01
    endloop
  endfacet
  facet normal 7.071068e-01 -7.071068e-01 0.000000e+00
    outer loop
      vertex   8.930000e+00 -1.205984e+01 1.363784e+01
      vertex   8.930000e+00 -1.205984e+01 1.566984e+01
      vertex   8.422000e+00 -1.256784e+01 1.363784e+01
    endloop
  endfacet
  facet normal 7.071068e-01 -7.071068e-01 4.945173e-16
    outer loop
      vertex   8.422000e+00 -1.256784e+01 1.363784e+01
      vertex   8.930000e+00 -1.205984e+01 1.566984e+01
      vertex   8.422000e+00 -1.256784e+01 1.617784e+01
    endloop
  endfacet
  facet normal 7.071068e-01 7.071068e-01 -0.000000e+00
    outer loop
      vertex   8.930000e+00 -1.053584e+01 1.363784e+01
      vertex   8.422000e+00 -1.002784e+01 1.363784e+01
      vertex   8.930000e+00 -1.053584e+01 1.566984e+01
    endloop
  endfacet
  facet normal 7.071068e-01 7.071068e-01 -5.171502e-16
    outer loop
      vertex   8.930000e+00 -1.053584e+01 1.566984e+01
      vertex   8.422000e+00 -1.002784e+01 1.363784e+01
      vertex   8.422000e+00 -1.002784e+01 1.617784e+01
    endloop
  endfacet
  facet normal -1.165588e-15 1.000000e+00 1.165588e-15
    outer loop
      vertex   6.898000e+00 -1.205984e+01 1.617784e+01
      vertex   8.422000e+00 -1.205984e+01 1.617784e+01
      vertex   6.644000e+00 -1.205984e+01 1.592384e+01
    endloop
  endfacet
  facet normal -8.741914e-16 1.000000e+00 -8.741914e-16
    outer loop
      vertex   6.644000e+00 -1.205984e+01 1.592384e+01
      vertex   8.422000e+00 -1.205984e+01 1.617784e+01
      vertex   8.676000e+00 -1.205984e+01 1.592384e+01
    endloop
  endfacet
  facet normal 8.741914e-16 -1.000000e+00 -8.741914e-16
    outer loop
      vertex   6.644000e+00 -1.053584e+01 1.592384e+01
      vertex   8.676000e+00 -1.053584e+01 1.592384e+01
      vertex   6.898000e+00 -1.053584e+01 1.617784e+01
    endloop
  endfacet
  facet normal 0.000000e+00 -1.000000e+00 -6.993531e-15
    outer loop
      vertex   6.898000e+00 -1.053584e+01 1.617784e+01
      vertex   8.676000e+00 -1.053584e+01 1.592384e+01
      vertex   8.422000e+00 -1.053584e+01 1.617784e+01
    endloop
  endfacet
  facet normal 0.000000e+00 0.000000e+00 1.000000e+00
    outer loop
      vertex   8.676000e+00 -1.053584e+01 1.592384e+01
      vertex   6.644000e+00 -1.053584e+01 1.592384e+01
      vertex   7.342500e+00 -1.098034e+01 1.592384e+01
    endloop
  endfacet
  facet normal 0.000000e+00 0.000000e+00 1.000000e+00
    outer loop
      vertex   7.342500e+00 -1.098034e+01 1.592384e+01
      vertex   6.644000e+00 -1.053584e+01 1.592384e+01
      vertex   6.644000e+00 -1.205984e+01 1.592384e+01
    endloop
  endfacet
  facet normal 0.000000e+00 0.000000e+00 1.000000e+00
    outer loop
      vertex   7.342500e+00 -1.098034e+01 1.592384e+01
      vertex   6.644000e+00 -1.205984e+01 1.592384e+01
      vertex   7.342500e+00 -1.161534e+01 1.592384e+01
    endloop
  endfacet
  facet normal 0.000000e+00 0.000000e+00 1.000000e+00
    outer loop
      vertex   7.342500e+00 -1.161534e+01 1.592384e+01
      vertex   6.644000e+00 -1.205984e+01 1.592384e+01
      vertex   8.676000e+00 -1.205984e+01 1.592384e+01
    endloop
  endfacet
  facet normal -0.000000e+00 0.000000e+00 1.000000e+00
    outer loop
      vertex   7.342500e+00 -1.161534e+01 1.592384e+01
      vertex   8.676000e+00 -1.205984e+01 1.592384e+01
      vertex   7.977500e+00 -1.161534e+01 1.592384e+01
    endloop
  endfacet
  facet normal -0.000000e+00 0.000000e+00 1.000000e+00
    outer loop
      vertex   7.977500e+00 -1.161534e+01 1.592384e+01
      vertex   8.676000e+00 -1.205984e+01 1.592384e+01
      vertex   8.676000e+00 -1.053584e+01 1.592384e+01
    endloop
  endfacet
  facet normal 0.000000e+00 0.000000e+00 1.000000e+00
    outer loop
      vertex   7.977500e+00 -1.161534e+01 1.592384e+01
      vertex   8.676000e+00 -1.053584e+01 1.592384e+01
      vertex   7.977500e+00 -1.098034e+01 1.592384e+01
    endloop
  endfacet
  facet normal 0.000000e+00 -0.000000e+00 1.000000e+00
    outer loop
      vertex   7.977500e+00 -1.098034e+01 1.592384e+01
      vertex   8.676000e+00 -1.053584e+01 1.592384e+01
      vertex   7.342500e+00 -1.098034e+01 1.592384e+01
    endloop
  endfacet
  facet normal -0.000000e+00 1.000000e+00 0.000000e+00
    outer loop
      vertex   7.342500e+00 -1.161534e+01 1.363784e+01
      vertex   7.342500e+00 -1.161534e+01 1.592384e+01
      vertex   7.977500e+00 -1.161534e+01 1.363784e+01
    endloop
  endfacet
  facet normal 0.000000e+00 1.000000e+00 -0.000000e+00
    outer loop
      vertex   7.977500e+00 -1.161534e+01 1.363784e+01
      vertex   7.342500e+00 -1.161534e+01 1.592384e+01
      vertex   7.977500e+00 -1.161534e+01 1.592384e+01
    endloop
  endfacet
  facet normal 1.000000e+00 0.000000e+00 -0.000000e+00
    outer loop
      vertex   7.342500e+00 -1.098034e+01 1.363784e+01
      vertex   7.342500e+00 -1.098034e+01 1.592384e+01
      vertex   7.342500e+00 -1.161534e+01 1.363784e+01
    endloop
  endfacet
  facet normal 1.000000e+00 0.000000e+00 0.000000e+00
    outer loop
      vertex   7.342500e+00 -1.161534e+01 1.363784e+01
      vertex   7.342500e+00 -1.098034e+01 1.592384e+01
      vertex   7.342500e+00 -1.161534e+01 1.592384e+01
    endloop
  endfacet
  facet normal 2.797412e-15 -1.000000e+00 0.000000e+00
    outer loop
      vertex   7.977500e+00 -1.098034e+01 1.363784e+01
      vertex   7.977500e+00 -1.098034e+01 1.592384e+01
      vertex   7.342500e+00 -1.098034e+01 1.363784e+01
    endloop
  endfacet
  facet normal 2.797412e-15 -1.000000e+00 0.000000e+00
    outer loop
      vertex   7.342500e+00 -1.098034e+01 1.363784e+01
      vertex   7.977500e+00 -1.098034e+01 1.592384e+01
      vertex   7.342500e+00 -1.098034e+01 1.592384e+01
    endloop
  endfacet
  facet normal -1.000000e+00 0.000000e+00 0.000000e+00
    outer loop
      vertex   7.977500e+00 -1.161534e+01 1.363784e+01
      vertex   7.977500e+00 -1.161534e+01 1.592384e+01
      vertex   7.977500e+00 -1.098034e+01 1.363784e+01
    endloop
  endfacet
  facet normal -1.000000e+00 0.000000e+00 0.000000e+00
    outer loop
      vertex   7.977500e+00 -1.098034e+01 1.363784e+01
      vertex   7.977500e+00 -1.161534e+01 1.592384e+01
      vertex   7.977500e+00 -1.098034e+01 1.592384e+01
    endloop
  endfacet
  facet normal 0.000000e+00 -1.000000e+00 -0.000000e+00
    outer loop
      vertex   7.342500e+00 -1.161534e+01 1.833684e+01
      vertex   7.342500e+00 -1.161534e+01 7.668842e+00
      vertex   7.977500e+00 -1.161534e+01 1.833684e+01
    endloop
  endfacet
  facet normal 0.000000e+00 -1.000000e+00 0.000000e+00
    outer loop
      vertex   7.977500e+00 -1.161534e+01 1.833684e+01
      vertex   7.342500e+00 -1.161534e+01 7.668842e+00
      vertex   7.977500e+00 -1.161534e+01 7.668842e+00
    endloop
  endfacet
  facet normal -1.000000e+00 0.000000e+00 2.497690e-16
    outer loop
      vertex   7.342500e+00 -1.098034e+01 1.833684e+01
      vertex   7.342500e+00 -1.098034e+01 7.668842e+00
      vertex   7.342500e+00 -1.161534e+01 1.833684e+01
    endloop
  endfacet
  facet normal -1.000000e+00 0.000000e+00 2.497690e-16
    outer loop
      vertex   7.342500e+00 -1.161534e+01 1.833684e+01
      vertex   7.342500e+00 -1.098034e+01 7.668842e+00
      vertex   7.342500e+00 -1.161534e+01 7.668842e+00
    endloop
  endfacet
  facet normal 0.000000e+00 1.000000e+00 -1.665126e-16
    outer loop
      vertex   7.977500e+00 -1.098034e+01 1.833684e+01
      vertex   7.977500e+00 -1.098034e+01 7.668842e+00
      vertex   7.342500e+00 -1.098034e+01 1.833684e+01
    endloop
  endfacet
  facet normal 0.000000e+00 1.000000e+00 -1.665126e-16
    outer loop
      vertex   7.342500e+00 -1.098034e+01 1.833684e+01
      vertex   7.977500e+00 -1.098034e+01 7.668842e+00
      vertex   7.342500e+00 -1.098034e+01 7.668842e+00
    endloop
  endfacet
  facet normal 1.000000e+00 0.000000e+00 -2.497690e-16
    outer loop
      vertex   7.977500e+00 -1.161534e+01 1.833684e+01
      vertex   7.977500e+00 -1.161534e+01 7.668842e+00
      vertex   7.977500e+00 -1.098034e+01 1.833684e+01
    endloop
  endfacet
  facet normal 1.000000e+00 0.000000e+00 -2.497690e-16
    outer loop
      vertex   7.977500e+00 -1.098034e+01 1.833684e+01
      vertex   7.977500e+00 -1.161534e+01 7.668842e+00
      vertex   7.977500e+00 -1.098034e+01 7.668842e+00
    endloop
  endfacet
  facet normal -0.000000e+00 0.000000e+00 1.000000e+00
    outer loop
      vertex   7.596500e+00 -1.123434e+01 1.871784e+01
      vertex   7.596500e+00 -1.136134e+01 1.871784e+01
      vertex   7.723500e+00 -1.123434e+01 1.871784e+01
    endloop
  endfacet
  facet normal 0.000000e+00 0.000000e+00 1.000000e+00
    outer loop
      vertex   7.723500e+00 -1.123434e+01 1.871784e+01
      vertex   7.596500e+00 -1.136134e+01 1.871784e+01
      vertex   7.723500e+00 -1.136134e+01 1.871784e+01
    endloop
  endfacet
  facet normal -0.000000e+00 -0.000000e+00 -1.000000e+00
    outer loop
      vertex   7.723500e+00 -1.123434e+01 7.287842e+00
      vertex   7.723500e+00 -1.136134e+01 7.287842e+00
      vertex   7.596500e+00 -1.123434e+01 7.287842e+00
    endloop
  endfacet
  facet normal 0.000000e+00 0.000000e+00 -1.000000e+00
    outer loop
      vertex   7.596500e+00 -1.123434e+01 7.287842e+00
      vertex   7.723500e+00 -1.136134e+01 7.287842e+00
      vertex   7.596500e+00 -1.136134e+01 7.287842e+00
    endloop
  endfacet
  facet normal -0.000000e+00 8.320503e-01 5.547002e-01
    outer loop
      vertex   7.596500e+00 -1.123434e+01 1.871784e+01
      vertex   7.723500e+00 -1.123434e+01 1.871784e+01
      vertex   7.342500e+00 -1.098034e+01 1.833684e+01
    endloop
  endfacet
  facet normal -0.000000e+00 8.320503e-01 5.547002e-01
    outer loop
      vertex   7.342500e+00 -1.098034e+01 1.833684e+01
      vertex   7.723500e+00 -1.123434e+01 1.871784e+01
      vertex   7.977500e+00 -1.098034e+01 1.833684e+01
    endloop
  endfacet
  facet normal 8.320503e-01 0.000000e+00 5.547002e-01
    outer loop
      vertex   7.723500e+00 -1.123434e+01 1.871784e+01
      vertex   7.723500e+00 -1.136134e+01 1.871784e+01
      vertex   7.977500e+00 -1.098034e+01 1.833684e+01
    endloop
  endfacet
  facet normal 8.320503e-01 0.000000e+00 5.547002e-01
    outer loop
      vertex   7.977500e+00 -1.098034e+01 1.833684e+01
      vertex   7.723500e+00 -1.136134e+01 1.871784e+01
      vertex   7.977500e+00 -1.161534e+01 1.833684e+01
    endloop
  endfacet
  facet normal -8.320503e-01 0.000000e+00 5.547002e-01
    outer loop
      vertex   7.342500e+00 -1.098034e+01 1.833684e+01
      vertex   7.342500e+00 -1.161534e+01 1.833684e+01
      vertex   7.596500e+00 -1.123434e+01 1.871784e+01
    endloop
  endfacet
  facet normal -8.320503e-01 0.000000e+00 5.547002e-01
    outer loop
      vertex   7.596500e+00 -1.123434e+01 1.871784e+01
      vertex   7.342500e+00 -1.161534e+01 1.833684e+01
      vertex   7.596500e+00 -1.136134e+01 1.871784e+01
    endloop
  endfacet
  facet normal 0.000000e+00 -8.320503e-01 5.547002e-01
    outer loop
      vertex   7.723500e+00 -1.136134e+01 1.871784e+01
      vertex   7.596500e+00 -1.136134e+01 1.871784e+01
      vertex   7.977500e+00 -1.161534e+01 1.833684e+01
    endloop
  endfacet
  facet normal 0.000000e+00 -8.320503e-01 5.547002e-01
    outer loop
      vertex   7.977500e+00 -1.161534e+01 1.833684e+01
      vertex   7.596500e+00 -1.136134e+01 1.871784e+01
      vertex   7.342500e+00 -1.161534e+01 1.833684e+01
    endloop
  endfacet
  facet normal -8.320503e-01 0.000000e+00 -5.547002e-01
    outer loop
      vertex   7.342500e+00 -1.161534e+01 7.668842e+00
      vertex   7.342500e+00 -1.098034e+01 7.668842e+00
      vertex   7.596500e+00 -1.136134e+01 7.287842e+00
    endloop
  endfacet
  facet normal -8.320503e-01 0.000000e+00 -5.547002e-01
    outer loop
      vertex   7.596500e+00 -1.136134e+01 7.287842e+00
      vertex   7.342500e+00 -1.098034e+01 7.668842e+00
      vertex   7.596500e+00 -1.123434e+01 7.287842e+00
    endloop
  endfacet
  facet normal 0.000000e+00 8.320503e-01 -5.547002e-01
    outer loop
      vertex   7.342500e+00 -1.098034e+01 7.668842e+00
      vertex   7.977500e+00 -1.098034e+01 7.668842e+00
      vertex   7.596500e+00 -1.123434e+01 7.287842e+00
    endloop
  endfacet
  facet normal 0.000000e+00 8.320503e-01 -5.547002e-01
    outer loop
      vertex   7.596500e+00 -1.123434e+01 7.287842e+00
      vertex   7.977500e+00 -1.098034e+01 7.668842e+00
      vertex   7.723500e+00 -1.123434e+01 7.287842e+00
    endloop
  endfacet
  facet normal 0.000000e+00 -8.320503e-01 -5.547002e-01
    outer loop
      vertex   7.596500e+00 -1.136134e+01 7.287842e+00
      vertex   7.723500e+00 -1.136134e+01 7.287842e+00
      vertex   7.342500e+00 -1.161534e+01 7.668842e+00
    endloop
  endfacet
  facet normal 0.000000e+00 -8.320503e-01 -5.547002e-01
    outer loop
      vertex   7.342500e+00 -1.161534e+01 7.668842e+00
      vertex   7.723500e+00 -1.136134e+01 7.287842e+00
      vertex   7.977500e+00 -1.161534e+01 7.668842e+00
    endloop
  endfacet
  facet normal 8.320503e-01 0.000000e+00 -5.547002e-01
    outer loop
      vertex   7.977500e+00 -1.098034e+01 7.668842e+00
      vertex   7.977500e+00 -1.161534e+01 7.668842e+00
      vertex   7.723500e+00 -1.123434e+01 7.287842e+00
    endloop
  endfacet
  facet normal 8.320503e-01 0.000000e+00 -5.547002e-01
    outer loop
      vertex   7.723500e+00 -1.123434e+01 7.287842e+00
      vertex   7.977500e+00 -1.161534e+01 7.668842e+00
      vertex   7.723500e+00 -1.136134e+01 7.287842e+00
    endloop
  endfacet
endsolid
